<?xml version="1.0" standalone="no"?>
<!DOCTYPE svg PUBLIC "-//W3C//DTD SVG 20010904//EN"
 "http://www.w3.org/TR/2001/REC-SVG-20010904/DTD/svg10.dtd">
<svg version="1.0" xmlns="http://www.w3.org/2000/svg"
 width="1024.000000pt" height="1024.000000pt" viewBox="0 0 1024.000000 1024.000000"
 preserveAspectRatio="xMidYMid meet">
<metadata>
Created by potrace 1.16, written by Peter Selinger 2001-2019
</metadata>
<g transform="translate(0.000000,1024.000000) scale(0.100000,-0.100000)"
fill="#000000" stroke="none">
<path d="M0 5120 l0 -5120 5120 0 5120 0 0 5120 0 5120 -5120 0 -5120 0 0
-5120z m5196 4619 c32 -15 48 -32 65 -66 20 -41 21 -51 10 -92 -11 -43 -33
-71 -75 -96 -16 -9 -17 -28 -9 -222 5 -116 11 -215 15 -219 11 -10 86 -26 143
-29 28 -2 70 -7 95 -11 25 -4 86 -9 135 -11 118 -4 178 -13 187 -27 4 -6 8 51
8 126 0 112 -3 142 -17 167 -16 28 -17 33 -3 58 22 40 78 40 100 1 14 -26 13
-31 -9 -71 -23 -42 -24 -50 -17 -168 4 -68 8 -125 10 -127 5 -4 91 -14 138
-16 20 -1 34 -4 32 -8 -7 -12 69 -31 135 -34 35 -1 68 -7 73 -12 5 -5 -5 -7
-24 -5 -24 2 -20 -1 17 -12 27 -8 61 -12 75 -9 20 5 22 3 10 -6 -16 -12 -8
-11 49 5 17 5 22 4 16 -5 -6 -10 -1 -12 19 -8 19 4 26 2 22 -7 -3 -9 7 -14 27
-17 44 -5 67 1 67 17 0 8 6 12 13 10 11 -5 26 13 53 63 24 48 72 91 94 85 31
-8 33 -19 11 -68 -11 -25 -16 -43 -11 -40 4 3 3 -8 -3 -25 -6 -16 -14 -25 -17
-20 -3 5 -7 -11 -8 -36 -1 -35 3 -50 21 -67 12 -12 30 -22 40 -23 66 -3 72 -4
57 -14 -12 -7 -11 -10 5 -16 11 -5 20 -3 23 4 4 13 32 5 32 -10 0 -5 -6 -6
-12 -2 -10 5 -10 4 0 -7 14 -15 172 -22 172 -8 0 5 7 6 15 3 9 -4 15 0 15 10
0 9 4 16 10 16 5 0 10 33 12 73 3 69 4 72 28 72 l25 0 3 -135 c2 -98 6 -131
13 -120 9 12 10 10 6 -8 -3 -12 -1 -20 4 -16 5 3 9 -5 10 -18 0 -22 1 -22 9
-3 8 18 9 18 9 2 1 -10 5 -16 10 -13 5 3 20 -5 32 -19 17 -17 31 -22 47 -18
12 3 22 1 22 -5 0 -6 10 -14 23 -18 12 -4 24 -10 27 -13 10 -14 126 -50 167
-53 22 -1 47 3 55 10 8 6 18 9 21 5 6 -5 13 198 9 257 0 8 4 18 10 21 5 3 -6
16 -25 28 -63 39 -84 118 -47 179 53 87 186 73 226 -24 24 -57 -4 -134 -60
-164 -29 -15 -37 -60 -11 -60 11 0 15 -12 15 -45 0 -25 5 -45 10 -45 6 0 10
-17 10 -37 0 -21 5 -45 10 -53 5 -8 10 -10 10 -3 0 6 15 11 37 10 20 -1 38 4
41 11 2 7 12 12 22 12 9 0 23 7 30 15 7 8 17 15 22 15 12 0 38 26 38 37 0 4
14 21 30 36 17 16 27 34 23 39 -3 7 -1 8 6 4 12 -8 33 32 24 47 -3 4 5 28 17
53 15 32 25 44 36 40 8 -3 12 -2 9 3 -3 6 7 9 23 9 15 -1 37 4 47 9 26 13 54
5 34 -9 -10 -7 -4 -8 18 -4 31 5 32 5 42 -47 13 -67 3 -114 -29 -132 -45 -24
-110 -55 -117 -55 -4 0 2 7 13 15 10 8 14 15 8 15 -14 0 -36 -25 -29 -32 3 -3
-1 -11 -10 -18 -8 -7 -15 -9 -15 -5 0 4 -6 2 -14 -5 -8 -6 -12 -19 -9 -27 5
-12 2 -15 -8 -11 -10 4 -15 -1 -17 -15 0 -12 -6 -23 -12 -25 -5 -2 -10 -9 -10
-15 0 -6 -9 -20 -20 -32 -48 -51 -59 -65 -71 -101 -7 -22 -18 -44 -25 -49 -7
-6 -17 -28 -22 -48 -9 -32 -7 -44 11 -78 12 -23 39 -55 59 -71 25 -20 38 -38
38 -54 0 -19 5 -24 24 -24 16 0 32 -11 46 -30 12 -16 16 -30 10 -30 -6 0 -8
-4 -5 -10 3 -5 15 -10 26 -10 10 0 41 -23 67 -51 26 -29 65 -70 87 -92 22 -22
50 -54 63 -71 12 -16 22 -26 22 -22 0 5 19 -20 42 -55 46 -70 46 -70 83 -115
14 -18 25 -37 25 -43 0 -6 10 -11 23 -11 12 0 34 -7 50 -15 29 -15 106 -8 110
10 2 14 59 61 70 57 5 -1 11 6 14 17 3 11 11 22 18 25 8 3 22 25 33 50 11 24
29 49 40 55 37 20 112 42 122 36 6 -3 10 -2 10 4 0 6 6 9 13 7 6 -3 25 -7 41
-11 23 -5 27 -8 15 -16 -9 -5 -9 -9 -2 -9 6 0 15 5 18 10 3 6 12 10 18 10 7 0
6 -4 -3 -10 -12 -8 -10 -10 9 -10 13 0 22 -3 18 -6 -3 -4 0 -13 8 -21 20 -19
20 -39 0 -23 -24 20 -18 5 7 -16 12 -10 18 -13 14 -6 -4 6 -2 12 4 12 6 0 4
10 -6 25 -9 14 -12 25 -8 25 14 0 31 -32 38 -70 3 -19 3 -29 0 -22 -3 6 -10
12 -15 12 -6 0 -6 -8 1 -19 15 -29 12 -108 -5 -141 -8 -16 -32 -42 -52 -57
-31 -24 -46 -28 -98 -28 -40 0 -69 6 -81 15 -10 9 -15 10 -10 3 4 -7 2 -13 -3
-13 -6 0 -11 5 -11 11 0 5 -4 8 -10 4 -5 -3 -7 -12 -3 -20 3 -11 -5 -19 -28
-27 -19 -7 -36 -12 -39 -12 -3 0 -17 -12 -32 -28 -15 -15 -25 -28 -22 -28 3 0
-2 -10 -10 -22 -9 -12 -16 -31 -16 -40 0 -10 -5 -27 -12 -37 -9 -15 -9 -26 -1
-44 8 -17 8 -28 1 -35 -7 -7 -4 -19 10 -39 12 -15 26 -48 32 -73 7 -25 16 -47
21 -50 9 -6 39 -114 39 -142 0 -10 3 -18 8 -18 4 0 18 -28 31 -62 14 -35 31
-68 39 -75 8 -6 11 -16 7 -22 -3 -6 1 -21 9 -33 9 -12 16 -32 16 -43 0 -12 5
-26 11 -32 5 -5 11 -21 13 -34 10 -78 18 -99 40 -100 20 0 20 -1 1 -9 -12 -5
42 -9 142 -9 158 -1 162 0 180 22 26 34 55 47 102 47 96 0 157 -147 88 -214
-75 -73 -174 -55 -209 39 -6 19 -17 35 -23 36 -5 0 -23 3 -40 6 -16 2 -81 2
-144 -2 -104 -7 -113 -9 -90 -21 13 -7 19 -13 13 -14 -11 0 -16 -30 -4 -30 3
0 4 -15 2 -34 -4 -38 24 -136 39 -136 5 0 9 -9 9 -20 0 -13 15 -26 48 -41 42
-20 67 -23 222 -27 96 -2 218 1 270 6 105 11 112 8 108 -43 l-3 -30 -275 -6
c-364 -8 -397 -10 -382 -16 10 -4 10 -8 1 -19 -9 -11 -8 -14 2 -14 11 0 11 -2
-1 -10 -9 -6 -10 -10 -3 -10 7 0 11 -17 11 -47 -2 -97 10 -166 33 -203 5 -8
12 -23 15 -32 11 -31 87 -58 164 -58 l70 0 23 48 c20 43 25 47 62 50 28 3 35
6 24 13 -8 5 -9 9 -2 9 6 0 23 -14 38 -32 22 -26 25 -38 20 -66 -4 -23 -3 -32
4 -27 18 10 13 76 -6 91 -11 8 -13 13 -5 14 15 0 52 -58 52 -84 0 -29 -39 -85
-70 -101 -39 -20 -69 -19 -106 4 -26 16 -53 19 -164 20 -116 2 -131 0 -121
-13 7 -8 11 -23 10 -33 -6 -41 23 -90 65 -109 36 -16 68 -19 254 -20 181 0
277 5 353 19 9 1 31 15 48 30 26 21 43 27 79 27 56 -1 86 -16 113 -56 35 -53
20 -148 -29 -180 -36 -24 -110 -24 -146 -1 -15 10 -35 32 -44 48 l-17 29 -116
0 c-230 0 -600 -13 -587 -21 11 -8 5 -13 -13 -11 -8 1 -21 -108 -24 -203 -3
-82 14 -121 57 -130 15 -4 29 -5 31 -3 2 2 12 -3 21 -11 15 -13 19 -13 27 0 7
12 9 12 9 -2 0 -9 6 -16 14 -16 8 0 12 6 9 13 -2 7 5 18 18 24 17 10 19 14 8
22 -10 6 -7 7 10 3 13 -4 21 -3 18 2 -3 5 21 9 56 9 59 -1 65 -3 94 -36 61
-68 48 -160 -28 -202 -53 -30 -105 -19 -150 31 l-37 41 -78 -1 c-50 -1 -70 -4
-54 -8 24 -7 24 -8 -12 -21 -21 -8 -38 -19 -38 -25 -1 -5 -9 -28 -20 -50 -11
-23 -17 -53 -14 -70 4 -26 3 -27 -6 -10 -8 16 -9 13 -5 -17 4 -24 1 -38 -7
-41 -8 -3 -5 -6 6 -6 13 -1 17 -6 13 -21 -5 -19 0 -20 177 -20 l183 0 24 37
c13 21 41 46 62 57 130 63 226 -129 108 -214 -58 -40 -127 -28 -166 31 l-20
29 -224 -2 -225 -3 -3 -55 c-2 -30 -7 -56 -12 -58 -6 -2 -7 -11 -4 -19 5 -12
2 -15 -9 -10 -12 4 -14 1 -10 -15 3 -14 1 -19 -6 -14 -7 4 -12 3 -12 -3 0 -5
5 -11 12 -13 9 -3 7 -15 -6 -42 -20 -42 -32 -44 -16 -2 6 16 6 25 0 21 -5 -3
-12 -22 -16 -43 -4 -20 -10 -42 -15 -47 -4 -6 -10 -22 -12 -35 -3 -14 -12 -38
-20 -54 -9 -16 -13 -34 -11 -41 3 -7 0 -16 -5 -20 -6 -3 -8 -11 -5 -17 4 -6 2
-8 -3 -5 -6 4 -14 0 -17 -9 -8 -22 -8 -36 2 -30 4 2 9 -7 10 -21 1 -14 17 -38
34 -55 18 -17 55 -51 82 -77 27 -25 65 -58 84 -73 l35 -28 34 30 c49 43 98 42
146 -5 21 -20 37 -40 37 -46 0 -6 -10 1 -22 15 -13 14 -36 28 -53 31 -16 3
-23 2 -15 -1 30 -13 60 -48 60 -71 0 -13 -12 -35 -27 -49 -22 -20 -35 -24 -72
-22 -37 2 -48 8 -56 26 -12 28 -25 29 -25 1 0 -11 14 -34 31 -51 28 -28 34
-30 82 -25 50 6 51 6 24 -9 -58 -31 -136 12 -152 85 -4 20 -25 46 -58 73 -29
24 -54 45 -57 48 -7 8 -122 103 -144 120 -12 9 -17 10 -12 3 4 -7 2 -13 -3
-13 -6 0 -11 8 -11 18 -1 12 -5 9 -16 -11 -9 -16 -13 -36 -9 -45 3 -9 3 -13
-1 -9 -10 10 -143 -242 -144 -271 0 -26 61 -92 175 -187 39 -32 72 -61 75 -64
3 -4 24 -23 48 -42 l43 -36 42 14 c25 9 63 13 94 11 174 -14 208 -248 45 -320
-105 -47 -211 25 -215 145 l-2 43 -190 151 c-178 143 -191 151 -205 134 -9 -9
-20 -16 -25 -14 -6 1 -19 -10 -30 -26 -105 -152 -253 -321 -465 -532 -175
-174 -177 -175 -161 -199 11 -17 12 -22 3 -16 -12 7 -12 4 -2 -13 6 -12 18
-25 26 -28 7 -3 11 -9 8 -14 -3 -5 1 -9 9 -9 8 0 18 -9 23 -19 5 -11 74 -88
154 -171 80 -84 153 -162 163 -175 16 -19 26 -22 61 -18 35 4 47 1 74 -22 34
-29 55 -84 45 -124 -14 -63 -89 -101 -149 -76 -50 21 -67 55 -62 122 l5 57
-60 62 c-34 35 -65 61 -69 58 -5 -3 -7 -2 -6 3 5 16 -51 75 -63 67 -7 -4 -9
-3 -6 3 8 13 -17 36 -27 26 -4 -4 -4 0 0 10 4 10 1 17 -6 17 -7 0 -54 42 -106
93 -51 52 -100 100 -109 107 -13 10 -32 0 -122 -66 -60 -43 -144 -103 -188
-133 -95 -65 -126 -91 -119 -102 2 -4 -5 -6 -17 -4 -12 2 -30 0 -40 -6 -18 -9
-19 -25 -19 -229 0 -122 4 -230 10 -245 20 -52 -32 -99 -76 -70 -32 21 -33 76
-1 108 21 21 22 30 22 177 0 85 -1 169 -3 187 l-4 32 -82 -44 c-44 -24 -142
-72 -216 -105 -74 -34 -136 -63 -138 -65 -2 -1 25 -59 59 -128 l61 -125 -20
-20 -20 -20 -21 22 c-12 12 -21 29 -21 36 0 28 -65 213 -77 217 -7 3 -50 -9
-98 -27 -133 -49 -339 -107 -467 -132 l-117 -23 -3 -170 c-3 -152 -5 -170 -20
-173 -17 -3 -18 10 -18 164 l0 167 -47 -7 c-183 -28 -266 -36 -396 -42 -81 -4
-150 -10 -152 -14 -2 -3 -5 -105 -6 -225 l-1 -218 25 -13 c60 -32 86 -133 50
-194 -23 -39 -82 -70 -134 -70 -88 0 -148 69 -134 154 8 53 27 80 75 111 l40
25 -2 218 -3 217 -180 12 c-99 7 -227 19 -285 28 -251 37 -560 115 -777 195
-60 22 -109 36 -111 31 -2 -5 -14 1 -27 13 -12 12 -74 43 -137 70 -112 49
-234 109 -335 165 -49 27 -143 91 -143 97 0 7 92 -25 105 -36 8 -7 15 -9 15
-6 0 4 14 -2 31 -14 39 -29 270 -142 334 -165 28 -10 74 -29 102 -42 29 -13
66 -26 83 -29 16 -4 30 -10 30 -14 0 -10 121 -55 202 -75 35 -9 72 -20 83 -24
52 -23 462 -104 477 -95 5 3 17 3 26 -1 9 -4 42 -9 72 -11 30 -3 85 -9 122
-14 202 -30 918 3 1084 49 23 6 62 15 85 20 60 12 176 49 344 109 215 77 255
94 248 105 -3 5 -1 7 4 4 13 -8 145 45 190 76 l32 21 -32 11 c-30 9 -32 13
-32 55 0 44 1 45 33 48 29 3 34 0 48 -34 8 -20 13 -42 10 -49 -3 -10 2 -10 25
-2 16 6 29 15 29 18 0 4 21 21 48 38 83 53 79 47 49 71 -15 12 -27 29 -27 39
0 22 36 61 56 61 15 0 74 -58 74 -72 0 -10 78 29 98 49 8 8 22 11 30 8 9 -3
13 -3 9 1 -4 4 -1 14 6 23 11 14 10 14 -5 2 -22 -17 -23 -8 -2 13 13 13 14 22
4 51 -8 25 -8 40 0 55 17 32 64 30 95 -3 21 -23 55 -32 55 -15 0 5 5 6 12 2 7
-4 8 -3 4 4 -4 7 6 24 25 42 l32 29 -18 42 c-17 37 -18 44 -4 68 13 22 22 26
59 27 25 0 53 -3 62 -8 9 -4 27 -4 40 1 19 8 20 10 4 10 -17 1 -17 2 -2 26 9
14 16 45 16 72 0 35 -3 44 -10 33 -16 -24 0 51 16 78 15 22 44 31 44 12 0 -5
7 -10 15 -10 8 0 15 5 15 10 0 6 -4 10 -10 10 -18 0 -11 42 9 47 11 3 21 17
25 35 10 49 7 216 -4 223 -5 3 -10 5 -10 3 0 -2 -4 -17 -9 -35 -7 -26 -7 -31
5 -26 9 3 14 -2 14 -16 0 -27 -8 -27 -31 1 -21 23 -24 32 -9 23 6 -3 10 1 10
9 0 8 -4 18 -10 21 -5 3 -10 1 -10 -6 0 -7 -2 -10 -5 -7 -3 2 1 24 8 49 11 37
14 41 19 22 3 -13 2 -23 -3 -23 -5 0 -9 -8 -9 -17 0 -15 4 -13 20 7 11 14 20
33 20 43 0 10 5 27 10 38 8 15 7 19 -4 19 -10 0 -16 -13 -19 -38 -2 -20 -3 -8
-2 27 2 57 1 63 -11 46 -17 -23 -18 -15 -3 18 14 31 48 47 103 47 32 0 48 6
66 25 13 14 30 25 37 25 8 0 12 4 8 9 -3 5 0 21 7 36 8 19 14 22 21 13 6 -9 7
-8 3 4 -5 17 59 139 85 162 7 6 5 -2 -5 -19 l-17 -30 20 24 c12 12 18 27 15
32 -3 5 25 55 62 111 37 57 87 142 112 190 l44 88 -29 57 c-36 74 -43 171 -16
223 23 44 70 76 128 84 56 9 102 46 114 94 39 146 63 612 50 956 -5 115 -11
211 -14 214 -3 3 5 17 18 31 42 45 60 107 60 206 0 66 -6 104 -20 140 -26 66
-70 134 -91 142 -26 9 -62 45 -62 61 0 8 19 31 41 50 41 35 78 99 79 135 0 10
-9 40 -21 67 -15 36 -30 53 -56 65 -27 13 -38 14 -47 5 -8 -8 -7 -10 5 -5 26
10 61 -48 61 -97 -1 -52 -28 -89 -75 -105 -50 -17 -89 -7 -128 31 l-32 31
-174 2 c-96 0 -184 4 -196 7 -12 4 -37 27 -55 52 -32 44 -33 49 -27 110 5 45
4 69 -5 79 -17 20 -5 45 20 45 25 0 37 -25 20 -45 -20 -25 -15 -118 9 -162 36
-62 42 -64 216 -57 85 4 155 11 155 16 0 4 10 8 23 8 15 0 29 11 41 31 23 38
71 68 99 62 18 -4 19 -3 7 6 -8 6 -10 11 -5 12 6 0 1 4 -9 8 -15 6 -30 47 -68
187 -31 114 -62 202 -84 242 -58 107 -172 254 -270 348 l-52 51 -34 -18 c-18
-10 -53 -18 -77 -19 -114 -1 -177 127 -109 222 19 28 19 28 0 56 -11 15 -49
54 -83 87 -139 131 -194 165 -273 165 -62 0 -84 10 -171 80 -60 47 -84 60
-111 60 l-34 0 6 55 c11 94 -28 166 -109 200 -46 19 -47 9 -3 -34 81 -78 61
-200 -43 -265 -76 -48 -144 -39 -191 26 -17 23 -30 52 -30 65 0 14 -4 22 -10
18 -6 -4 -17 -2 -24 4 -9 8 -52 10 -124 7 -102 -4 -114 -6 -147 -32 -102 -77
-266 23 -252 155 5 47 27 83 71 115 20 16 42 21 85 21 104 0 171 -71 171 -180
l0 -45 104 0 104 0 14 44 c14 43 14 45 -6 50 -12 3 -35 6 -52 6 -50 0 -89 18
-107 50 -55 93 -114 130 -209 131 -35 0 -97 6 -138 14 -41 8 -109 20 -150 26
-44 7 -97 24 -129 40 -54 29 -131 40 -131 19 0 -6 6 -10 13 -9 23 5 83 -28
109 -59 26 -31 47 -107 33 -120 -4 -4 -9 -2 -11 3 -3 8 -113 11 -208 5 -5 0
-6 -15 -2 -32 l6 -33 -20 33 c-23 38 -26 99 -5 126 11 15 12 23 3 33 -8 10 -7
18 6 32 16 18 14 19 -71 26 -122 10 -126 12 -146 83 -20 71 -68 138 -122 170
-32 18 -49 22 -85 17 -24 -3 -49 -10 -54 -15 -6 -6 -18 -10 -28 -10 -10 0 -18
-4 -18 -10 0 -5 -7 -6 -17 -3 -11 5 -14 3 -8 -6 5 -10 2 -11 -14 -6 -13 4 -21
2 -21 -5 0 -7 -8 -9 -19 -5 -14 4 -29 -9 -65 -57 -26 -35 -49 -73 -53 -85 -3
-13 -9 -23 -13 -23 -4 0 -11 -11 -14 -25 -6 -23 -11 -25 -64 -25 -52 -1 -139
-12 -312 -40 -36 -6 -88 -13 -117 -17 l-52 -6 -10 39 c-15 56 -46 101 -83 124
-35 21 -88 27 -88 9 0 -6 9 -8 21 -4 19 6 20 5 8 -8 -8 -8 -17 -13 -20 -11 -3
2 -4 -9 -1 -23 5 -26 5 -26 13 -5 10 27 23 29 14 2 -4 -11 -2 -20 4 -20 6 0
11 6 11 13 1 28 40 -41 46 -81 5 -35 3 -46 -11 -56 -11 -8 -15 -18 -10 -26 5
-9 4 -11 -3 -6 -15 9 -16 -6 -1 -21 9 -9 15 -27 18 -55 1 -3 21 -16 45 -27 48
-24 60 -51 49 -115 -6 -38 -23 -50 -23 -16 0 11 -4 20 -9 20 -5 0 -11 -9 -14
-20 -3 -14 -14 -20 -34 -22 -15 0 -34 -2 -41 -2 -7 -1 -24 -26 -38 -56 -24
-52 -24 -57 -10 -82 22 -36 20 -39 -10 -26 -22 10 -28 9 -50 -15 -14 -15 -30
-24 -39 -21 -8 4 -13 10 -10 14 9 14 -15 22 -43 15 -25 -7 -25 -8 -7 -15 16
-7 13 -9 -15 -9 -26 -1 -31 2 -20 9 13 8 13 10 -1 10 -11 0 -16 -9 -16 -26 0
-18 3 -22 10 -15 6 6 17 11 25 11 7 0 2 -9 -12 -22 -19 -17 -28 -38 -34 -78
-5 -37 -12 -55 -21 -55 -8 0 -16 6 -19 13 -2 8 2 10 14 5 12 -4 15 -3 10 5 -4
7 -2 28 5 46 10 29 10 38 -2 52 -8 10 -9 15 -3 11 8 -4 11 2 10 17 0 13 -3 24
-6 23 -14 -3 -70 16 -70 24 0 5 -18 12 -39 15 -28 4 -38 10 -34 20 5 15 -9 19
-21 7 -4 -4 -23 -6 -43 -4 -22 2 -39 -2 -44 -11 -7 -10 -14 -7 -29 12 -11 14
-20 30 -20 36 0 16 -30 40 -30 25 0 -6 4 -11 9 -11 5 0 11 -8 15 -17 3 -10 9
-25 12 -33 3 -8 -1 -5 -10 7 -31 41 -49 44 -99 18 -25 -14 -61 -26 -79 -26
-30 -2 -31 -2 -5 -6 30 -5 35 -24 12 -43 -19 -15 -50 -5 -74 26 -16 20 -18 30
-10 54 16 44 35 56 69 43 16 -6 32 -7 37 -2 4 4 33 22 63 38 30 17 50 31 43
31 -23 0 -43 32 -43 69 0 27 -7 44 -25 61 -17 16 -25 34 -25 57 0 34 3 36 53
47 34 8 35 24 2 36 -29 11 -33 20 -6 15 14 -3 18 1 14 16 -4 15 -8 17 -19 8
-8 -7 -18 -8 -22 -4 -4 4 -1 10 6 12 6 3 12 9 12 15 0 6 -6 6 -15 -2 -8 -7
-15 -18 -15 -26 0 -7 -6 -19 -13 -26 -8 -7 -16 -20 -20 -28 -3 -10 -6 -7 -6 8
-1 12 4 22 10 22 5 0 7 5 4 10 -3 6 -1 10 6 10 7 0 9 3 6 7 -7 7 -47 -30 -47
-44 0 -4 -23 -34 -50 -66 -28 -32 -50 -65 -50 -74 0 -8 -11 -38 -25 -65 -14
-27 -23 -53 -20 -58 3 -4 -9 -13 -26 -19 -20 -7 -28 -15 -23 -22 5 -9 2 -10
-9 -6 -11 4 -14 2 -10 -9 6 -17 -13 -19 -21 -1 -4 6 -4 2 -2 -10 2 -13 0 -23
-6 -23 -6 0 -8 -7 -4 -15 3 -9 0 -15 -7 -15 -7 0 -19 -23 -26 -51 -13 -48 -14
-50 -32 -33 -16 14 -19 14 -19 2 0 -8 -18 -27 -39 -44 -22 -16 -37 -32 -35
-36 3 -4 -17 -18 -44 -32 -27 -14 -52 -32 -55 -41 -4 -10 -21 -15 -49 -16 -51
-2 -114 -16 -83 -19 11 -1 -1 -8 -27 -15 -26 -7 -66 -27 -89 -44 -23 -16 -47
-28 -52 -24 -6 3 -7 1 -3 -5 3 -6 0 -17 -8 -25 -8 -8 -13 -17 -11 -19 3 -2 -9
-19 -25 -36 -16 -18 -27 -32 -24 -32 6 0 -48 -83 -59 -91 -5 -3 -8 -9 -8 -13
3 -24 0 -27 -16 -15 -15 12 -16 12 -11 -3 4 -9 3 -29 -2 -45 -4 -15 -9 -23 -9
-16 -1 16 -49 -32 -53 -54 -3 -14 -12 -17 -49 -14 -41 2 -47 0 -52 -20 -4 -13
-9 -20 -13 -17 -7 8 -34 -16 -34 -30 0 -6 6 -12 12 -14 9 -3 8 -12 -5 -32 -10
-14 -15 -31 -12 -36 3 -5 -6 -12 -21 -16 -18 -5 -22 -9 -13 -15 11 -6 10 -9
-4 -15 -9 -3 -14 -10 -11 -15 3 -5 -5 -9 -18 -10 -19 0 -20 -2 -6 -7 16 -7 16
-9 -2 -37 -11 -17 -20 -24 -20 -17 0 24 -16 12 -30 -22 -7 -19 -16 -34 -19
-33 -4 1 -17 -8 -30 -20 -13 -12 -28 -20 -33 -17 -4 3 -8 -3 -9 -13 -1 -13 -3
-11 -9 7 -5 16 -8 19 -9 8 -1 -10 -7 -15 -14 -12 -10 3 -14 -8 -16 -43 -1 -26
-6 -52 -12 -57 -5 -6 -9 -18 -9 -28 0 -10 -8 -22 -17 -25 -10 -4 -25 -14 -33
-23 -8 -9 -22 -15 -30 -12 -13 5 -13 3 -1 -11 12 -15 10 -17 -18 -17 -17 0
-31 5 -31 10 0 6 -6 10 -14 10 -15 0 -29 -37 -16 -42 11 -4 -10 -98 -22 -98
-4 0 -8 -4 -8 -10 0 -5 6 -7 14 -4 23 9 30 -33 11 -62 -14 -21 -22 -24 -52
-19 -29 4 -34 2 -29 -10 3 -8 1 -15 -5 -15 -6 0 -8 -9 -4 -20 4 -13 2 -20 -7
-20 -8 0 -9 -3 -3 -8 6 -4 17 -26 25 -50 13 -41 12 -44 -9 -65 -21 -21 -22
-21 -52 -5 -16 10 -27 13 -24 8 5 -8 -12 -48 -26 -60 -5 -5 -16 -40 -24 -82
-2 -11 2 -18 12 -18 13 0 14 -2 2 -17 -12 -15 -12 -16 8 -11 31 8 63 -18 63
-51 0 -36 -49 -62 -75 -41 -13 11 -15 8 -15 -14 0 -15 -6 -29 -14 -32 -22 -9
-82 -280 -66 -297 4 -5 2 -21 -6 -35 -8 -16 -14 -58 -14 -104 l0 -77 33 6 c37
6 67 -15 67 -47 0 -25 -47 -60 -80 -60 -15 0 -30 -6 -32 -12 -4 -10 -2 -137 1
-145 1 -1 15 3 33 8 63 18 105 -44 58 -86 -14 -13 -29 -16 -56 -12 l-36 6 7
-102 c3 -56 10 -127 16 -157 7 -46 12 -78 18 -130 1 -4 17 -4 36 -2 41 5 65
-11 65 -43 0 -30 -25 -49 -64 -48 l-32 1 25 -128 26 -129 21 20 c28 27 72 25
83 -3 17 -45 2 -61 -65 -70 l-21 -3 24 -95 c33 -132 30 -127 56 -101 32 29 74
28 89 -4 14 -32 -10 -71 -51 -80 l-30 -6 36 -102 c20 -56 40 -106 44 -111 4
-5 20 5 34 23 32 38 59 40 81 5 16 -24 16 -27 -3 -52 -13 -18 -31 -28 -52 -30
-29 -3 -32 -6 -27 -27 4 -14 48 -104 100 -202 l93 -177 46 3 c37 2 48 -1 61
-21 22 -30 21 -87 -2 -104 -16 -12 -16 -14 4 -36 12 -13 34 -43 50 -68 15 -25
43 -68 61 -97 18 -28 33 -59 33 -68 0 -9 5 -13 10 -10 6 3 10 -2 10 -12 0 -11
6 -26 12 -33 7 -8 -4 1 -25 20 -32 29 -154 181 -218 272 l-16 22 -58 -43 c-70
-53 -245 -198 -298 -247 -31 -29 -37 -41 -37 -75 0 -158 -196 -217 -293 -87
-51 69 -22 186 57 233 53 31 99 32 158 2 l46 -23 40 30 c94 72 331 282 331
295 1 7 -30 66 -68 130 -38 64 -83 143 -99 176 -47 91 -49 93 -64 73 -7 -9
-65 -60 -128 -112 -63 -53 -122 -103 -131 -111 -14 -14 -17 -14 -29 0 -11 14
-14 14 -24 -1 -18 -24 -133 -24 -142 0 -9 24 36 60 74 60 30 0 32 1 13 10 -25
11 -28 24 -4 22 25 -2 83 -35 83 -46 0 -17 14 -11 51 23 20 17 82 72 138 121
76 65 101 93 96 105 -4 9 -27 70 -52 136 -25 66 -46 121 -48 123 -2 2 -42 -15
-89 -37 -47 -23 -97 -46 -111 -51 -15 -6 -30 -23 -37 -40 -5 -17 -18 -35 -28
-40 -82 -44 -161 60 -95 125 29 30 59 31 103 5 l32 -20 88 44 c132 67 125 51
84 189 l-35 117 -239 0 c-151 0 -239 4 -239 10 -1 6 -2 15 -3 21 -1 7 72 10
232 9 127 0 232 3 232 7 0 4 -12 71 -27 149 l-27 141 -94 2 c-52 1 -99 4 -103
7 -5 3 -9 1 -9 -4 0 -5 -11 -8 -24 -7 -19 2 -27 -4 -36 -26 -23 -56 -98 -83
-155 -57 -97 44 -76 214 30 234 46 8 104 -19 118 -56 l11 -30 125 0 124 0 -6
68 c-3 37 -11 130 -18 208 l-12 141 -389 2 -388 2 -9 -24 c-16 -41 -68 -77
-112 -77 -99 0 -151 83 -110 175 35 78 130 102 190 46 17 -16 31 -36 31 -45 0
-15 37 -16 392 -14 l393 3 3 93 3 92 -161 0 c-141 0 -165 -2 -197 -20 -46 -24
-71 -25 -103 -3 -39 27 -49 45 -50 90 0 34 5 46 31 67 57 48 134 25 160 -49
l13 -35 152 0 151 0 12 133 c7 72 25 205 40 293 l28 162 -201 7 c-200 7 -201
8 -236 35 -27 22 -40 26 -53 18 -34 -18 -80 -5 -100 29 -17 30 -17 34 -2 63
37 71 98 62 139 -19 41 -81 43 -81 266 -81 l196 0 12 59 c21 100 100 365 143
478 45 120 147 336 201 427 l35 59 -41 36 c-23 20 -59 50 -81 66 -22 16 -78
63 -124 104 -70 62 -86 72 -100 62 -80 -58 -165 -51 -224 18 -103 122 15 313
162 261 69 -24 104 -71 116 -155 8 -54 -2 -44 162 -170 40 -30 78 -56 85 -57
7 -2 21 -11 32 -20 18 -16 37 -23 59 -19 4 0 7 -5 7 -12 0 -6 23 24 51 67 60
94 175 248 273 366 67 80 352 379 372 390 5 3 7 10 6 15 -2 6 0 7 4 2 11 -11
54 33 54 55 0 11 4 16 11 12 47 -29 -158 211 -353 412 -74 77 -81 82 -128 86
-62 6 -90 34 -90 90 0 51 24 85 69 99 74 22 126 -25 119 -108 -4 -48 -4 -48
71 -128 42 -44 130 -135 197 -203 l122 -123 1 103 c1 57 4 153 6 215 3 62 1
122 -3 134 -5 12 -24 29 -42 38 -75 36 -88 135 -24 199 27 27 39 32 82 32 84
0 139 -63 129 -149 -5 -46 -41 -91 -73 -91 -27 0 -16 -516 12 -527 7 -2 34 10
60 29 26 18 65 46 88 62 23 16 43 32 44 37 2 5 9 9 16 9 6 0 26 14 44 30 18
17 37 30 42 30 5 0 13 8 19 17 11 21 -9 65 -78 167 l-46 69 0 141 c0 119 2
140 15 138 11 -3 11 1 -3 16 -11 12 -17 35 -17 65 0 38 5 51 35 82 19 20 39
34 45 30 6 -4 17 -1 25 5 35 29 133 -38 136 -93 5 -101 -55 -158 -148 -139
l-45 10 4 -117 3 -116 69 -105 c38 -58 71 -107 72 -109 4 -4 93 46 171 96 32
21 60 38 63 38 3 1 39 19 80 40 41 22 107 53 145 70 39 18 82 39 95 47 14 9
38 19 53 22 15 4 25 11 22 15 -3 5 4 7 14 4 11 -3 82 16 158 41 138 45 449
126 489 126 31 0 34 16 34 154 0 108 -2 126 -20 149 -51 65 12 145 72 90 19
-17 25 -78 8 -88 -6 -4 -10 -64 -10 -147 l0 -140 58 7 c31 4 68 9 82 10 85 7
285 28 339 35 35 5 68 7 73 4 4 -3 8 2 8 10 0 14 12 20 33 17 4 0 7 98 7 219
0 169 -3 220 -12 220 -21 1 -76 53 -87 83 -27 70 2 146 69 179 46 23 74 23
126 -3z m373 -230 c23 -21 28 -77 11 -109 -5 -10 -26 -24 -45 -30 -30 -10 -40
-9 -68 7 -45 26 -59 82 -30 121 32 43 92 48 132 11z m785 -188 c26 -29 24 -91
-4 -113 -47 -38 -120 -4 -120 57 0 12 9 34 21 49 25 32 77 36 103 7z m-2800
-25 c62 -26 72 -119 14 -128 -36 -6 -60 10 -95 62 l-32 48 32 16 c39 19 40 19
81 2z m3669 -210 c55 -23 70 -48 65 -108 -4 -40 -11 -57 -32 -75 -65 -55 -186
-3 -186 80 0 42 27 87 63 102 41 18 50 18 90 1z m-2035 -411 c4 -4 -4 -4 -18
0 -18 5 -13 -1 17 -21 78 -52 104 -143 63 -224 -68 -132 -253 -124 -305 15
-40 103 29 222 134 235 59 7 99 5 109 -5z m-497 -307 c9 -1 16 -7 15 -13 0 -5
4 -27 8 -48 11 -49 -3 -81 -46 -107 -47 -28 -84 -26 -119 9 -23 24 -29 38 -29
74 0 38 5 49 32 72 32 27 32 27 139 13z m3602 -319 c62 -77 -51 -175 -118
-103 -33 35 -32 78 1 111 21 21 32 24 62 19 20 -3 45 -15 55 -27z m-6785 5
c16 -11 22 -25 22 -53 0 -52 -27 -76 -76 -68 -46 8 -51 13 -59 59 -6 29 -3 40
14 57 25 25 68 27 99 5z m3870 -2 c13 -4 76 -129 111 -217 6 -17 20 -36 29
-42 24 -14 171 -47 179 -39 3 3 11 1 18 -4 8 -7 18 5 36 40 13 27 27 50 32 50
4 0 7 6 7 13 0 8 12 24 27 38 15 13 21 16 14 6 -8 -9 -11 -20 -8 -23 9 -9 29
35 21 48 -4 7 -3 8 4 4 7 -4 16 9 23 35 7 22 19 43 27 46 15 6 179 -56 230
-87 32 -20 45 -64 21 -72 -6 -2 -11 -15 -11 -28 -1 -30 20 -197 28 -223 3 -9
36 -32 72 -50 37 -19 86 -46 109 -60 24 -15 45 -27 48 -27 3 0 34 20 71 45 64
44 66 45 89 27 32 -23 40 -48 21 -67 -35 -36 -33 -153 4 -226 28 -54 151 -173
210 -201 24 -12 58 -37 75 -56 16 -20 46 -52 65 -73 l35 -37 85 7 c125 10 122
12 168 -87 66 -143 72 -172 44 -204 -8 -10 -12 -18 -8 -18 4 0 -6 -12 -24 -26
-47 -40 -63 -78 -51 -117 11 -31 14 -32 69 -34 31 -2 83 -8 114 -14 65 -13 57
0 99 -168 34 -138 36 -161 11 -161 -20 0 -72 -46 -133 -117 l-36 -42 20 -115
20 -114 80 -43 c44 -24 93 -56 110 -71 26 -25 29 -33 22 -66 -4 -20 -10 -55
-13 -77 -6 -34 -11 -40 -37 -45 -34 -7 -138 -61 -171 -88 -15 -13 -22 -34 -27
-82 -4 -36 -23 -143 -44 -239 -31 -147 -35 -175 -23 -179 26 -9 150 -135 156
-159 4 -16 -7 -45 -37 -97 -24 -41 -47 -72 -51 -70 -15 9 -93 -129 -83 -146
10 -16 -54 -11 -157 12 l-98 22 -24 -23 c-14 -13 -38 -42 -53 -65 -15 -22 -62
-83 -104 -134 l-76 -93 28 -77 c43 -113 72 -227 49 -192 -8 13 -10 13 -10 -2
0 -9 -15 -26 -32 -37 -18 -11 -44 -33 -58 -47 -14 -15 -58 -49 -98 -75 l-73
-49 -76 66 c-72 63 -78 66 -117 61 -22 -2 -94 -30 -159 -62 -66 -31 -121 -54
-124 -51 -4 3 -9 61 -14 128 -8 132 -1 317 12 297 8 -13 111 52 224 141 84 67
241 231 311 326 346 465 447 1079 269 1628 -102 316 -325 629 -611 858 -117
94 -301 197 -464 261 -542 212 -1139 147 -1639 -177 -105 -68 -169 -121 -276
-227 -39 -39 -75 -66 -79 -62 -5 4 -7 3 -3 -2 3 -6 -10 -28 -29 -49 -36 -41
-47 -38 -14 4 11 14 20 30 20 36 0 18 41 65 51 59 5 -4 9 0 9 8 0 21 40 59 57
53 8 -3 12 -2 8 3 -9 15 62 81 80 75 11 -5 14 -2 9 10 -4 9 -3 16 2 14 17 -4
54 13 49 23 -4 5 1 9 9 9 8 0 22 10 31 23 8 12 19 22 23 22 5 0 30 18 58 41
58 49 104 79 104 69 0 -4 19 7 42 24 23 17 48 31 55 31 7 0 21 4 31 9 33 18
117 55 127 56 6 1 17 4 25 7 190 79 386 105 700 93 102 -4 203 -7 225 -7 31 0
35 -1 20 -8 -17 -7 -14 -9 15 -10 84 -4 125 -11 128 -20 2 -6 17 -10 32 -10
27 0 222 -70 287 -103 15 -8 39 -18 53 -22 24 -7 24 -6 5 8 -32 23 -253 113
-345 140 -713 210 -1479 -27 -1969 -608 -41 -49 -78 -92 -81 -95 -3 -3 -18
-23 -34 -44 -17 -22 -32 -34 -34 -28 -2 7 10 30 27 51 17 21 31 43 31 49 0 5
6 15 14 21 7 6 12 22 10 36 -1 14 2 23 6 20 5 -3 7 -13 4 -23 -3 -10 2 -7 13
8 10 14 32 41 49 60 17 19 43 53 58 75 l28 40 -29 -34 c-15 -19 -47 -55 -71
-80 -38 -41 -42 -43 -30 -16 7 17 17 33 21 36 5 4 4 10 -2 13 -6 4 -11 2 -11
-5 0 -8 -4 -8 -15 1 -9 8 -15 9 -15 2 0 -6 5 -14 10 -17 6 -4 7 -11 4 -17 -4
-6 -12 1 -18 17 -13 32 -54 42 -72 17 -8 -12 -13 -12 -19 -3 -4 7 -2 18 4 24
6 6 11 15 11 21 0 5 -25 -22 -55 -60 -30 -38 -52 -75 -50 -81 2 -7 -1 -12 -7
-10 -6 1 -13 -4 -16 -12 -3 -9 0 -11 9 -6 8 5 11 4 6 -1 -5 -5 -14 -9 -20 -9
-15 0 -104 -150 -155 -261 -128 -281 -188 -562 -196 -934 -2 -102 -5 -185 -6
-185 -5 0 -13 -75 -12 -120 0 -85 59 -350 93 -421 22 -48 24 -68 5 -61 -10 4
-12 0 -9 -14 6 -23 -12 -26 -21 -3 -3 8 -11 12 -17 8 -8 -4 -7 -9 2 -15 11 -7
11 -9 1 -9 -7 0 -10 -5 -7 -10 9 -15 -15 -42 -31 -36 -7 3 -16 0 -20 -6 -4 -7
-3 -8 4 -4 17 10 15 -3 -3 -20 -18 -18 -20 -38 -3 -28 7 5 8 3 3 -6 -4 -7 -3
-15 1 -19 5 -3 18 -25 28 -48 10 -24 23 -40 29 -36 6 4 8 0 4 -11 -5 -11 -3
-15 5 -10 7 5 9 2 6 -8 -4 -8 -2 -21 4 -29 8 -11 9 -10 4 4 -6 20 -2 21 25 6
13 -6 25 -7 32 -1 25 20 110 23 154 6 37 -15 57 -35 140 -147 53 -72 106 -140
117 -151 16 -16 16 -18 2 -13 -10 4 -19 1 -22 -8 -10 -26 -39 0 -121 111 -43
59 -90 121 -104 138 l-27 30 -103 -21 c-175 -37 -150 -47 -215 84 -31 62 -60
116 -65 118 -4 3 -15 26 -25 52 l-18 46 81 77 81 76 -28 129 c-16 71 -36 177
-45 234 -8 58 -16 106 -18 107 -79 60 -136 96 -172 110 l-45 17 -2 61 c-2 79
1 100 11 104 5 2 19 12 32 23 12 10 28 19 36 19 7 0 13 5 13 11 0 5 4 8 9 4 5
-3 26 6 46 19 19 14 39 26 44 28 4 2 15 57 23 123 l14 119 -44 56 c-51 63 -99
107 -125 116 -13 4 -16 11 -11 22 23 55 54 157 54 177 0 13 5 27 10 30 6 3 10
14 10 23 0 34 19 43 120 60 l103 17 13 38 c12 36 12 41 -12 78 -13 22 -41 58
-61 80 l-36 40 64 125 c35 69 68 129 74 134 7 6 50 3 111 -6 l99 -16 45 53
c25 30 74 84 109 121 73 77 74 54 -6 227 -42 90 -43 94 -27 118 11 18 12 23 3
18 -12 -6 15 20 71 69 43 37 128 96 153 105 21 8 36 7 63 -4 44 -18 97 -55 90
-63 -3 -3 -15 3 -26 13 -11 10 -22 16 -25 13 -3 -3 12 -17 33 -31 27 -17 39
-21 39 -11 0 7 -5 10 -10 7 -6 -3 -7 -1 -3 6 5 8 16 5 39 -11 18 -12 35 -27
39 -33 5 -7 14 -6 29 4 45 27 165 88 197 99 36 12 35 7 33 202 -1 72 3 110 11
121 17 21 274 109 319 109 29 0 38 -6 53 -32 10 -18 40 -68 65 -112 l46 -78
105 6 c167 11 175 13 194 52 9 19 16 39 16 45 0 16 59 161 72 177 9 10 47 13
161 11 83 0 157 -3 165 -7z m-1798 -106 c0 -8 -7 -22 -16 -30 -8 -9 -13 -16
-9 -16 3 0 0 -6 -7 -14 -7 -8 -16 -12 -19 -10 -10 6 -39 -42 -39 -64 0 -10 6
-26 13 -35 11 -16 15 -14 43 22 67 88 115 132 134 126 36 -12 79 -85 50 -85
-5 0 -10 6 -10 14 0 7 -7 19 -15 26 -13 11 -28 0 -99 -74 -89 -93 -97 -96
-137 -49 -35 40 -32 51 36 119 36 36 65 69 65 75 0 5 2 9 5 9 3 0 5 -6 5 -14z
m4958 -17 c39 -13 76 -83 66 -123 -7 -28 -20 -34 -27 -13 -2 6 -7 -7 -11 -30
-14 -79 -89 -107 -148 -55 -27 25 -31 36 -31 73 1 36 0 39 -7 19 -6 -20 -8
-16 -9 24 -1 44 3 52 36 82 40 37 75 43 131 23z m-6712 -107 c40 -26 45 -102
9 -137 -41 -42 -105 -31 -133 22 -18 33 -14 59 14 92 20 24 34 31 62 31 21 0
42 -4 48 -8z m5344 -77 c25 -13 30 -22 30 -50 0 -19 -4 -35 -10 -35 -5 0 -10
-5 -10 -11 0 -5 5 -7 10 -4 14 9 12 -4 -3 -18 -14 -14 -27 -17 -73 -21 -18 -1
-31 1 -28 5 2 4 -1 11 -7 15 -9 5 -10 0 -4 -17 17 -55 -10 -137 -42 -125 -11
5 -13 0 -8 -23 16 -72 -56 -187 -132 -212 -51 -16 -117 -6 -170 27 -57 35 -82
75 -90 143 -3 28 -9 48 -13 46 -8 -5 -20 19 -19 38 0 7 4 3 9 -8 7 -17 9 -16
9 9 2 56 82 149 144 167 48 14 130 11 170 -6 41 -17 142 -21 117 -5 -8 5 -10
10 -3 10 6 0 10 11 9 25 -2 14 1 22 6 18 6 -3 7 3 3 17 -5 15 -4 20 4 16 6 -4
19 -2 28 3 25 14 39 13 73 -4z m-4260 -166 c68 -14 129 -50 179 -104 59 -64
74 -105 75 -205 0 -73 -4 -92 -27 -137 -59 -114 -160 -176 -287 -177 -63 -1
-84 4 -132 27 -71 35 -127 89 -158 153 -19 40 -24 64 -23 129 0 136 64 243
178 297 65 30 113 35 195 17z m4603 -414 c84 -35 140 -114 135 -190 l-3 -44
-32 27 c-24 21 -43 29 -80 30 -62 3 -162 21 -185 33 -14 8 -21 2 -38 -31 -11
-22 -22 -40 -24 -40 -11 0 10 92 30 131 24 49 60 78 109 90 45 11 50 10 88 -6z
m-2133 -39 c63 -14 147 -36 185 -49 39 -13 76 -22 84 -19 9 3 11 0 6 -8 -5 -9
-4 -11 4 -6 17 11 84 -16 68 -27 -8 -5 -5 -6 8 -3 23 7 91 -27 88 -43 -2 -6 3
-8 10 -5 15 5 152 -84 210 -138 23 -22 35 -36 27 -32 -8 4 10 -18 40 -48 30
-31 58 -54 62 -51 5 2 7 1 6 -4 -2 -4 1 -8 5 -8 4 0 18 -17 30 -37 12 -21 51
-78 86 -128 62 -90 143 -247 176 -345 48 -141 67 -257 71 -435 2 -96 0 -166
-4 -156 -5 11 -16 20 -25 22 -10 1 -15 -1 -13 -5 14 -22 -89 -348 -144 -455
-90 -176 -168 -280 -364 -486 -134 -141 -205 -236 -238 -319 -21 -53 -23 -72
-26 -373 -3 -312 -3 -318 16 -318 20 0 20 6 19 248 -2 242 5 331 23 287 5 -11
9 -160 9 -332 l1 -312 -24 -28 c-23 -27 -50 -27 -28 -1 6 7 12 26 14 42 3 26
-1 30 -29 38 -17 4 -305 7 -640 6 l-608 -3 3 -35 c6 -58 19 -64 155 -71 l122
-5 -126 -2 c-120 -2 -126 -1 -147 21 -13 13 -26 37 -30 53 -11 38 -15 549 -5
577 6 20 7 20 14 -8 4 -16 7 -130 8 -252 l1 -223 28 0 27 0 -2 208 c-6 392 -8
422 -32 485 -33 85 -82 150 -222 299 -153 161 -180 193 -262 311 -162 232
-229 431 -263 772 -5 50 -9 64 -15 50 -6 -17 -8 -16 -10 10 -2 25 -3 22 -10
-15 -5 -32 -6 -19 -4 45 11 250 105 515 262 740 67 95 193 244 193 228 0 -5 4
-3 8 3 4 5 24 23 44 38 21 16 35 33 31 39 -3 6 -1 7 5 3 10 -6 98 52 140 92 7
6 18 12 24 12 5 0 22 9 38 20 15 11 30 17 34 13 3 -3 6 -1 6 5 0 7 6 12 14 12
8 0 54 15 102 34 246 95 529 121 764 72z m-4306 -111 c62 -61 58 -135 -10
-195 -45 -39 -97 -48 -141 -24 -46 24 -87 95 -79 134 14 72 73 120 148 120 41
0 52 -5 82 -35z m8048 -302 c12 -11 18 -30 18 -59 0 -76 -75 -110 -127 -58
-21 21 -25 32 -20 65 3 22 11 46 17 54 17 20 89 19 112 -2z m-6870 -10 c2 -5
27 -19 57 -33 91 -42 143 -137 121 -220 -21 -77 -111 -150 -185 -150 -74 0
-168 76 -181 146 -8 45 1 126 18 156 7 13 11 27 10 31 -1 5 2 6 7 3 5 -4 13
-1 16 4 25 40 126 86 137 63z m475 -65 c61 -57 -7 -170 -83 -136 -26 12 -54
55 -54 83 0 9 13 30 29 46 36 35 75 38 108 7z m894 -137 c-96 -145 -139 -234
-191 -390 -75 -223 -85 -292 -85 -586 0 -233 3 -271 23 -365 80 -369 261 -696
520 -941 74 -71 243 -199 325 -247 15 -9 27 -23 27 -30 0 -22 -46 -6 -129 45
-223 139 -447 376 -585 621 -292 515 -310 1191 -47 1697 84 161 94 178 116
198 11 11 19 23 18 28 -2 5 2 8 8 7 6 -2 22 16 34 39 13 23 26 39 30 35 5 -4
5 2 1 13 -5 15 -4 17 4 9 8 -9 -9 -43 -69 -133z m4560 -327 c30 -9 64 -22 77
-30 12 -8 22 -12 22 -9 0 18 75 -83 97 -131 21 -47 27 -74 27 -134 0 -83 -18
-130 -75 -194 -105 -120 -328 -122 -435 -4 -81 90 -105 203 -64 309 63 167
194 239 351 193z m-6083 -226 c19 -19 14 -56 -8 -63 -14 -4 -20 -15 -20 -36 0
-16 -14 -54 -31 -84 -31 -56 -69 -85 -110 -85 -25 0 -99 39 -99 53 0 5 -7 7
-15 3 -8 -3 -15 -1 -15 4 0 6 -8 10 -18 10 -11 0 -27 16 -41 40 l-22 39 22 42
c12 24 26 48 33 53 16 15 46 19 46 6 0 -7 9 -5 22 4 29 20 108 21 155 1 34
-14 37 -14 50 5 16 23 33 26 51 8z m292 -308 c31 -31 27 -93 -6 -119 -36 -29
-76 -27 -108 5 -32 32 -34 72 -5 108 26 33 88 37 119 6z m-32 -259 c21 -15 47
-21 110 -23 79 -2 85 -1 102 22 18 23 20 24 36 9 16 -17 14 -36 -17 -114 -4
-11 -12 -40 -18 -65 -10 -45 -10 -45 31 -87 l40 -41 -57 29 c-99 50 -210 37
-289 -33 -120 -105 -98 -293 44 -376 59 -35 154 -37 216 -5 68 36 125 107 150
188 l13 40 0 -36 c3 -131 -123 -259 -254 -259 -29 0 -73 6 -99 14 -29 9 -57
11 -70 7 -38 -14 -136 -13 -137 1 0 7 -4 4 -9 -7 -8 -19 -9 -19 -9 4 -1 16 -5
21 -15 18 -9 -4 -22 6 -34 25 -11 16 -22 26 -25 21 -3 -5 16 -48 43 -94 51
-87 61 -119 35 -119 -11 0 -14 7 -9 24 4 18 -4 34 -36 71 -40 46 -103 157 -98
172 2 5 -10 9 -27 10 -16 1 -24 0 -17 -3 22 -10 13 -24 -10 -15 -25 9 -36 50
-37 133 -1 46 0 47 34 54 33 6 36 10 55 72 16 56 17 70 6 86 -14 22 -17 18 61
104 34 38 59 56 83 61 31 6 35 10 35 40 0 31 4 35 60 61 73 34 79 35 113 11z
m5542 -151 c0 -5 7 -10 15 -10 11 0 15 -11 15 -40 0 -35 4 -42 26 -51 15 -5
35 -7 45 -4 11 4 19 2 19 -4 0 -6 5 -11 11 -11 6 0 9 7 5 15 -3 8 4 21 16 29
19 13 24 12 58 -11 51 -33 54 -45 23 -89 -24 -37 -24 -39 -9 -72 16 -33 19
-34 56 -28 45 7 51 -2 52 -83 0 -57 -9 -78 -25 -62 -31 31 -79 -14 -93 -87 -5
-27 -2 -36 15 -48 29 -20 27 -35 -10 -72 -31 -31 -58 -44 -43 -20 5 7 2 9 -8
5 -9 -3 -24 3 -34 14 -22 24 -41 24 -81 -1 -26 -15 -33 -26 -33 -51 0 -25 -3
-30 -17 -25 -9 4 -20 1 -24 -6 -4 -7 -11 -10 -14 -7 -10 11 7 38 28 45 19 7
16 9 -17 16 -40 8 -60 3 -39 -10 16 -10 5 -52 -13 -52 -9 0 -14 12 -14 33 0
40 -23 64 -69 73 -27 6 -37 2 -57 -20 -30 -32 -35 -32 -60 -3 -45 51 -46 52
-23 81 37 47 4 136 -50 136 -25 0 -31 5 -36 31 -4 17 -4 46 -1 65 6 27 12 34
29 34 60 0 91 62 56 110 -21 27 -21 30 -5 54 9 14 29 32 46 41 28 15 30 14 51
-14 20 -27 23 -28 48 -15 14 7 34 15 44 18 12 4 17 16 17 44 0 30 5 41 23 50
28 14 77 15 77 2z m-467 -152 c53 -61 -35 -156 -95 -101 -29 26 -24 87 9 112
30 24 58 20 86 -11z m530 -768 c34 -27 45 -81 23 -115 -20 -31 -87 -51 -117
-35 -27 15 -51 73 -43 105 8 33 50 65 84 65 15 0 39 -9 53 -20z m-229 -189
c22 -21 31 -51 15 -51 -5 0 -1 -19 7 -42 18 -52 12 -90 -22 -135 -69 -90 -188
-86 -251 8 -37 56 -36 114 2 169 16 23 40 48 54 55 14 8 22 15 16 16 -5 0 1 4
15 8 42 12 139 -5 164 -28z m-5013 4 c50 -26 83 -80 83 -139 1 -32 -5 -60 -16
-75 -16 -23 -16 -23 -11 18 6 42 -10 91 -29 91 -5 0 -7 -4 -4 -9 9 -14 -16
-20 -38 -9 -17 9 -100 12 -154 5 -43 -6 -55 -56 -26 -105 l16 -27 -21 25 c-34
40 -46 93 -31 131 44 104 137 142 231 94z m858 -104 c16 -10 11 -50 -20 -150
-23 -76 -23 -72 -2 -64 11 4 14 3 9 -5 -11 -18 53 -78 108 -102 60 -25 61 -25
126 6 77 37 134 31 278 -31 104 -45 112 -50 112 -76 0 -26 -2 -27 -27 -19 -16
5 -66 25 -113 45 -47 20 -105 39 -130 41 -44 5 -47 3 -119 -59 l-74 -65 -46
31 c-51 34 -143 103 -179 135 -13 12 -29 23 -35 25 -10 3 14 90 78 285 5 14
15 15 34 3z m3535 -200 c13 -6 37 -30 51 -55 l27 -46 107 0 108 0 62 -70 c59
-66 65 -70 104 -70 68 0 89 9 83 35 -3 12 1 30 8 41 13 16 17 17 40 5 14 -8
26 -17 25 -20 0 -3 -23 -25 -51 -49 -47 -40 -53 -43 -97 -38 -25 2 -49 5 -54
5 -4 1 -37 28 -73 62 l-65 61 -99 -4 c-82 -2 -102 -6 -122 -24 -52 -46 -99
-54 -160 -27 -54 24 -75 71 -52 118 18 38 79 85 111 85 12 0 33 -4 47 -9z
m-3967 -43 c31 -29 30 -71 -3 -97 -15 -12 -37 -21 -50 -21 -25 0 -64 43 -64
70 0 10 9 29 21 44 25 32 64 34 96 4z m-121 -253 c8 -19 13 -37 12 -40 -5 -9
42 -37 55 -32 6 2 24 -2 38 -9 23 -12 29 -11 40 2 37 44 57 36 164 -65 l56
-53 -31 -34 -30 -35 22 -29 c12 -17 34 -58 48 -93 26 -61 27 -62 71 -67 l44
-5 3 -102 c2 -87 0 -103 -13 -103 -12 0 -15 15 -15 85 0 47 -3 85 -7 86 -82 5
-94 4 -110 -13 -11 -13 -12 -18 -3 -18 10 0 10 -3 0 -15 -7 -8 -19 -15 -26
-15 -8 0 -14 -4 -14 -8 0 -13 -70 -41 -71 -28 0 6 -4 2 -9 -9 l-9 -20 -1 20
c0 11 -11 -7 -24 -41 -43 -117 -83 -162 -181 -204 -66 -29 -179 -25 -245 7
-50 25 -112 81 -134 121 -7 15 -23 45 -35 67 -12 21 -21 32 -21 24 0 -20 -25
-21 -70 -4 -20 7 -47 11 -60 9 -29 -5 -85 39 -75 59 4 6 0 4 -8 -6 -13 -16
-15 -16 -21 -1 -3 9 -3 21 1 26 3 7 1 8 -5 4 -7 -4 -12 -34 -12 -71 l0 -64 48
-3 47 -3 53 -109 52 -108 -25 -22 c-14 -12 -25 -26 -25 -32 0 -5 23 -32 51
-59 l51 -50 34 39 34 39 82 -32 c88 -35 125 -58 73 -45 -16 4 -57 17 -89 30
l-59 24 -31 -37 c-38 -43 -47 -41 -124 41 -51 54 -62 84 -34 94 8 2 10 -3 6
-15 -4 -13 0 -11 14 6 l20 25 -23 30 c-13 17 -37 60 -54 96 -32 68 -45 78 -98
79 l-33 1 0 115 0 115 38 0 c48 0 55 6 76 62 9 26 28 63 42 83 29 43 29 43 4
75 -27 35 -25 52 13 86 47 44 114 94 125 94 5 0 21 -9 36 -21 l26 -20 59 26
c49 22 61 33 66 56 8 35 41 47 138 48 l68 1 15 -35z m2690 -196 c3 -6 6 -41 5
-78 -2 -109 47 -101 -591 -101 -598 0 -571 -3 -586 56 -13 50 18 147 33 105
12 -32 41 -43 129 -47 49 -2 90 -8 92 -14 5 -13 62 -13 62 0 0 6 27 10 63 9
44 0 56 -3 42 -9 -15 -6 -6 -8 30 -8 43 0 46 1 20 8 l-30 8 30 2 c17 1 128 1
248 1 142 -1 217 2 217 9 0 5 21 10 48 11 43 0 101 15 77 19 -5 1 1 5 15 9 14
4 24 13 23 19 -4 15 63 16 73 1z m1068 -5 c13 -5 14 -10 5 -20 -7 -8 -8 -29
-4 -53 6 -38 21 -48 37 -26 4 6 8 1 9 -10 l0 -20 9 20 c8 18 9 18 9 2 1 -10 6
-15 11 -12 6 3 10 -3 10 -15 0 -30 20 -21 49 23 14 21 33 37 43 37 11 0 16 4
12 11 -11 19 29 -7 55 -35 20 -21 21 -26 8 -26 -10 0 -17 -8 -17 -18 0 -10 -8
-28 -17 -41 -12 -18 -13 -22 -2 -16 8 5 5 -2 -5 -14 -20 -22 -20 -22 5 -46 22
-22 28 -23 73 -14 55 10 67 4 86 -41 l12 -30 35 31 c84 74 180 64 224 -22 18
-36 24 -41 50 -37 27 4 28 4 13 -13 -9 -10 -25 -21 -36 -25 -10 -3 -24 -18
-30 -32 -8 -20 -12 -23 -15 -11 -3 13 -9 11 -33 -12 -51 -51 -125 -34 -169 40
-14 22 -29 38 -33 35 -4 -3 -8 2 -8 10 0 8 -5 18 -10 21 -6 4 -9 1 -8 -6 2 -8
-22 -20 -60 -32 -47 -14 -62 -23 -58 -34 3 -8 6 -41 6 -74 l0 -59 45 0 45 0 0
-41 c0 -38 -2 -41 -22 -36 -89 22 -94 21 -117 -18 -23 -40 -23 -41 27 -96 l23
-26 -38 -32 c-47 -38 -61 -40 -35 -3 20 27 20 28 1 51 -13 15 -17 31 -13 45 6
20 6 20 -12 5 -23 -20 -84 -52 -90 -47 -2 3 14 15 36 29 22 13 38 30 35 37 -3
7 -1 11 4 7 5 -3 12 8 16 25 7 31 20 39 28 18 4 -10 6 -10 6 -1 1 6 -3 15 -9
18 -15 9 -12 27 3 19 6 -4 9 -3 4 1 -4 5 -18 10 -30 11 -12 2 -16 0 -9 -2 6
-3 10 -10 6 -15 -9 -15 -22 -10 -29 11 -8 25 -38 19 -75 -15 -44 -42 -123 -57
-175 -35 -15 6 -8 9 28 9 26 1 47 6 47 11 0 6 -14 10 -32 10 -73 0 -166 93
-159 160 2 25 2 25 -13 -4 -9 -15 -16 -35 -16 -44 0 -13 -3 -12 -15 4 -14 19
-14 19 -15 -1 -1 -20 -1 -20 -16 0 -14 19 -15 19 -22 -5 -6 -22 -8 -19 -13 20
l-6 45 -1 -57 -2 -58 -32 0 c-27 0 -30 2 -16 13 12 8 18 32 20 77 l3 65 -49
12 c-26 7 -50 14 -52 16 -3 2 0 16 6 31 5 15 10 35 10 44 0 13 -2 13 -15 -4
-14 -18 -14 -17 -3 9 11 27 14 28 64 22 45 -6 54 -4 73 16 25 27 26 38 8 82
-8 18 -12 39 -9 47 5 13 3 13 -12 1 -34 -28 -25 -3 9 28 25 22 43 30 56 26 11
-4 19 -2 19 5 0 6 -5 8 -12 4 -7 -4 -8 -3 -4 4 10 17 26 15 26 -2 0 -17 42
-85 53 -86 11 0 8 25 -5 40 -7 8 -1 4 13 -8 l27 -23 21 22 c12 13 21 30 21 38
0 19 16 3 23 -24 3 -11 5 8 4 42 -2 55 0 63 18 66 34 7 73 7 89 1z m-2798
-109 c16 -8 39 -15 50 -15 27 0 31 -11 30 -80 -2 -66 -7 -76 -49 -95 -35 -16
-69 -37 -77 -46 -3 -4 -27 -6 -55 -5 -33 1 -54 -4 -63 -14 -10 -11 -12 -12 -6
-1 5 10 3 13 -8 8 -9 -3 -21 0 -27 6 -8 8 -11 4 -11 -17 0 -15 -4 -25 -9 -22
-5 3 -11 -4 -15 -17 -39 -148 99 -307 267 -307 109 0 214 64 261 159 34 67 38
104 20 183 -9 38 -13 72 -10 75 14 14 48 -92 48 -147 0 -179 -193 -330 -371
-290 -110 24 -180 76 -226 166 -74 147 -19 326 125 411 30 17 62 39 70 47 18
20 21 20 56 1z m1749 -241 c11 -11 14 -24 10 -38 -4 -12 -8 -38 -10 -59 -10
-126 -22 -155 -78 -184 -42 -21 -989 -20 -1040 2 -61 25 -77 56 -77 147 0 68
-2 79 -15 74 -21 -8 -29 17 -15 43 11 21 16 21 583 24 315 1 584 3 599 5 15 1
34 -5 43 -14z m-2325 -129 c0 -21 -46 -141 -64 -167 l-22 -33 23 -23 c13 -12
23 -27 23 -33 0 -5 -30 -40 -66 -77 l-66 -67 -33 38 -34 39 -78 -30 -78 -30
-5 -44 -5 -43 -85 0 -85 0 -2 35 c-2 29 -1 31 6 10 6 -24 11 -25 85 -28 l79
-3 -5 43 -5 44 81 32 c45 18 86 35 92 38 7 3 22 -11 34 -30 12 -20 28 -36 35
-36 7 0 35 25 61 55 l47 56 -22 22 c-25 27 -27 45 -7 53 8 3 29 46 47 95 17
49 36 89 40 89 5 0 9 -2 9 -5z m2140 -244 c7 -21 11 -57 8 -79 -3 -31 0 -42
12 -45 8 -1 -11 -11 -43 -21 -51 -17 -62 -25 -93 -72 -107 -161 -317 -207
-506 -113 -69 35 -114 78 -148 142 -22 41 -29 47 -57 47 -18 0 -33 5 -33 10 0
6 11 10 24 10 14 0 28 5 31 10 3 6 2 10 -3 10 -5 0 -9 12 -8 28 l1 27 346 5
c372 6 364 5 420 61 27 27 34 24 49 -20z m575 -32 c62 -18 149 -89 181 -151
88 -169 -37 -368 -231 -368 -96 1 -180 50 -230 134 -49 84 -41 205 18 293 55
81 163 119 262 92z m-1720 -204 c63 -62 -6 -161 -90 -129 -24 10 -46 60 -39
89 8 32 49 65 81 65 13 0 35 -11 48 -25z m-1845 -130 c0 -12 -103 -131 -198
-227 l-105 -108 7 -46 c4 -32 1 -56 -10 -79 -17 -37 -70 -70 -99 -62 -15 3
-14 5 7 6 49 2 37 16 -13 15 -26 0 -46 2 -44 6 2 3 -7 18 -21 33 -28 30 -30
56 -8 98 17 33 66 59 113 59 23 0 42 14 90 65 33 36 61 72 61 79 0 19 70 97
81 90 6 -3 26 7 47 23 20 15 48 33 62 40 31 14 30 14 30 8z m694 -278 c3 -29
6 -123 6 -209 0 -146 1 -157 19 -163 28 -9 36 -41 17 -70 -20 -30 -37 -32 -61
-5 -16 17 -17 38 -15 182 1 90 5 196 9 236 4 46 3 76 -4 83 -7 7 -5 8 6 4 11
-4 18 -24 23 -58z m4086 -257 c25 -25 26 -81 2 -103 -10 -9 -32 -19 -49 -23
-25 -5 -34 -1 -52 22 -55 70 37 166 99 104z"/>
<path d="M3750 8298 c-41 -28 -60 -61 -60 -104 0 -37 36 -94 70 -111 64 -33
155 2 176 67 37 112 -90 213 -186 148z"/>
<path d="M7034 5205 c-19 -26 -44 -34 -44 -14 0 8 -4 8 -12 1 -7 -6 -17 -10
-23 -10 -5 0 -11 -6 -14 -13 -2 -7 1 -9 8 -5 7 5 9 1 5 -8 -3 -9 -9 -16 -13
-16 -4 0 -13 -28 -20 -62 -8 -35 -24 -95 -37 -135 -13 -39 -21 -80 -18 -90 5
-15 4 -16 -6 -3 -10 12 -11 11 -7 -8 3 -13 3 -21 0 -18 -3 3 -32 -47 -64 -112
-85 -171 -112 -215 -211 -339 -92 -115 -217 -241 -316 -316 -69 -52 -188 -127
-202 -127 -6 0 -10 -51 -10 -141 0 -77 4 -139 9 -137 80 30 353 205 436 279
33 30 97 85 142 122 89 74 219 230 207 249 -4 6 -3 8 4 4 14 -8 26 12 28 47 1
15 8 36 17 45 29 33 78 134 73 148 -3 9 -1 12 4 9 13 -8 83 142 76 161 -3 8
-1 12 4 9 5 -3 12 7 16 22 4 15 11 34 16 40 6 7 7 25 4 40 -5 21 -4 24 4 13 8
-12 10 -9 10 13 0 16 4 26 10 22 6 -4 7 1 3 10 -3 10 -1 20 5 24 8 5 9 23 3
62 -5 30 -7 66 -4 81 4 22 0 29 -26 42 -29 15 -41 28 -23 25 4 -1 19 -1 35 0
20 1 27 6 27 22 0 11 -4 17 -10 14 -5 -3 -10 1 -10 9 0 9 -7 16 -15 16 -23 0
-18 16 6 17 22 2 36 10 28 17 -2 2 -20 6 -40 10 -31 5 -39 3 -55 -19z"/>
<path d="M2975 7140 c-12 -13 -31 -20 -57 -20 -21 0 -38 -3 -38 -7 0 -12 -70
-41 -113 -49 -20 -3 -40 -10 -43 -16 -3 -5 -15 -6 -27 -2 -46 14 3 -24 59 -46
75 -31 145 -24 222 22 53 32 122 106 122 131 0 7 -9 -3 -20 -20 -11 -18 -23
-33 -27 -33 -4 0 -2 5 5 12 7 7 12 21 12 33 0 16 -2 17 -10 5 -6 -10 -10 -11
-10 -2 0 20 -55 14 -75 -8z"/>
<path d="M3853 6002 c-18 -11 -36 -223 -29 -344 18 -331 142 -597 415 -893 31
-34 79 -85 106 -115 81 -88 145 -170 170 -219 52 -103 55 -132 55 -468 l0
-313 115 0 115 0 0 603 c0 572 -1 604 -20 644 -22 51 -65 80 -229 159 -104 50
-140 75 -141 97 0 4 32 7 71 7 54 0 79 5 109 22 l39 23 43 -41 c24 -22 68 -57
100 -77 59 -38 99 -83 118 -131 12 -31 16 -1264 4 -1275 -3 -3 -12 3 -20 13
-11 16 -16 17 -29 6 -8 -7 -15 -21 -15 -31 0 -18 13 -19 270 -19 250 0 270 1
270 18 0 9 0 297 0 640 l0 622 24 49 c14 26 49 70 78 96 63 57 171 135 186
135 6 0 29 -9 52 -21 22 -11 58 -23 80 -26 34 -5 41 -9 38 -26 -2 -15 -19 -26
-68 -42 -85 -28 -106 -40 -185 -105 -115 -95 -105 -26 -105 -726 l-1 -609 110
-3 110 -3 3 334 3 333 37 75 c44 88 97 161 181 249 363 378 511 663 522 1005
2 66 2 110 -1 98 -3 -13 -12 -23 -21 -23 -11 0 -14 -7 -11 -25 4 -19 2 -23 -7
-15 -6 5 -16 6 -21 2 -4 -4 -3 0 3 8 9 12 5 19 -21 36 -29 20 -34 20 -52 6
-14 -11 -15 -13 -3 -9 15 5 17 -3 14 -66 -3 -66 -6 -74 -34 -99 -49 -43 -107
-35 -135 20 -19 37 -25 109 -8 98 5 -3 6 9 4 27 l-5 32 24 -20 c18 -15 20 -16
10 -2 -12 15 -11 17 8 17 12 0 19 -4 16 -10 -4 -6 2 -7 18 -1 14 6 29 6 38 0
8 -5 19 -9 24 -8 6 0 0 5 -13 12 -28 16 -18 29 17 21 14 -3 22 -2 16 3 -5 4
-15 17 -21 28 -6 11 -17 20 -25 20 -8 0 -20 4 -26 8 -7 4 -22 3 -34 -3 -11 -7
-23 -9 -25 -7 -7 7 51 47 67 47 20 0 79 23 79 31 0 4 -44 -6 -97 -22 -127 -37
-129 -37 -138 9 l-7 37 -13 -30 c-7 -16 -10 -33 -8 -37 7 -14 -8 -9 -24 7 -8
8 -20 12 -26 8 -7 -4 -8 0 -4 13 7 18 6 18 -7 1 -13 -17 -15 -16 -34 10 -10
15 -17 34 -15 41 3 6 0 12 -6 12 -6 0 -11 -11 -11 -25 0 -14 -4 -25 -9 -25
-18 0 -71 35 -71 48 0 7 -15 12 -40 12 -29 0 -40 -4 -40 -15 0 -17 -16 -20
-25 -5 -3 6 -17 7 -29 4 -17 -4 -28 0 -39 16 -14 20 -16 21 -20 3 -3 -10 -5
-2 -6 17 -1 27 -4 31 -11 20 -6 -9 -10 -120 -10 -262 0 -238 -1 -248 -21 -267
-27 -25 -47 -29 -87 -19 -42 11 -66 62 -63 132 2 40 -1 48 -13 43 -10 -4 -13
-1 -9 9 3 9 -7 26 -25 42 -23 21 -28 31 -21 42 8 11 12 12 16 3 6 -16 36 -17
31 -2 -2 6 -6 9 -10 7 -3 -2 -15 5 -26 15 -11 10 -23 17 -28 16 -21 -4 -26 2
-14 16 8 10 9 15 2 15 -27 0 -42 -71 -21 -100 9 -13 10 -12 5 3 -3 11 -2 16 5
12 5 -4 7 -15 4 -25 -3 -10 6 -39 20 -65 35 -66 34 -126 -1 -154 -15 -12 -41
-21 -60 -21 -39 0 -60 25 -96 115 l-24 60 -211 2 -210 2 -27 -69 c-16 -39 -39
-79 -53 -90 -69 -54 -154 14 -125 99 6 16 8 40 5 53 -3 16 -2 19 4 10 18 -24
33 30 17 59 -7 13 -13 33 -13 44 0 13 6 5 17 -20 14 -30 20 -36 25 -23 3 10 2
20 -3 23 -6 4 -10 12 -10 18 0 9 2 9 8 0 6 -9 11 -7 20 7 10 16 9 18 -5 13
-13 -5 -15 -2 -9 12 4 11 2 22 -6 27 -9 5 -6 8 10 8 17 0 22 6 22 26 0 14 4
33 9 42 15 27 17 85 4 89 -6 2 -13 -5 -15 -16 l-3 -21 -30 20 c-30 20 -30 20
-6 20 24 0 24 0 5 15 -25 19 -44 19 -44 0 0 -16 -42 -30 -65 -21 -8 3 -15 15
-15 26 0 19 -6 20 -158 20 -87 0 -162 4 -167 9 -16 15 -155 18 -155 4 0 -13
-22 -17 -67 -14 -11 1 -24 -3 -28 -10 -5 -7 -14 2 -24 24 -11 23 -21 33 -28
29z m219 -286 c7 4 10 4 6 -1 -4 -4 7 -19 23 -33 26 -21 32 -23 41 -11 8 11 9
11 5 -2 -3 -9 0 -22 6 -28 9 -10 2 -22 -33 -52 -25 -22 -57 -46 -71 -54 -24
-13 -28 -12 -44 5 -10 11 -24 43 -31 72 l-14 51 33 30 c17 17 27 27 21 24 -6
-3 -11 0 -11 7 0 10 6 10 29 -1 15 -8 33 -11 40 -7z"/>
<path d="M8190 5783 c-30 -15 -73 -35 -94 -45 -22 -10 -52 -18 -68 -18 -18 0
-28 -5 -28 -15 0 -11 -7 -14 -24 -9 -37 9 -44 -16 -12 -41 53 -42 141 -56 218
-35 48 14 141 87 134 106 -3 7 0 13 6 11 7 -1 13 7 15 18 2 15 1 16 -5 5 -4
-8 -16 -16 -27 -17 -20 -1 -20 -1 -1 13 11 7 18 15 15 17 -21 16 -60 37 -66
36 -4 0 -33 -12 -63 -26z"/>
<path d="M7835 5000 c-45 -10 -71 -30 -94 -71 -57 -101 13 -219 129 -219 87 0
158 78 147 161 -12 87 -98 149 -182 129z"/>
<path d="M2815 3206 c-67 -31 -131 -104 -151 -173 -32 -111 30 -248 140 -306
58 -31 174 -30 232 0 59 31 103 79 132 142 61 133 -13 293 -161 348 -55 20
-136 15 -192 -11z"/>
<path d="M6683 2990 c-24 -10 -69 -74 -78 -113 -11 -43 19 -95 67 -117 24 -11
52 -20 64 -20 30 0 86 40 104 75 8 17 18 32 23 33 13 6 7 47 -13 79 -33 55
-112 85 -167 63z"/>
<path d="M4833 2477 c18 -18 35 -32 38 -30 3 1 17 -8 30 -20 70 -66 190 -92
298 -64 30 8 40 17 18 17 -9 0 -17 5 -17 11 0 5 5 7 10 4 6 -3 19 -3 31 0 15
5 17 10 9 20 -7 8 -7 21 0 39 16 42 32 32 28 -19 -2 -25 1 -40 6 -35 5 5 8 29
8 54 -1 45 -1 45 36 49 20 2 -90 4 -245 5 l-281 2 31 -33z"/>
<path d="M6140 2446 c-7 -14 -24 -27 -38 -31 -13 -3 -41 -17 -61 -31 -19 -13
-46 -24 -58 -24 -12 0 -25 -4 -28 -10 -3 -5 -15 -10 -26 -10 -10 0 -19 -5 -19
-11 0 -5 -5 -7 -11 -4 -17 11 -49 -26 -49 -57 0 -38 30 -95 72 -135 92 -88
226 -83 320 12 57 57 74 112 60 188 -9 50 -19 68 -48 97 -24 22 -34 28 -30 16
4 -13 2 -17 -8 -13 -10 4 -12 0 -8 -15 4 -16 1 -19 -19 -16 -17 2 -25 10 -27
28 -2 20 -1 22 7 10 6 -8 11 -10 11 -4 0 6 -6 17 -13 23 -11 8 -17 5 -27 -13z"/>
</g>
</svg>
