<?xml version="1.0" standalone="no"?>
<!DOCTYPE svg PUBLIC "-//W3C//DTD SVG 20010904//EN"
 "http://www.w3.org/TR/2001/REC-SVG-20010904/DTD/svg10.dtd">
<svg version="1.0" xmlns="http://www.w3.org/2000/svg"
 width="1024.000000pt" height="1024.000000pt" viewBox="0 0 1024.000000 1024.000000"
 preserveAspectRatio="xMidYMid meet">
<metadata>
Created by potrace 1.16, written by Peter Selinger 2001-2019
</metadata>
<g transform="translate(0.000000,1024.000000) scale(0.100000,-0.100000)"
fill="#000000" stroke="none">
<path d="M0 7535 l0 -2705 40 0 c29 0 40 -4 40 -15 0 -11 -11 -15 -40 -15 -29
0 -40 -4 -40 -15 0 -11 11 -15 40 -15 29 0 40 4 40 15 0 8 7 15 15 15 11 0 15
12 15 49 0 41 4 53 25 69 32 25 32 42 0 42 -30 0 -32 11 -4 36 17 15 22 16 29
4 7 -12 13 -10 34 10 20 18 26 33 26 67 0 24 5 43 10 43 6 0 10 -7 10 -16 0
-14 3 -14 15 -4 9 8 15 30 15 56 0 32 4 44 15 44 12 0 15 16 15 80 0 47 4 80
10 80 6 0 10 7 10 15 0 11 -11 15 -40 15 -22 0 -40 5 -40 10 0 6 18 10 40 10
29 0 40 4 40 15 0 8 -4 15 -10 15 -5 0 -10 18 -10 40 0 38 2 40 30 40 28 0 30
2 30 40 0 22 5 40 10 40 6 0 10 18 10 40 0 29 -4 40 -15 40 -12 0 -15 13 -15
59 0 102 -12 181 -26 181 -20 0 -17 10 12 54 22 31 25 46 21 82 -4 40 -3 43
12 32 14 -11 14 -11 3 3 -14 19 -4 55 24 83 14 15 15 19 3 27 -8 5 -9 9 -4 9
6 0 18 23 28 51 11 29 26 53 35 56 18 4 42 46 42 72 0 14 1 14 10 1 5 -8 10
-10 10 -5 0 6 -5 16 -11 22 -8 8 -6 16 10 29 11 10 21 24 21 31 0 16 12 17 27
2 7 -7 10 0 10 24 -1 43 16 66 48 62 14 -1 22 2 19 6 -3 5 9 17 26 27 17 9 41
25 52 35 12 9 34 17 50 17 18 0 28 5 28 15 0 8 6 15 13 15 8 0 8 3 -2 9 -11 7
-3 12 27 22 30 8 42 18 42 31 0 14 8 18 40 18 39 0 40 1 40 35 0 34 1 35 40
35 l40 0 0 54 c0 35 5 58 15 66 9 7 15 29 15 54 0 37 3 42 25 44 23 2 25 -2
25 -38 0 -22 4 -40 9 -40 6 0 10 36 9 80 0 72 -2 80 -19 80 -15 0 -19 7 -19
40 0 25 5 40 13 40 6 1 -1 8 -16 16 -16 8 -34 13 -40 11 -7 -2 -16 2 -22 8 -5
7 -55 31 -110 53 -244 99 -175 91 97 -12 99 -37 137 -46 83 -20 l-30 15 40 -5
c29 -4 34 -3 20 4 -27 12 -8 12 32 1 18 -5 32 -6 32 -3 -7 46 3 54 84 65 10 1
21 7 25 13 4 6 13 13 21 15 7 3 -24 24 -70 47 -62 31 -75 40 -49 35 19 -3 57
-14 83 -24 58 -23 58 -23 51 -4 -4 8 -1 15 5 15 6 0 11 -9 11 -20 0 -14 7 -20
21 -20 17 0 19 3 10 13 -14 17 -4 27 26 27 13 0 23 5 23 11 0 6 18 27 40 48
22 20 40 45 40 54 0 23 36 57 60 57 17 0 20 7 20 40 0 31 -4 40 -17 40 -16 1
-16 2 -2 13 8 7 19 21 24 32 8 19 8 19 12 2 5 -18 6 -18 24 -1 10 9 19 23 19
31 0 7 7 13 16 13 11 0 14 6 9 20 -5 16 -3 19 12 14 14 -5 15 -4 3 4 -8 6 -18
8 -22 5 -11 -6 -39 17 -33 26 2 4 -13 6 -33 5 -20 -1 -31 0 -24 3 24 10 10 23
-98 90 -60 37 -105 69 -100 71 5 2 46 -15 91 -37 45 -23 91 -41 101 -41 11 0
17 -4 13 -9 -6 -11 33 -36 43 -27 3 3 0 6 -7 6 -7 0 -9 4 -6 10 3 6 24 10 46
10 24 0 38 -4 34 -10 -3 -5 1 -10 9 -10 19 0 20 4 5 28 -8 13 -20 17 -47 13
-34 -3 -36 -3 -22 14 16 19 18 123 4 147 -9 14 -11 19 -13 43 0 8 -9 15 -18
15 -15 0 -18 9 -18 54 0 30 4 52 9 48 5 -3 7 4 4 15 -3 11 1 31 8 44 7 13 13
29 13 34 0 6 -6 -1 -14 -15 l-14 -25 -1 28 c0 15 5 27 10 27 6 0 10 7 10 15 0
8 6 13 13 11 6 -1 9 -1 5 1 -16 9 -7 30 22 56 16 15 33 27 37 27 5 -1 23 14
41 31 17 18 32 27 32 20 0 -24 27 -9 38 22 17 46 44 60 103 52 27 -4 49 -11
49 -17 0 -5 -4 -7 -9 -4 -5 4 -7 -3 -4 -15 3 -11 11 -18 19 -15 8 3 11 0 8 -8
-4 -10 15 -13 82 -14 63 -1 98 -7 125 -20 38 -19 38 -19 42 2 3 16 5 15 6 -6
0 -16 6 -28 12 -28 5 0 7 -6 3 -12 -6 -9 -3 -9 9 0 9 8 21 11 27 7 6 -4 20 2
31 14 11 11 30 23 42 25 12 2 43 8 70 14 26 5 47 5 47 1 0 -5 5 -9 11 -9 7 0
8 7 4 18 -19 47 -18 50 24 62 23 6 41 15 41 19 0 5 19 7 42 4 38 -6 41 -5 36
15 -4 12 -1 25 4 29 7 3 8 1 4 -5 -4 -7 -1 -12 8 -12 9 0 16 -4 16 -9 0 -13
57 -31 96 -31 26 0 34 -4 34 -17 1 -17 1 -17 11 0 5 9 18 17 28 17 11 0 22 8
25 17 6 15 8 15 17 3 8 -11 9 -7 5 15 -3 17 -3 24 0 17 3 -6 10 -10 15 -6 5 3
9 -5 10 -18 0 -13 3 -17 6 -10 7 18 -17 73 -29 66 -5 -3 -8 0 -6 8 1 7 -6 27
-18 43 -26 38 -36 65 -24 65 6 0 18 -16 27 -35 9 -19 20 -35 25 -35 4 0 8 -7
8 -16 0 -8 4 -13 9 -9 5 3 16 -3 23 -13 20 -28 98 -29 122 -3 19 21 19 21 -18
21 -26 0 -36 4 -33 13 4 12 107 11 117 -2 11 -14 50 -31 50 -21 0 5 -4 10 -10
10 -21 0 -9 20 15 26 14 3 25 10 25 15 0 5 18 9 40 9 29 0 40 4 40 15 0 11 11
15 40 15 34 0 40 -3 40 -20 0 -20 1 -20 24 -3 14 11 21 22 16 28 -5 6 0 25 13
45 20 32 22 33 25 13 4 -30 10 -29 49 9 32 31 38 29 34 -12 -2 -12 0 -12 7 -1
9 12 -4 68 -18 81 -4 3 -12 23 -19 45 -7 22 -15 46 -17 53 -3 6 -1 12 4 12 5
0 19 -22 30 -49 19 -43 24 -48 47 -44 16 4 25 1 25 -7 0 -7 17 10 38 39 39 53
62 65 62 31 0 -11 7 -20 15 -20 9 0 29 -7 46 -15 28 -15 31 -15 56 5 28 22 63
27 63 8 0 -6 14 1 30 17 23 22 30 25 30 12 0 -14 10 -17 51 -17 61 0 79 9 141
70 44 43 48 45 48 24 0 -29 11 -30 35 -4 10 11 15 20 10 20 -4 0 -2 7 5 15 17
20 30 19 30 -2 1 -13 12 -5 38 25 26 29 45 42 62 42 15 0 32 6 39 13 11 10 14
10 18 0 6 -18 31 -16 49 2 9 8 20 15 25 15 5 0 9 -7 9 -15 0 -11 12 -15 50
-15 28 0 50 5 50 10 0 6 10 10 23 10 12 0 41 10 65 22 35 19 44 20 51 9 7 -11
15 -11 45 -1 20 6 36 16 36 21 0 6 -3 8 -7 6 -5 -3 -17 -1 -28 4 -17 6 -16 8
10 9 18 2 23 4 13 7 -22 6 -23 17 -3 33 12 10 15 10 15 -4 0 -12 10 -16 40
-16 29 0 40 -4 40 -15 0 -39 75 13 82 56 2 13 9 24 17 27 8 3 11 0 7 -7 -4 -6
-3 -11 2 -11 6 0 12 6 15 13 3 9 23 14 54 14 l48 1 -50 -13 c-38 -10 -43 -14
-20 -13 70 1 85 -2 85 -17 0 -11 11 -15 40 -15 29 0 40 4 40 15 0 11 11 15 40
15 29 0 40 -4 40 -15 0 -12 16 -15 80 -15 57 0 80 4 80 13 0 9 41 13 160 15
l160 3 0 -25 c0 -26 1 -26 80 -26 79 0 80 0 80 -25 0 -25 1 -25 83 -25 45 0
99 -3 120 -6 30 -5 37 -4 37 10 0 12 10 16 40 16 30 0 40 -4 40 -16 0 -15 16
-16 159 -11 113 3 161 2 164 -6 2 -8 16 -8 50 0 26 5 47 6 47 2 0 -18 17 -8
31 18 8 15 31 57 52 93 43 73 44 42 1 -43 -13 -27 -24 -54 -24 -60 0 -7 -7
-25 -16 -42 -8 -16 -11 -25 -5 -20 6 6 31 9 56 7 36 -3 45 -8 45 -23 0 -14 10
-20 39 -25 39 -6 63 -37 37 -48 -6 -3 5 -4 24 -1 26 4 30 3 15 -4 -18 -8 -16
-11 17 -25 41 -18 114 -23 88 -6 -10 6 3 7 39 3 37 -4 52 -3 48 4 -5 8 6 9 33
6 28 -4 40 -2 40 7 0 7 7 10 15 6 21 -8 45 3 45 20 0 24 42 37 83 26 35 -10
38 -9 59 21 12 18 25 34 28 37 3 3 48 54 99 114 78 91 92 112 86 133 -3 15 -2
22 4 19 5 -4 13 0 18 8 7 12 12 11 31 -4 13 -11 18 -21 12 -25 -5 -3 -10 -1
-10 5 0 16 -39 -25 -90 -95 -24 -33 -77 -100 -118 -148 -69 -82 -74 -90 -63
-113 6 -14 9 -30 5 -35 -6 -10 9 -65 32 -116 19 -42 26 -43 12 -2 -6 16 -8 33
-4 36 3 4 6 -1 6 -10 0 -10 5 -17 11 -17 5 0 8 -4 5 -9 -3 -5 0 -8 7 -8 24 2
93 -15 119 -29 19 -10 27 -11 30 -2 5 15 28 1 28 -18 0 -11 -6 -13 -19 -9 -11
3 -23 0 -27 -6 -4 -8 -3 -9 5 -5 13 8 56 -16 82 -46 9 -10 25 -18 37 -18 11 0
22 -8 25 -20 3 -11 10 -20 16 -20 6 0 15 9 21 20 6 11 20 20 32 20 17 0 19 -3
10 -12 -16 -16 -15 -28 3 -28 8 0 15 6 16 13 0 6 4 3 8 -8 7 -17 9 -16 16 10
7 27 8 28 15 10 7 -16 9 -17 9 -3 1 23 50 68 67 61 8 -3 14 0 14 6 0 6 6 10
13 9 6 -2 11 2 10 7 -1 6 8 12 20 12 12 1 41 7 65 14 43 12 51 11 152 -20 46
-14 116 -75 138 -121 37 -76 39 -135 6 -214 -6 -15 -4 -18 7 -12 8 4 6 1 -5
-8 -10 -8 -15 -20 -10 -27 4 -8 3 -10 -4 -5 -7 4 -12 3 -12 -1 0 -5 -7 -18
-16 -29 -8 -10 -12 -13 -8 -5 4 9 3 12 -4 7 -6 -4 -9 -12 -6 -19 2 -7 -6 -22
-19 -33 -17 -15 -23 -30 -21 -52 1 -22 -2 -32 -12 -32 -10 0 -14 -12 -14 -40
0 -36 3 -40 25 -40 22 0 25 -4 25 -33 0 -41 29 -67 75 -67 28 0 35 -4 35 -20
0 -13 7 -20 20 -20 11 0 20 -4 20 -10 0 -5 -5 -10 -11 -10 -6 0 -17 -7 -25
-15 -13 -13 -13 -18 3 -40 14 -19 27 -24 57 -25 31 0 37 -3 28 -12 -17 -17
-15 -26 8 -33 11 -3 20 -15 20 -26 0 -24 11 -24 43 1 14 11 30 20 36 20 7 0 9
10 5 28 -7 24 -6 26 9 13 21 -17 22 -38 2 -57 -8 -9 -15 -13 -15 -10 0 3 -15
-3 -32 -13 -18 -10 -32 -24 -30 -31 2 -8 -3 -10 -13 -6 -10 4 -15 2 -13 -6 2
-6 14 -15 27 -19 14 -6 20 -5 16 1 -9 14 19 12 33 -2 10 -10 17 -10 32 0 17
10 20 9 26 -13 3 -13 12 -29 20 -36 8 -6 14 -23 14 -38 0 -20 2 -23 10 -11 8
13 10 12 10 -2 0 -10 4 -18 10 -18 5 0 7 -7 4 -15 -4 -8 -1 -15 6 -15 7 0 10
-6 8 -12 -3 -7 1 -26 9 -43 l14 -30 -5 33 c-6 36 8 44 18 10 8 -32 8 -35 -10
-53 -13 -12 -14 -19 -5 -28 8 -8 11 -7 11 5 0 57 72 11 75 -47 0 -5 10 -11 23
-13 18 -3 22 -10 22 -43 0 -21 4 -39 9 -39 5 0 12 -9 15 -20 3 -11 9 -29 12
-40 4 -15 1 -20 -15 -20 -18 0 -21 -6 -21 -40 0 -36 2 -40 26 -40 39 0 54 -22
54 -79 0 -38 4 -51 14 -51 9 0 13 -7 11 -19 -2 -11 5 -27 16 -37 11 -10 19
-12 19 -6 0 7 5 12 10 12 6 0 10 -13 10 -30 0 -20 -5 -30 -15 -30 -9 0 -12 -6
-8 -16 3 -8 11 -13 18 -10 14 5 45 -24 45 -42 0 -7 9 -12 20 -12 17 0 20 -7
20 -40 l0 -40 40 0 c32 0 40 -4 40 -18 0 -10 3 -22 7 -26 12 -12 12 -36 0 -37
-7 -1 -1 -4 13 -8 18 -5 26 -15 28 -34 2 -16 10 -31 18 -34 9 -3 14 -20 13
-52 0 -25 -3 -41 -5 -35 -5 13 -62 6 -71 -9 -4 -7 0 -8 11 -4 10 4 23 4 29 0
7 -5 0 -10 -18 -14 -24 -6 -20 -7 17 -6 25 1 44 5 41 10 -7 12 4 8 41 -14 20
-12 36 -28 36 -36 0 -9 6 -12 19 -8 10 3 26 2 36 -1 16 -7 16 -8 -4 -16 -13
-5 -31 -4 -43 3 -11 6 -22 8 -25 5 -9 -8 49 -28 64 -22 8 4 11 1 7 -5 -3 -6
-19 -9 -35 -5 -16 3 -29 3 -29 0 0 -11 72 -35 90 -29 13 4 20 0 25 -15 3 -11
11 -20 16 -20 6 0 8 4 4 9 -9 15 15 25 28 12 9 -9 8 -11 -5 -6 -27 11 -16 -19
22 -56 18 -19 39 -32 44 -31 6 2 8 0 4 -3 -4 -4 -1 -20 8 -36 13 -26 13 -29
-1 -29 -8 0 -14 3 -13 8 2 4 -6 17 -17 29 l-20 21 0 -29 c-1 -19 3 -25 9 -19
6 6 14 10 20 10 6 0 5 -5 -2 -12 -8 -8 -8 -17 -1 -30 5 -10 8 -22 5 -26 -3 -4
0 -14 5 -22 6 -10 7 -2 4 24 -7 57 4 38 20 -36 8 -34 20 -88 28 -120 12 -47
12 -55 0 -51 -7 3 -13 10 -13 17 0 6 -9 12 -19 12 -14 0 -20 -10 -24 -40 -3
-21 -1 -50 4 -63 5 -13 9 -35 9 -49 0 -13 5 -24 11 -24 7 0 9 -9 6 -21 -3 -12
0 -28 9 -36 8 -8 14 -19 14 -24 0 -5 -9 0 -20 11 -24 24 -33 25 -50 5 -7 -8
-9 -15 -5 -15 4 0 2 -7 -5 -15 -7 -8 -16 -12 -21 -9 -5 3 -9 0 -9 -5 0 -23 30
-10 45 20 14 26 19 28 31 18 10 -8 14 -24 12 -40 -3 -16 -1 -26 3 -24 3 3 7
-7 7 -21 0 -13 -3 -22 -6 -19 -3 2 -13 -13 -23 -36 -10 -22 -23 -38 -28 -35
-5 4 -13 1 -17 -5 -4 -8 -3 -9 4 -5 7 4 12 3 12 -3 0 -5 -7 -14 -16 -19 -11
-6 -13 -11 -5 -16 6 -4 16 4 23 18 6 14 15 26 19 26 14 0 66 84 61 99 -3 8 0
11 6 7 15 -9 41 67 50 143 8 72 32 99 32 34 -1 -48 -23 -151 -39 -181 -6 -12
-9 -28 -5 -34 4 -6 3 -8 -3 -5 -12 8 -45 -47 -38 -65 3 -8 -7 -25 -22 -38
l-28 -25 23 26 c12 14 22 29 22 33 0 12 -27 -12 -61 -55 -27 -34 -28 -39 -13
-53 8 -9 11 -16 5 -16 -5 0 -16 7 -24 15 -13 13 -17 13 -34 -3 -10 -9 -14 -14
-8 -11 16 8 35 5 34 -6 -1 -5 -6 -9 -11 -7 -6 2 -8 -4 -5 -12 4 -9 2 -18 -4
-21 -5 -4 -8 -14 -7 -23 2 -13 -4 -17 -22 -15 -14 1 -18 0 -7 -3 12 -4 15 -12
11 -30 -9 -36 -9 -41 0 -131 6 -60 12 -83 22 -83 8 0 14 7 14 16 0 8 5 12 11
8 6 -4 9 -30 7 -66 -3 -50 0 -62 20 -83 12 -12 20 -29 17 -37 -3 -8 1 -21 10
-28 8 -7 15 -19 15 -27 0 -7 7 -16 15 -19 14 -6 13 -8 -2 -20 -17 -13 -17 -14
2 -7 11 3 25 10 32 15 13 10 33 3 33 -12 0 -5 -7 -15 -15 -23 -13 -13 -13 -16
1 -21 8 -3 12 -2 9 4 -11 17 3 11 29 -14 27 -24 34 -46 15 -46 -5 0 -7 -4 -4
-10 3 -6 1 -10 -5 -10 -6 0 -8 -5 -4 -12 5 -7 1 -9 -13 -6 -16 4 -19 1 -15
-18 3 -20 11 -24 38 -24 35 0 84 -18 84 -31 0 -4 20 -11 45 -15 28 -4 42 -10
38 -17 -4 -6 0 -8 10 -4 11 4 17 1 17 -9 0 -8 -4 -13 -9 -10 -5 3 -12 -1 -15
-10 -3 -8 -11 -12 -16 -9 -6 4 -18 1 -27 -7 -14 -11 -13 -8 2 15 10 15 15 30
11 34 -3 3 -6 2 -6 -3 0 -6 -22 -8 -56 -4 -33 4 -58 2 -61 -4 -4 -5 -1 -12 5
-14 7 -2 12 -8 12 -14 0 -13 -83 1 -92 16 -5 7 -8 7 -8 1 0 -18 23 -35 47 -35
20 0 23 -5 23 -40 0 -33 3 -40 20 -40 14 0 20 7 20 21 0 24 23 21 28 -4 2 -10
-3 -17 -12 -17 -23 0 -20 -33 4 -48 26 -16 26 -32 0 -32 -11 0 -20 -7 -20 -15
0 -18 47 -65 65 -65 10 0 15 -10 15 -29 0 -27 53 -121 72 -129 4 -2 8 -10 8
-17 0 -21 48 -65 70 -65 10 0 33 -15 51 -32 20 -21 34 -28 37 -20 2 6 9 12 15
12 14 -1 67 -46 67 -57 0 -4 18 -18 40 -31 l40 -23 0 3116 0 3115 -5120 0
-5120 0 0 -2705z"/>
<path d="M7140 9058 c-30 -5 -69 -13 -86 -18 -17 -6 -55 -11 -85 -11 -30 -1
-45 -4 -34 -6 11 -3 23 -10 26 -15 4 -6 23 -10 43 -10 20 0 39 -4 42 -9 3 -5
18 -9 34 -9 16 0 31 -4 34 -9 3 -4 21 -11 40 -14 19 -3 44 -15 55 -26 24 -24
56 -28 48 -7 -4 10 4 17 24 21 27 6 42 25 19 25 -5 0 -10 5 -10 10 0 6 7 10
15 10 8 0 15 -4 15 -10 0 -5 9 -10 21 -10 11 0 17 5 14 10 -3 6 -1 10 5 10 8
0 10 -9 7 -23 -4 -12 -2 -28 2 -35 14 -24 21 14 9 49 -8 23 -15 29 -29 26 -11
-3 -21 -1 -24 3 -3 5 5 11 17 13 14 2 6 5 -17 6 -22 0 -53 10 -70 21 -33 22
-34 22 -115 8z"/>
<path d="M8160 8830 c11 -7 -3 -10 -47 -10 -35 0 -63 -4 -63 -8 0 -17 -47 -31
-61 -19 -11 10 -11 9 -1 -4 10 -14 8 -22 -13 -47 -28 -34 -37 -75 -10 -48 8 8
15 19 15 24 0 13 62 52 81 52 20 -1 -31 -38 -56 -42 -11 -2 -15 -6 -10 -10 6
-3 39 8 74 25 44 21 66 27 69 19 2 -7 9 -12 15 -12 7 0 23 -13 37 -29 13 -17
27 -28 32 -25 4 3 8 1 8 -5 0 -5 -6 -12 -12 -14 -8 -3 -5 -6 5 -6 14 -1 17 -6
12 -21 -3 -11 -2 -28 4 -37 8 -14 11 -15 12 -3 1 8 5 2 9 -15 l7 -30 7 28 c5
15 5 42 2 60 -9 44 -70 125 -109 143 l-32 15 30 -6 c17 -4 39 -15 51 -26 11
-10 24 -16 27 -12 4 3 7 0 7 -9 0 -8 11 -24 25 -36 14 -12 25 -17 25 -12 0 17
-5 25 -14 22 -5 -2 -6 4 -2 13 4 11 2 15 -6 13 -7 -3 -17 5 -23 16 -6 12 -26
26 -45 33 -19 7 -30 12 -25 13 12 0 -16 20 -30 20 -5 0 -3 -5 5 -10z"/>
<path d="M3640 8311 c-122 -44 -192 -78 -272 -132 -32 -22 -86 -52 -119 -69
-72 -34 -216 -149 -341 -271 -48 -47 -88 -84 -88 -81 0 9 -131 -133 -196 -213
-5 -5 13 10 39 35 39 36 47 41 44 23 -4 -26 -26 -55 -37 -48 -12 8 -54 -56
-56 -85 -2 -14 0 -17 3 -7 2 9 9 15 14 12 5 -4 9 -1 9 4 0 6 -5 11 -11 11 -8
0 -7 5 1 15 7 9 15 13 17 11 6 -5 69 65 66 73 -1 3 3 11 8 18 7 7 5 13 -3 16
-8 3 5 23 37 56 44 46 77 68 60 41 -3 -5 -2 -10 3 -10 14 0 35 28 28 38 -6 10
110 125 199 198 34 27 107 78 164 114 57 36 125 79 151 97 64 42 208 114 300
148 41 15 79 32 85 36 13 13 12 12 -105 -30z"/>
<path d="M4303 8240 c-407 -43 -769 -189 -1123 -454 -86 -64 -260 -234 -260
-254 0 -7 -10 -23 -21 -35 -12 -12 -19 -15 -15 -7 4 8 -3 2 -16 -15 -13 -16
-24 -33 -24 -37 -1 -5 -2 -13 -3 -20 0 -6 -4 -8 -7 -5 -9 9 -75 -84 -68 -95 6
-10 44 34 44 50 0 6 4 12 8 14 10 4 122 135 122 143 0 3 35 40 78 83 90 91
238 211 337 274 135 87 211 125 446 224 144 61 403 111 614 120 265 12 566
-33 792 -116 118 -44 319 -157 423 -240 25 -19 38 -26 30 -16 -8 11 -53 48
-100 82 -165 123 -408 223 -671 278 -98 20 -164 26 -314 30 -104 3 -227 1
-272 -4z"/>
<path d="M5446 7388 c3 -18 10 -50 16 -72 11 -43 10 -44 -22 -49 -13 -2 -26
-9 -27 -14 -5 -15 14 -26 22 -13 9 15 25 12 25 -5 0 -9 -10 -15 -26 -15 -21 0
-24 -4 -19 -20 4 -12 2 -20 -5 -20 -7 0 -14 9 -17 19 -5 20 -33 38 -33 21 0
-6 5 -10 10 -10 6 0 10 -4 10 -9 0 -14 -52 -24 -60 -11 -5 8 -9 6 -14 -5 -4
-12 -10 -14 -19 -7 -9 8 -12 3 -12 -19 0 -16 3 -29 8 -29 4 0 7 5 7 10 0 6 7
10 15 10 8 0 15 -9 15 -19 0 -11 3 -27 7 -37 5 -14 3 -16 -11 -11 -10 4 -23 4
-29 0 -7 -5 -21 -8 -31 -8 -11 0 -21 -6 -23 -12 -6 -16 29 -17 44 -2 7 7 12 4
16 -10 3 -12 1 -19 -4 -15 -15 9 -10 -23 6 -36 12 -10 18 -10 30 0 8 7 15 8
15 3 0 -8 20 -9 68 -4 7 0 10 7 7 14 -4 6 3 1 14 -13 12 -14 20 -19 19 -10 -2
10 5 15 22 15 14 0 38 12 53 26 25 22 27 29 17 53 -7 19 -15 26 -26 22 -11 -4
-14 -1 -12 13 2 10 -3 25 -10 34 -9 10 -10 17 -2 22 14 9 32 -5 26 -20 -3 -8
1 -19 9 -25 10 -8 16 -7 23 6 9 15 13 16 26 5 9 -7 16 -9 16 -4 0 15 63 48 93
49 15 0 27 4 26 10 -1 5 -6 8 -12 6 -11 -3 -45 -8 -74 -11 -7 0 -13 -8 -13
-17 0 -9 -6 -14 -12 -11 -13 4 -15 10 -17 55 -1 13 -7 22 -16 22 -9 0 -15 -6
-13 -13 2 -7 -1 -14 -7 -15 -12 -4 -25 55 -17 76 3 9 0 13 -7 11 -7 -3 -14
-24 -16 -47 -2 -24 1 -40 6 -36 5 3 9 1 9 -4 0 -9 -23 -22 -36 -22 -3 0 -2 9
1 20 4 11 2 20 -4 20 -6 0 -11 5 -11 11 0 6 7 8 16 5 12 -5 15 -2 9 11 -14 34
-23 86 -18 99 3 8 0 14 -6 14 -6 0 -10 10 -8 21 1 12 -4 24 -10 26 -9 3 -11
-5 -7 -29z"/>
<path d="M5654 6946 c3 -13 9 -31 12 -40 3 -9 2 -16 -4 -16 -5 0 -12 9 -15 20
-4 16 -10 19 -29 12 -56 -21 -78 -23 -78 -7 0 9 4 14 9 11 5 -4 18 -3 30 2 15
5 18 11 11 22 -6 9 -13 11 -17 5 -5 -5 -19 -12 -33 -13 -32 -5 -35 -9 -22 -25
7 -8 9 -17 5 -20 -12 -13 -23 -7 -23 12 0 11 -5 23 -12 27 -8 5 -9 0 -6 -14 4
-12 2 -25 -3 -28 -5 -3 -10 0 -10 5 -3 26 -4 30 -11 37 -5 4 -8 -2 -8 -13 0
-30 -39 -38 -51 -10 -8 20 -9 21 -8 2 2 -33 -1 -45 -8 -44 -25 4 -43 -3 -43
-17 0 -11 6 -14 20 -9 11 4 20 2 20 -4 0 -6 -7 -11 -15 -11 -8 0 -15 -6 -15
-12 -1 -8 -6 -6 -14 5 -8 10 -20 15 -30 11 -19 -7 -16 -1 -22 -51 -3 -24 0
-52 6 -63 8 -16 8 -20 -4 -20 -7 0 -17 12 -21 27 -5 21 -8 24 -15 12 -5 -7 -7
-22 -4 -31 4 -13 0 -18 -16 -18 -13 0 -19 4 -14 12 4 7 3 8 -5 4 -6 -4 -9 -11
-6 -15 4 -8 -5 -46 -20 -84 -6 -15 -4 -16 19 -7 14 5 32 7 40 4 8 -3 17 -1 20
5 4 6 13 8 21 5 25 -10 8 -21 -35 -22 -48 -2 -84 -30 -74 -57 5 -12 4 -16 -3
-12 -7 4 -10 -2 -9 -17 0 -13 6 -21 11 -18 6 3 4 -1 -2 -10 -7 -8 -10 -17 -7
-20 3 -3 7 -24 9 -46 2 -22 13 -55 24 -73 15 -25 17 -35 8 -41 -8 -5 -7 -8 6
-8 9 0 17 -4 17 -10 0 -5 -8 -10 -17 -10 -17 -1 -17 -1 0 -14 18 -14 24 -32 7
-21 -7 4 -9 -2 -4 -19 6 -24 4 -25 -48 -29 -49 -3 -48 -3 17 -5 44 -1 66 -5
59 -12 -5 -5 -78 -10 -162 -11 l-152 -1 0 -199 c0 -126 4 -199 10 -199 6 0 10
-4 10 -10 0 -5 -6 -10 -14 -10 -10 0 -14 -22 -15 -92 -4 -182 -9 -95 -11 164
-1 294 -2 314 -15 311 -6 0 -26 -4 -45 -8 -19 -3 -55 -9 -80 -12 -25 -3 -48
-11 -52 -17 -5 -7 -8 -6 -8 4 -1 9 -5 7 -10 -6 -11 -27 -59 -39 -61 -15 -1 9
-5 3 -9 -14 -8 -30 -8 -29 -10 10 -3 38 -4 37 -10 -15 l-7 -55 -1 53 c-2 45
-4 51 -15 40 -10 -9 -15 -60 -20 -175 l-6 -163 172 -3 172 -3 -173 -2 -172 -2
0 -335 c1 -185 4 -343 7 -350 4 -12 32 -15 143 -15 l138 0 12 73 c6 39 13 79
15 87 6 22 -5 -111 -12 -138 l-5 -23 133 7 c74 3 137 9 141 13 12 11 84 220
99 285 7 33 14 55 16 49 7 -20 -52 -228 -92 -326 -7 -18 -2 -19 91 -15 90 3
102 6 135 31 41 31 58 35 38 10 -13 -16 -12 -17 3 -5 10 8 16 17 15 20 -4 15
32 54 43 47 9 -6 9 -2 1 14 -7 11 -9 22 -6 22 3 1 9 2 13 3 24 3 72 89 72 127
0 5 -71 7 -157 4 l-158 -4 145 10 c80 5 154 11 165 14 22 5 42 50 69 160 18
70 48 266 43 272 -3 2 -86 -2 -185 -9 l-181 -12 -6 -55 c-13 -118 -24 -170
-17 -81 4 47 7 182 7 302 0 119 3 214 8 211 4 -2 7 -86 7 -185 l0 -181 112 7
c62 4 144 9 184 13 l71 6 11 131 10 131 -5 -127 -5 -128 39 0 c21 0 68 3 104
6 l67 7 12 40 c6 23 17 52 22 66 l10 26 18 -39 c14 -31 19 -35 23 -20 3 11 19
64 36 119 49 163 57 212 66 431 3 94 2 104 -21 137 -28 42 -29 48 -10 41 8 -3
17 -15 19 -27 2 -12 5 -2 5 23 1 32 -1 41 -8 30 -9 -13 -10 -13 -10 0 0 13 -1
13 -11 0 -7 -11 -12 -12 -15 -3 -3 7 -12 9 -21 6 -13 -5 -15 -2 -11 15 4 12 2
22 -3 22 -5 0 -9 14 -9 31 0 18 -4 28 -10 24 -6 -3 -7 -17 -4 -31 4 -14 2 -24
-5 -24 -6 0 -11 13 -11 29 0 24 -3 28 -20 24 -16 -4 -20 0 -20 18 0 28 -20 65
-20 39 0 -10 -11 -15 -35 -16 -25 -1 -35 3 -35 14 0 8 2 13 6 10 3 -3 25 0 49
7 24 8 47 10 51 7 4 -4 4 -1 0 6 -5 9 -20 11 -48 7 -49 -8 -78 -24 -71 -42 3
-7 0 -13 -6 -13 -14 0 -15 27 -1 35 18 11 10 26 -10 20 -17 -5 -20 -2 -20 22
0 22 2 25 11 13 8 -11 12 -12 16 -2 7 17 23 15 23 -3 0 -8 4 -15 9 -15 5 0 9
11 9 24 0 22 -4 24 -47 21 -25 -2 -46 -4 -46 -5 0 -1 -12 -3 -26 -5 -23 -3
-27 1 -38 46 -7 27 -17 49 -23 49 -6 0 -8 -10 -4 -24z"/>
<path d="M7762 6818 c-23 -5 -40 -13 -37 -19 4 -5 -1 -9 -9 -9 -9 0 -17 -3
-17 -7 -6 -33 -5 -54 2 -59 5 -2 4 -16 -1 -30 -14 -36 -13 -104 2 -104 37 0
168 115 168 149 0 6 3 11 8 11 11 0 34 58 27 70 -8 12 -84 11 -143 -2z"/>
<path d="M8254 6743 c-28 -68 -23 -87 41 -148 32 -30 62 -55 67 -55 4 0 35
-27 68 -60 42 -41 72 -61 95 -66 19 -3 33 -9 31 -13 -2 -3 9 -7 25 -8 29 -2
30 -1 23 33 -6 35 -6 36 17 29 13 -5 29 -15 36 -24 17 -22 16 -6 -1 27 -15 29
-64 77 -136 134 -25 19 -61 50 -80 68 -44 42 -149 120 -161 120 -5 0 -16 -17
-25 -37z"/>
<path d="M6297 6419 c-10 -51 -22 -98 -26 -103 -5 -6 -12 -29 -16 -51 -46
-261 -185 -591 -357 -848 -214 -321 -512 -586 -868 -774 -76 -40 -136 -63
-270 -103 -41 -12 -86 -26 -100 -31 -14 -4 -54 -13 -90 -19 -36 -7 -69 -14
-74 -17 -5 -4 -21 -7 -35 -8 -14 -1 -90 -8 -169 -15 -391 -35 -805 36 -1117
193 -201 100 -427 298 -559 490 -79 114 -166 284 -212 417 -37 104 -46 104
-14 0 24 -78 24 -81 6 -74 -8 3 -24 -4 -35 -15 -12 -12 -26 -21 -31 -21 -6 0
-9 -18 -8 -40 2 -22 5 -40 8 -40 11 0 32 -62 27 -80 -3 -11 -1 -20 4 -20 5 0
9 -9 9 -21 0 -13 4 -18 12 -13 7 4 8 3 4 -5 -9 -14 29 -92 50 -104 8 -5 12
-13 8 -18 -7 -12 41 -70 51 -61 5 4 5 2 1 -5 -13 -24 112 -189 231 -304 185
-180 509 -348 768 -398 33 -7 69 -16 80 -21 11 -5 37 -11 59 -15 21 -3 36 -8
34 -10 -1 -2 -32 1 -68 7 -36 5 -99 11 -140 12 -41 2 -82 5 -90 7 -8 2 -14 -1
-13 -8 2 -8 -13 -6 -43 7 -43 19 -84 27 -72 15 7 -7 80 -35 213 -82 100 -35
267 -69 285 -58 6 4 10 1 10 -6 0 -8 5 -7 16 2 15 13 17 11 12 -19 l-5 -32 22
20 c13 12 35 20 58 20 l36 0 -17 -39 c-9 -22 -30 -55 -46 -73 -63 -71 -60 -65
-36 -78 18 -9 26 -8 43 7 l22 18 -19 -22 c-16 -20 -17 -25 -5 -40 13 -17 12
-17 -6 -2 -11 8 -40 23 -64 32 l-45 17 29 -30 29 -30 -21 -21 c-17 -17 -24
-19 -41 -10 -11 6 -27 11 -34 11 -7 -1 2 -7 21 -15 24 -11 32 -20 29 -33 -3
-12 2 -24 13 -31 11 -6 19 -16 19 -21 0 -6 -10 -2 -22 10 -12 11 -28 20 -35
20 -8 0 -28 7 -44 16 -31 16 -56 11 -29 -6 13 -8 12 -12 -5 -24 -11 -9 -15
-16 -9 -16 7 0 40 -22 75 -50 35 -27 67 -50 70 -50 4 0 3 17 -1 37 -10 44 7
62 58 61 17 -1 35 1 38 4 3 4 -12 26 -33 50 -39 45 -36 44 34 -12 46 -35 61
-64 45 -83 -19 -23 -17 -89 5 -172 l5 -20 -15 20 c-15 19 -16 18 -11 -19 2
-21 7 -43 10 -47 3 -5 2 -9 -3 -9 -4 0 -21 16 -36 35 -15 19 -62 70 -103 114
-61 64 -91 87 -158 120 -65 32 -92 40 -129 38 -29 -1 -47 -7 -47 -14 0 -7 -8
-17 -17 -22 -14 -8 -15 -11 -3 -11 12 0 11 -3 -2 -11 -10 -5 -18 -15 -18 -20
0 -18 -37 -59 -45 -51 -5 4 -5 2 -2 -5 4 -6 -17 -42 -46 -80 -30 -37 -59 -78
-66 -91 -7 -12 -16 -20 -21 -17 -6 4 -7 -1 -3 -11 4 -12 3 -15 -5 -10 -7 4
-12 1 -12 -8 0 -9 -4 -16 -8 -16 -4 0 -21 -20 -36 -45 -31 -48 -39 -56 -29
-27 3 9 -9 -4 -28 -30 -138 -189 -285 -369 -295 -360 -4 4 -4 -1 -1 -10 4 -10
3 -18 -2 -18 -5 0 -24 -20 -43 -45 -19 -24 -39 -41 -43 -37 -5 4 -5 2 -2 -4 3
-6 -12 -30 -33 -54 -22 -25 -40 -47 -40 -50 0 -3 -13 -20 -29 -38 -17 -17 -36
-40 -43 -51 -7 -10 -36 -45 -65 -77 -28 -33 -70 -81 -93 -109 -47 -57 -110
-115 -125 -116 -68 -5 -65 -7 -48 24 8 16 33 50 56 75 27 28 37 47 30 49 -21
7 -15 26 7 20 11 -3 18 0 17 7 -1 6 3 10 10 9 6 -1 33 23 59 55 26 31 42 52
35 46 -9 -8 -38 -7 -109 6 -53 10 -108 22 -122 28 l-24 9 39 25 c40 24 74 29
108 14 20 -9 57 17 57 41 0 7 5 13 10 13 6 0 10 4 10 8 0 5 -13 8 -30 7 -38
-2 -38 1 1 21 17 8 28 11 24 5 -3 -6 5 -15 20 -21 35 -13 38 -13 31 5 -5 13
-2 14 15 4 12 -6 18 -17 15 -25 -3 -9 -1 -12 4 -9 13 8 13 42 0 50 -18 11 -10
21 18 22 15 0 19 -1 10 -4 -10 -2 -18 -9 -18 -15 0 -6 7 -7 17 -3 37 16 73 18
73 4 0 -11 2 -11 9 1 6 8 7 18 4 24 -3 5 -2 6 4 3 5 -3 34 24 64 60 30 36 77
94 105 127 28 34 130 159 226 280 158 196 175 221 171 249 -3 17 -2 51 2 76
l7 45 22 -37 c13 -20 25 -40 28 -42 3 -3 44 45 91 108 70 93 93 117 136 137
51 26 64 40 34 40 -9 0 -13 3 -10 6 10 10 -26 34 -134 90 -51 26 -89 54 -74
54 3 0 14 -4 23 -9 9 -4 31 -11 47 -15 28 -6 27 -5 -8 13 -21 11 -52 23 -70
26 -17 4 -37 12 -44 17 -7 6 -28 10 -48 11 -27 1 -35 5 -35 19 0 10 -7 18 -17
18 -9 0 -13 3 -10 7 9 9 -33 53 -50 53 -8 0 -12 4 -8 9 6 10 -21 41 -35 41
-11 0 -9 -41 3 -57 6 -8 6 -18 -1 -26 -8 -10 -7 -28 4 -68 8 -29 17 -63 20
-74 l4 -20 -9 20 c-8 17 -10 17 -10 3 -1 -9 4 -20 9 -23 6 -4 8 -15 5 -25 -3
-10 3 -36 15 -57 37 -69 33 -72 -75 -70 l-95 2 -2 -55 -2 -55 -3 53 c-4 46 -8
54 -34 67 -16 9 -29 12 -29 8 0 -5 -4 -2 -9 5 -6 10 -10 2 -15 -25 -11 -58
-17 -74 -26 -68 -17 10 -85 12 -102 3 -16 -7 -18 -25 -19 -131 0 -67 -3 -116
-6 -109 -4 10 -9 9 -24 -4 -19 -17 -20 -17 -26 4 -3 12 -9 19 -14 16 -5 -3 -9
28 -9 69 0 41 -5 89 -12 107 -11 34 -11 34 -21 9 -9 -24 -9 -24 -17 -3 -9 24
-61 39 -72 21 -4 -6 -8 15 -10 46 l-3 58 -55 -38 c-40 -28 -57 -47 -64 -73 -9
-33 -23 -50 -37 -47 -3 1 -13 -4 -21 -11 -11 -9 -16 -36 -17 -104 -3 -136 -18
-142 -20 -8 -1 63 -3 116 -5 118 -9 8 -57 -12 -78 -33 -13 -12 -72 -51 -133
-86 -113 -65 -178 -113 -168 -123 4 -3 -6 -6 -20 -6 -30 0 -35 -21 -15 -65 12
-27 3 -49 -11 -26 -7 11 -10 9 -15 -7 -7 -21 -7 -21 -27 -1 -23 23 -39 25 -39
4 0 -19 -26 -19 -37 0 -7 12 -15 11 -53 -8 -44 -23 -100 -57 -110 -67 -10 -10
-96 -49 -134 -61 l-39 -12 24 -19 c45 -35 83 -50 168 -68 80 -17 84 -19 58
-29 -81 -32 -134 -56 -147 -67 -8 -6 -24 -14 -35 -17 -15 -3 -12 -5 9 -6 15 0
69 17 119 40 l90 40 216 -5 c234 -5 265 -7 277 -18 4 -5 30 -9 58 -10 l51 -1
-50 -7 c-45 -6 -46 -7 -13 -8 77 -4 40 -37 -52 -47 -25 -3 -81 -11 -125 -19
-44 -8 -152 -18 -240 -23 -88 -4 -151 -9 -140 -11 23 -5 35 -20 35 -43 0 -29
-148 -44 -425 -43 l-250 0 2 -80 c1 -90 -2 -103 -24 -85 -12 11 -14 6 -11 -36
l3 -48 95 -19 c52 -11 97 -24 101 -29 5 -9 55 -17 117 -18 13 -1 21 -5 17 -10
-3 -6 4 -9 15 -8 21 1 27 21 10 32 -5 3 -6 15 -1 28 11 28 11 29 11 72 0 111
264 196 687 220 82 5 104 4 93 -5 -12 -9 -11 -10 6 -5 12 3 32 1 45 -4 13 -5
17 -10 9 -10 -13 -1 -13 -3 0 -16 24 -23 97 -23 116 1 8 10 13 14 10 8 -3 -7
1 -17 9 -24 16 -13 11 -30 -8 -30 -8 0 -8 3 2 9 22 14 -6 23 -31 10 -13 -7
-25 -12 -28 -11 -3 1 -13 -1 -23 -4 -31 -10 -8 -23 31 -17 l37 6 -27 -22 c-15
-12 -33 -19 -39 -15 -7 4 -9 3 -6 -3 8 -13 -66 -85 -84 -80 -8 2 -11 2 -6 0
14 -8 7 -22 -8 -17 -22 9 -72 -5 -56 -15 19 -12 10 -43 -22 -72 l-28 -26 62
-7 c101 -10 204 -7 218 6 10 11 11 9 5 -6 -7 -18 -20 -18 -270 -15 -144 2
-260 7 -257 12 2 4 64 36 136 72 104 50 126 64 101 64 -16 1 -48 -7 -70 -18
-42 -20 -103 -47 -174 -76 -25 -10 -51 -26 -58 -34 -10 -12 -15 -13 -20 -4 -5
7 -46 19 -93 28 -75 13 -188 42 -229 59 -14 6 -15 -5 -8 -86 5 -51 6 -98 4
-104 -3 -7 -18 -11 -35 -10 -25 2 -28 -1 -21 -14 5 -9 16 -22 25 -30 14 -11
14 -14 -2 -26 -12 -9 -14 -13 -5 -14 7 0 11 -4 8 -9 -4 -5 6 -13 21 -19 l28
-9 -24 -8 c-15 -4 -26 -3 -31 5 -5 8 -10 8 -14 2 -6 -10 44 -34 79 -37 11 -1
36 -5 55 -10 19 -5 44 -8 55 -8 16 0 16 -1 3 -4 -31 -8 -19 -18 20 -17 49 0
62 -5 55 -22 -3 -8 0 -14 6 -14 6 0 11 5 11 10 0 6 7 10 15 10 8 0 15 -4 15
-10 0 -5 -5 -10 -11 -10 -6 0 -5 -6 3 -14 8 -7 29 -12 48 -11 43 3 61 -6 34
-16 -17 -7 -17 -8 4 -8 14 -1 26 -10 32 -23 5 -13 9 -17 9 -10 1 6 9 12 19 12
14 0 15 2 2 10 -13 8 -13 10 0 14 23 8 69 2 63 -8 -3 -4 10 -5 28 -1 l34 7
-23 -17 c-18 -13 -21 -20 -12 -29 8 -8 13 -7 21 4 8 12 9 11 7 -5 -3 -17 4
-20 40 -23 29 -2 42 -7 39 -15 -3 -8 10 -13 36 -14 22 -2 43 -7 46 -11 3 -5
38 -19 76 -31 87 -28 113 -42 65 -36 l-35 5 30 -10 c17 -6 38 -8 48 -6 9 2 15
0 11 -5 -3 -5 3 -9 13 -9 10 -1 34 -10 53 -21 28 -16 30 -19 10 -14 -14 3 -63
14 -110 25 -144 33 -138 32 -115 21 14 -7 15 -10 5 -11 -10 0 -6 -6 10 -16 14
-8 18 -13 10 -12 -8 1 -31 -2 -50 -7 -31 -7 -33 -9 -15 -17 14 -6 8 -7 -20 -3
l-40 5 30 -14 30 -15 -45 5 c-39 4 -36 2 25 -16 39 -11 79 -24 90 -29 11 -5
27 -12 35 -15 8 -3 2 -3 -15 0 -47 9 -209 14 -215 6 -3 -4 -32 -16 -65 -27
l-59 -20 39 -6 c22 -4 43 -5 47 -3 4 2 9 0 12 -5 9 -13 -12 -24 -53 -28 -56
-6 -65 -18 -14 -21 25 -1 51 2 57 7 6 5 31 9 55 8 l43 0 -36 -20 c-20 -12 -36
-25 -36 -29 0 -5 26 -6 58 -3 31 3 71 2 87 -3 l30 -9 -27 -5 c-16 -3 -28 -1
-28 3 0 5 -17 9 -37 8 l-38 -1 43 -15 c58 -20 48 -27 -14 -8 -57 17 -88 19
-79 5 3 -6 -4 -10 -16 -10 -13 0 -40 -12 -61 -26 -40 -28 -54 -46 -15 -22 62
41 63 41 83 29 18 -12 18 -12 -4 -8 -12 3 -22 1 -22 -3 0 -8 -61 -32 -90 -35
-8 -1 -31 -12 -50 -24 -32 -21 -28 -22 18 -4 16 6 16 6 0 -10 -9 -9 -24 -17
-34 -17 -23 0 -15 -6 19 -14 19 -4 26 -3 22 4 -4 6 5 10 23 10 15 0 48 6 73
14 24 8 83 26 130 42 78 25 92 26 140 16 l54 -11 -50 5 c-37 4 -73 -3 -140
-25 -85 -27 -88 -29 -58 -36 18 -4 30 -11 27 -16 -6 -10 21 -13 81 -9 22 1 43
8 48 15 4 7 25 16 47 20 37 6 50 18 33 28 -5 2 -1 2 7 0 8 -2 33 -7 57 -10 24
-3 43 -11 43 -16 0 -7 4 -7 12 1 7 7 20 12 29 12 10 0 19 6 22 13 3 9 7 9 17
0 9 -8 7 -13 -11 -19 -33 -10 131 -43 226 -45 66 -1 68 -2 28 -9 -23 -5 -52
-14 -63 -20 -12 -6 -24 -9 -28 -6 -3 3 0 6 6 6 7 0 12 5 12 10 0 6 -12 10 -27
10 -15 0 -66 10 -113 21 l-87 21 -36 -23 c-44 -29 -52 -55 -11 -37 17 8 28 9
32 1 7 -10 116 -26 182 -26 19 0 29 -2 23 -4 -31 -11 -9 -20 33 -15 28 3 45 1
41 -4 -3 -6 18 -6 57 -1 65 10 136 3 136 -13 0 -15 28 -12 63 7 18 9 35 16 40
15 4 -1 7 3 7 9 0 6 9 8 23 4 17 -5 19 -4 7 4 -13 10 -13 11 0 11 9 1 5 6 -10
14 -14 7 -82 21 -153 31 -70 10 -125 20 -123 22 2 3 63 -3 135 -12 72 -9 139
-14 148 -12 10 3 3 5 -15 6 -19 1 -31 5 -27 11 4 6 -9 11 -32 11 l-38 2 40 6
c23 4 46 2 55 -4 13 -9 13 -8 1 8 -8 9 -12 19 -10 20 2 2 17 11 33 21 22 14
26 20 15 27 -9 5 1 7 26 4 28 -4 34 -3 20 3 -19 9 -19 9 5 17 22 7 17 10 -35
20 -33 7 -98 18 -145 25 -47 6 -93 15 -104 19 -32 12 125 1 224 -16 132 -22
246 -21 290 3 100 53 109 55 189 44 116 -16 382 -40 421 -39 l35 2 -40 7 c-39
7 116 3 260 -6 43 -3 65 -1 57 4 -9 6 5 7 36 4 30 -2 52 0 56 7 10 15 79 14
95 -2 10 -10 12 -9 9 3 -2 10 3 14 14 12 10 -2 27 2 39 9 14 7 24 8 31 1 12
-12 35 -6 60 16 21 17 68 8 68 -13 0 -8 5 -15 11 -15 5 0 8 4 5 9 -3 5 12 11
35 13 22 2 43 0 45 -4 7 -10 24 0 24 13 0 7 -15 8 -39 4 -46 -8 -94 10 -51 18
224 44 366 92 397 134 7 9 21 17 30 18 10 1 28 7 40 13 16 9 79 11 230 7 203
-5 230 -7 343 -19 66 -7 202 -34 179 -35 -20 -1 -34 -31 -15 -31 7 0 19 6 25
14 18 22 99 28 164 12 45 -10 57 -11 57 -1 0 19 34 25 155 26 133 1 212 11
178 23 -13 4 -23 10 -24 14 0 4 -3 16 -6 27 -4 11 -7 52 -8 90 -2 39 -3 87 -4
107 -1 34 -5 39 -38 53 -87 37 -291 81 -463 101 -61 8 -76 8 -99 5 -6 0 -11
-16 -13 -33 l-4 -33 -14 30 c-18 37 -35 55 -51 55 -7 0 -2 -9 10 -19 26 -23
50 -135 36 -167 -8 -18 -9 -18 -12 4 -4 19 -6 20 -19 8 -8 -8 -14 -21 -14 -29
0 -8 -6 -20 -14 -26 -11 -9 -15 -4 -20 26 -3 21 -6 50 -6 64 0 25 -2 25 -107
38 -262 30 -478 123 -499 214 -6 25 -4 27 24 27 17 0 63 -7 102 -15 40 -8 178
-29 309 -46 130 -17 264 -36 299 -43 60 -12 63 -12 66 8 2 12 12 66 21 121 9
55 20 104 25 109 13 13 13 14 -4 -85 -28 -170 -28 -166 -5 -172 12 -3 27 -3
34 -1 13 5 25 77 25 155 0 25 3 67 6 93 l7 47 111 -5 c90 -5 104 -4 76 5 -30
10 -32 12 -15 19 l20 7 -20 5 c-19 5 -19 6 -1 7 19 1 19 2 2 14 -17 13 -19 40
-24 359 l-5 346 84 7 c46 4 102 5 124 3 l40 -3 -3 -385 c-2 -212 -6 -392 -8
-400 -3 -12 19 -20 104 -38 184 -40 378 -118 402 -161 5 -11 10 -62 11 -113 1
-115 8 -140 39 -149 14 -4 50 -14 80 -23 142 -42 529 -69 776 -55 168 10 326
33 397 60 29 11 41 17 27 14 -14 -3 -56 -12 -93 -20 -38 -8 -94 -15 -125 -15
l-57 0 3 50 c3 32 0 50 -7 50 -7 0 -11 25 -11 68 0 37 -4 72 -8 78 -4 7 -86
13 -237 17 -216 6 -377 22 -470 47 -22 6 -51 14 -64 18 -37 10 -36 29 1 46 18
7 42 21 53 29 16 13 5 12 -55 -5 -48 -13 -91 -18 -121 -15 -61 7 -156 51 -196
89 -52 50 -42 90 35 139 27 17 60 29 80 29 31 0 537 -119 603 -142 16 -6 32
-8 35 -5 3 3 -4 25 -15 50 -12 25 -21 54 -21 65 0 10 -6 27 -14 38 -12 15 -12
8 1 -39 9 -31 13 -60 10 -63 -6 -7 -132 24 -292 71 -44 13 -117 33 -162 45
-77 21 -107 39 -65 40 9 1 31 7 47 14 l30 14 -35 -2 c-33 -1 -34 1 -43 44 -5
25 -10 276 -10 559 l-2 515 100 17 c91 17 101 17 117 2 17 -15 18 -48 17 -477
-1 -254 -4 -505 -8 -558 l-6 -97 100 6 c55 3 102 8 105 12 3 3 3 322 0 709
l-5 702 32 11 c78 25 39 80 -123 171 -66 36 -128 69 -140 72 -22 7 -28 -4 -90
-139 -14 -33 -47 -103 -71 -155 -75 -159 -86 -184 -84 -197 1 -7 -3 -13 -8
-13 -13 0 -141 -265 -148 -307 -5 -26 -2 -33 11 -33 16 0 17 -34 14 -490 -3
-416 -5 -492 -18 -500 -8 -5 -18 -6 -22 -4 -4 3 -8 1 -8 -3 0 -5 -9 -9 -20 -9
-11 0 -20 5 -20 11 0 6 -3 7 -8 0 -19 -26 -75 -56 -100 -53 -24 3 -28 8 -33
54 -11 87 -20 684 -12 769 l8 80 35 6 c51 8 85 28 71 42 -14 14 -15 30 -1 22
14 -9 12 3 -6 34 -9 15 -36 38 -60 52 -24 13 -44 28 -44 32 0 5 -7 7 -15 3 -8
-3 -15 -1 -15 4 0 10 -56 43 -75 45 -5 1 -9 6 -8 12 1 6 -11 13 -26 16 -16 3
-42 20 -59 36 -32 32 -52 39 -52 19 0 -9 -3 -9 -11 -1 -7 7 -23 -13 -53 -71
-47 -90 -320 -539 -484 -796 -58 -91 -125 -198 -149 -237 -25 -40 -49 -75 -54
-79 -13 -8 54 115 109 201 25 39 58 90 73 115 16 25 33 51 39 58 6 7 9 16 6
20 -3 5 11 25 30 46 20 22 33 45 30 53 -3 8 -2 12 3 9 10 -7 25 21 25 49 1 11
7 20 14 20 6 0 12 4 11 9 0 5 3 12 9 15 14 10 25 64 11 55 -8 -4 -9 -3 -5 5 4
6 12 9 17 5 6 -3 17 2 24 12 17 23 19 34 5 34 -5 0 -10 -7 -10 -16 0 -8 -4
-12 -10 -9 -6 4 -4 15 6 30 9 14 20 23 24 20 4 -3 10 9 14 26 5 27 8 30 21 19
17 -14 19 -7 5 20 -8 15 -7 18 2 15 7 -3 21 9 31 27 15 26 20 29 29 17 8 -11
9 -10 4 4 -3 10 1 32 9 48 12 22 13 34 5 49 -8 16 -8 20 2 18 9 -2 14 11 16
40 2 27 8 42 17 42 7 0 16 5 18 10 3 6 4 5 3 -2 -2 -7 0 -20 4 -28 9 -20 -11
-65 -29 -65 -8 0 -17 -7 -19 -15 -4 -12 -3 -13 10 -3 8 7 18 10 21 7 3 -3 12
9 20 28 14 34 15 72 2 121 -6 23 -5 26 11 20 12 -4 15 -3 10 5 -4 7 -2 12 3
12 6 0 11 20 11 44 0 36 -5 49 -25 64 -17 14 -25 30 -25 52 0 18 -4 29 -10 25
-6 -4 -10 5 -10 20 0 16 4 24 10 20 8 -5 9 10 6 44 -2 28 0 67 5 87 8 28 7 41
-6 60 -8 13 -22 24 -30 24 -8 0 -15 4 -15 9 0 21 92 -15 278 -108 108 -54 206
-101 218 -105 18 -5 24 0 38 39 11 27 22 42 28 39 6 -4 8 -2 4 4 -3 6 5 32 19
58 14 26 25 53 25 60 0 7 7 20 16 28 9 9 11 16 4 16 -6 0 -38 -55 -71 -122
-33 -68 -57 -112 -53 -98 14 51 174 371 183 365 6 -3 15 3 20 14 16 30 12 40
-4 11 -8 -14 -14 -20 -15 -14 0 6 38 91 85 190 55 116 83 186 79 199 -4 14 -3
16 4 7 7 -11 12 -6 21 20 10 31 10 32 -5 13 -16 -19 -16 -19 -12 11 4 30 4 31
-46 33 -28 1 -55 7 -61 13 -7 7 -2 8 15 3 19 -5 22 -4 10 4 -8 6 -27 8 -42 5
-16 -3 -28 -1 -28 4 0 11 29 37 50 45 8 3 -4 4 -27 4 -23 -1 -38 -4 -32 -8 22
-13 -9 -19 -55 -10 -26 5 -46 5 -46 0 0 -14 -44 -5 -57 11 -10 12 -13 -8 -15
-100 l-2 -115 -6 90 c-3 50 -7 86 -8 80 -1 -5 -7 -3 -12 5 -8 12 -10 11 -10
-7 0 -23 -26 -26 -39 -4 -8 13 -41 5 -41 -10 0 -5 -11 -9 -24 -9 -13 0 -40 -7
-59 -15 -38 -16 -51 -9 -40 22 6 16 5 16 -11 4 -12 -10 -14 -17 -6 -25 17 -17
11 -30 -7 -15 -13 11 -17 11 -20 2 -3 -7 -9 -13 -15 -13 -6 0 2 16 16 35 33
43 26 45 -14 4 -16 -17 -27 -37 -23 -43 3 -6 2 -8 -2 -3 -5 4 -41 -26 -82 -65
l-73 -73 1 -98 c1 -54 -2 -101 -5 -104 -3 -4 -6 35 -6 85 0 51 -3 92 -7 92 -3
0 -31 -24 -62 -52 -84 -79 -133 -118 -148 -118 -7 0 -13 -6 -13 -14 0 -14 -29
-30 -38 -21 -3 3 0 5 7 5 7 0 10 4 7 9 -3 5 1 12 10 15 8 3 12 10 9 16 -4 6
-10 8 -14 5 -11 -6 -34 22 -59 75 l-22 45 25 3 c32 4 31 12 -8 41 -18 14 -27
19 -20 12 6 -8 9 -20 6 -28 -5 -12 -9 -11 -24 3 -17 15 -19 15 -25 0 -3 -9 -9
-14 -14 -11 -4 2 -27 -13 -51 -35 -24 -22 -55 -45 -69 -52 -14 -7 -35 -19 -46
-28 -131 -93 -315 -193 -459 -248 -217 -83 -497 -146 -599 -134 -44 5 -48 22
-5 22 16 0 28 4 25 9 -4 5 3 7 14 4 11 -3 33 0 48 6 16 7 44 13 63 15 19 1 53
8 77 15 24 7 52 9 62 6 12 -4 20 -2 20 5 0 6 5 8 10 5 6 -4 21 0 33 8 13 8 39
17 57 20 54 8 90 18 90 27 0 5 8 6 18 3 10 -2 40 7 67 21 26 14 52 26 57 26 5
0 28 9 51 21 23 12 53 23 67 25 41 6 328 168 377 213 7 6 17 11 23 11 5 0 10
4 10 9 0 4 19 21 43 37 41 28 193 177 270 266 69 79 155 197 192 266 21 37 40
69 44 72 23 18 166 309 214 436 40 104 93 288 102 354 3 25 10 77 15 115 5 39
9 75 10 80 6 27 -2 65 -15 79 -8 8 -15 26 -15 40 0 24 -4 26 -39 26 -28 0 -41
5 -43 15 -2 9 -11 -26 -21 -76z m-1232 -1826 c-59 -47 -281 -131 -464 -178
-204 -51 -297 -60 -581 -59 -146 1 -282 5 -303 10 -25 6 63 9 260 9 264 1 312
3 423 23 69 13 132 25 140 29 8 3 22 7 30 9 73 14 291 83 300 94 3 4 21 12 40
19 19 6 62 22 95 36 69 28 88 31 60 8z m-535 -993 c102 -61 147 -88 550 -338
187 -115 240 -155 227 -168 -7 -7 -61 10 -79 25 -32 27 -115 82 -130 87 -10 4
-18 10 -18 15 0 5 -7 9 -15 9 -8 0 -15 4 -15 10 0 5 -4 9 -9 7 -5 -1 -24 9
-42 23 -19 13 -40 25 -48 27 -8 1 -17 6 -20 11 -3 5 -18 15 -32 23 -24 13 -65
36 -179 105 -25 14 -47 27 -50 27 -3 0 -10 5 -16 11 -11 11 -96 69 -164 112
-19 12 -68 43 -107 68 -40 26 -80 49 -88 52 -8 3 -12 10 -9 15 3 5 0 9 -6 9
-6 0 -9 4 -5 10 3 5 38 -10 78 -34 40 -24 119 -71 177 -106z m-2413 -290 c143
-13 207 -35 211 -73 3 -22 -2 -29 -25 -38 -105 -41 -250 -59 -473 -58 l-155 0
40 36 c22 19 69 60 104 89 63 52 67 54 125 54 34 0 111 -5 173 -10z m2333
-816 c229 -19 430 -98 473 -187 18 -36 18 -38 -2 -81 -38 -78 -132 -120 -334
-151 -132 -19 -333 -36 -352 -29 -8 3 -17 14 -20 24 -3 9 -14 25 -24 34 -17
16 -18 13 -24 -66 -4 -46 -8 -128 -9 -183 -2 -96 -2 -94 -8 40 l-5 140 -123 7
c-213 12 -406 45 -478 83 -16 8 -35 15 -42 15 -26 0 -124 52 -115 61 5 5 72
13 149 18 l139 8 -155 2 c-106 1 -160 5 -168 13 -7 7 -12 8 -12 4 0 -5 -7 -3
-15 4 -8 7 -15 20 -15 30 0 46 105 122 175 126 92 5 194 14 223 19 26 4 50 8
138 20 21 3 188 -114 226 -157 22 -25 63 -31 79 -12 9 11 -6 32 -79 107 l-91
92 40 2 c27 2 38 -1 33 -8 -4 -8 0 -8 14 0 11 6 36 11 54 12 18 0 53 7 78 14
43 13 85 12 250 -1z m-2087 -167 c28 -19 61 -45 72 -58 11 -13 13 -19 5 -12
-8 6 -37 15 -63 21 -55 11 -75 4 -120 -41 -25 -26 -28 -37 -30 -100 -1 -40 2
-83 7 -97 8 -21 7 -23 -6 -13 -32 27 -59 102 -65 182 -6 86 5 131 39 155 28
20 98 3 161 -37z"/>
<path d="M4540 6040 c0 -29 -4 -40 -15 -40 -8 0 -15 6 -15 13 0 8 -4 7 -10 -3
-9 -13 -10 -13 -10 0 0 15 -39 14 -150 -4 -14 -2 -44 -4 -67 -5 -34 -1 -43 -5
-44 -18 0 -15 -2 -15 -9 2 l-9 20 -1 -20 c-1 -18 -2 -17 -11 4 -5 13 -11 22
-13 20 -2 -2 -6 -61 -10 -131 l-6 -128 190 0 190 0 0 165 c0 91 -2 165 -5 165
-3 0 -5 -18 -5 -40z"/>
<path d="M4150 5978 c0 -50 -15 -67 -27 -32 l-10 29 -7 -30 c-6 -22 -9 -26
-17 -14 -6 9 -9 10 -9 2 0 -8 -15 -13 -39 -13 -22 0 -42 5 -44 13 -4 8 -8 9
-14 2 -9 -13 -74 -33 -120 -38 -28 -3 -33 0 -36 22 -2 14 -5 -4 -6 -41 l-1
-68 -30 0 c-16 0 -33 0 -37 -1 -5 0 -10 7 -11 17 -3 10 0 14 7 9 6 -3 23 -8
36 -11 21 -4 25 -1 25 21 0 24 -9 30 -39 26 -8 -2 -10 2 -5 10 4 8 3 10 -4 5
-7 -4 -12 -15 -12 -24 0 -14 -2 -13 -13 3 -23 31 -38 9 -34 -51 3 -37 1 -54
-7 -51 -6 2 -10 16 -8 30 3 24 0 27 -27 27 -32 0 -37 6 -22 28 7 11 9 11 14
-2 9 -23 37 -20 37 4 0 12 -13 28 -30 39 -16 10 -27 21 -22 26 4 4 0 6 -9 2
-9 -3 -22 0 -29 6 -9 9 -10 3 -4 -28 3 -22 10 -47 15 -56 11 -21 0 -32 -17
-18 -8 6 -20 9 -27 6 -8 -3 -20 -1 -28 4 -11 6 -11 11 -2 20 10 10 9 17 -4 31
-9 10 -11 18 -6 18 14 0 24 26 17 43 -2 7 -13 13 -24 14 -17 2 -19 -4 -16 -35
2 -20 7 -53 11 -73 6 -32 9 -90 6 -128 -1 -12 -4 -12 -13 -3 -27 27 -37 13
-33 -48 2 -33 6 -63 9 -68 2 -4 1 -14 -5 -22 -7 -13 -9 -12 -9 1 0 9 -7 20
-16 23 -13 5 -14 9 -4 21 10 12 10 15 0 15 -10 0 -10 3 0 15 17 20 7 29 -36
31 -32 1 -35 -2 -32 -24 4 -33 28 -42 28 -10 0 18 2 20 10 8 5 -8 10 -30 10
-48 0 -18 4 -31 9 -28 5 3 11 -4 14 -15 3 -12 10 -18 16 -14 7 4 8 0 4 -11 -4
-12 -3 -15 5 -10 18 11 15 -23 -3 -41 -18 -18 -12 -31 7 -15 10 8 14 1 15 -31
2 -23 9 -46 17 -51 12 -8 11 -13 -6 -28 -20 -17 -20 -19 -5 -36 10 -10 17 -26
17 -36 0 -10 5 -14 12 -10 7 4 8 3 4 -4 -4 -6 -13 -9 -21 -5 -17 6 -19 -9 -6
-35 31 -59 52 -125 41 -132 -7 -4 1 -12 20 -20 23 -9 28 -15 18 -21 -11 -7
-10 -11 2 -19 8 -5 10 -10 3 -10 -6 0 -9 -9 -6 -20 3 -12 -2 -29 -12 -40 -17
-19 -17 -20 1 -20 16 0 16 -2 4 -10 -12 -7 -13 -15 -3 -40 13 -35 4 -39 -22
-10 -10 11 -22 17 -26 14 -5 -3 -9 0 -9 7 0 6 -9 1 -19 -12 -14 -17 -16 -26
-8 -31 9 -6 9 -8 0 -8 -7 0 -13 -7 -13 -16 0 -11 -6 -15 -20 -11 -16 4 -20 0
-20 -19 0 -13 -5 -24 -12 -24 -6 0 10 -21 38 -46 56 -53 157 -107 172 -92 6 6
19 4 35 -6 30 -20 141 -35 117 -16 -12 10 -12 11 5 5 38 -14 65 -17 91 -11 20
5 24 10 15 19 -22 22 -10 28 16 7 22 -17 35 -20 72 -14 25 4 49 13 54 20 4 7
13 11 20 8 7 -2 22 4 34 15 16 15 23 17 33 8 10 -10 12 -8 6 6 -18 48 -17 51
8 24 24 -26 30 -27 78 -22 124 13 131 16 58 25 l-55 7 58 1 c31 1 57 4 57 7 0
3 -9 48 -21 101 -11 52 -19 100 -16 107 2 6 13 -36 26 -93 12 -58 25 -108 29
-112 8 -8 99 8 124 22 10 6 26 10 36 10 10 0 23 5 30 12 13 13 16 101 5 186
l-6 53 -133 -3 c-85 -2 -134 1 -134 7 0 6 50 9 135 7 l135 -3 0 350 0 351
-190 0 -190 0 -2 -162 c-1 -147 -2 -155 -9 -78 -4 47 -7 120 -8 163 l-1 77
-87 0 c-101 0 -199 10 -185 19 6 3 69 4 142 1 73 -3 133 -3 135 0 6 9 6 250 0
250 -3 0 -5 -15 -5 -32z"/>
<path d="M5748 5793 l-66 -4 -7 -52 c-17 -131 -47 -297 -65 -349 -10 -32 -17
-58 -15 -58 5 0 80 101 80 108 1 12 24 48 25 37 1 -24 170 289 170 315 0 5
-12 9 -27 8 -16 -1 -58 -3 -95 -5z"/>
<path d="M8968 5173 c-45 -50 -156 -334 -172 -438 -6 -43 -7 -44 31 43 20 46
24 40 9 -13 -8 -25 -10 -45 -6 -45 5 0 10 6 12 12 3 7 13 -10 23 -37 23 -63
20 -59 60 -57 19 2 35 -2 35 -8 0 -5 4 -10 9 -10 5 0 7 9 4 20 -4 14 -1 20 8
18 8 -2 16 13 21 42 12 58 4 468 -9 481 -6 6 -15 3 -25 -8z"/>
<path d="M2715 5071 c56 -77 229 -238 329 -303 267 -177 671 -292 1005 -287
l86 2 -116 7 c-64 4 -124 10 -135 13 -10 4 -59 11 -108 17 -48 6 -114 19 -145
29 -31 10 -76 24 -101 31 -25 8 -49 17 -54 22 -6 4 -17 8 -26 8 -8 0 -47 13
-85 29 -39 15 -79 31 -90 35 -16 6 -17 9 -5 17 12 8 10 9 -7 4 -13 -3 -34 2
-55 15 -18 11 -27 20 -20 20 25 0 11 16 -25 29 -21 7 -64 33 -97 58 -32 25
-56 40 -52 35 3 -5 -1 -13 -10 -16 -8 -3 -12 -2 -9 4 3 6 3 10 -2 10 -4 0 -29
19 -55 43 -127 115 -120 107 -106 125 12 15 11 16 -4 3 -21 -16 -26 -13 -97
56 -24 24 -45 43 -47 43 -2 0 12 -22 31 -49z"/>
<path d="M4703 5022 l-133 -3 0 -88 c0 -67 4 -92 15 -101 12 -10 15 -10 15 2
0 8 11 15 26 16 15 1 40 9 57 17 16 8 33 13 37 10 4 -3 10 1 13 9 3 7 19 16
36 19 20 4 31 13 32 24 0 16 2 16 10 -2 8 -17 9 -16 6 7 -2 15 -1 25 3 23 4
-3 10 12 13 32 4 20 5 37 4 37 -1 1 -62 0 -134 -2z"/>
<path d="M4868 5018 c-22 -18 -32 -105 -13 -105 8 0 15 3 15 7 0 7 48 26 132
52 33 11 49 12 52 4 2 -6 5 -3 5 8 1 14 4 16 15 7 10 -8 16 -8 23 1 29 37 27
38 -94 38 -80 0 -124 -4 -135 -12z"/>
<path d="M9523 4813 c-61 -32 -109 -62 -106 -67 4 -5 -2 -7 -13 -3 -18 7 -18
7 0 -8 15 -11 16 -15 5 -15 -8 0 -21 6 -28 13 -10 8 -12 8 -7 0 4 -7 0 -12
-11 -11 -10 0 -36 -9 -58 -20 -22 -12 -36 -21 -31 -22 12 0 -34 -40 -46 -40
-5 0 -6 5 -2 11 4 7 1 10 -7 7 -8 -3 -13 -11 -11 -17 1 -7 -2 -10 -8 -6 -13 8
-42 -14 -34 -26 3 -5 -2 -9 -11 -9 -19 0 -35 -39 -35 -83 0 -24 6 -35 23 -42
25 -11 25 -39 -1 -68 -8 -9 -12 -20 -9 -24 4 -3 7 -1 7 6 0 7 4 10 10 6 9 -6
71 44 122 99 16 16 30 27 33 25 3 -3 -9 -18 -25 -34 -32 -31 -44 -90 -16 -79
11 4 13 0 9 -14 -7 -28 12 -35 47 -17 17 9 35 13 41 9 8 -4 9 1 4 17 -4 13 -4
21 0 17 5 -5 16 6 26 22 11 17 23 30 29 30 15 0 12 -17 -5 -24 -8 -3 -15 -15
-15 -26 0 -25 15 -26 24 -2 4 9 17 35 30 57 14 22 25 50 25 63 1 13 5 21 10
18 5 -3 11 3 14 13 3 14 0 17 -14 14 -11 -3 -19 -1 -19 5 0 5 9 12 20 15 28 7
25 23 -7 33 -16 4 -31 8 -35 8 -3 1 -33 -25 -66 -56 -33 -32 -63 -58 -67 -58
-4 0 20 26 52 58 32 31 81 81 107 110 47 50 48 53 30 67 -18 14 -18 14 -1 15
10 0 16 4 13 9 -3 5 10 12 28 15 19 4 36 10 38 14 2 4 19 17 38 30 63 39 17
23 -97 -35z"/>
<path d="M8226 4715 c-14 -19 -21 -22 -27 -13 -6 9 -12 3 -20 -19 -6 -18 -15
-31 -19 -28 -4 3 -6 -4 -3 -15 4 -13 -1 -26 -12 -34 -11 -8 -16 -20 -12 -30 4
-9 2 -16 -3 -16 -6 0 -10 6 -10 13 0 6 -5 4 -11 -6 -6 -9 -14 -15 -20 -12 -5
4 -9 -1 -9 -10 0 -9 -4 -14 -9 -11 -5 4 -7 -4 -4 -16 4 -19 3 -20 -7 -8 -10
12 -11 11 -7 -7 3 -13 1 -23 -5 -23 -6 0 -8 -7 -4 -15 3 -8 0 -14 -7 -12 -7 1
-12 -6 -12 -15 0 -10 -5 -22 -11 -28 -20 -20 15 -117 61 -172 20 -24 33 -72
40 -150 1 -10 3 -20 6 -22 3 -3 6 48 7 112 3 117 16 239 26 250 3 3 6 -5 6
-17 0 -19 4 -22 24 -17 14 3 26 1 28 -5 2 -6 12 6 22 27 11 22 23 47 27 56 5
10 9 25 9 33 0 9 7 18 15 21 11 5 15 22 15 65 0 45 -3 57 -13 53 -10 -3 -18
11 -28 46 l-14 51 -19 -26z"/>
<path d="M7569 4669 c0 -2 -2 -15 -5 -28 -2 -13 1 -30 7 -37 6 -7 8 -26 4 -42
-7 -36 10 -86 27 -77 7 4 -3 -7 -22 -23 -19 -17 -43 -38 -52 -46 -10 -9 -21
-17 -25 -18 -5 -2 -7 -6 -5 -10 1 -5 -2 -8 -7 -8 -4 0 -5 -12 -2 -27 3 -16 5
-353 3 -749 l-3 -721 81 -7 c44 -4 84 -4 90 -1 13 8 12 364 -1 445 -27 160
-54 1200 -34 1290 6 29 5 31 -16 28 -13 -2 -24 2 -24 9 0 11 -14 31 -16 22z"/>
<path d="M1921 4211 c-1 -93 -17 -161 -38 -161 -7 0 -13 -5 -13 -11 0 -6 -7
-8 -15 -5 -11 4 -19 -3 -25 -19 -5 -14 -12 -25 -14 -25 -3 0 -2 7 1 17 4 10 2
14 -4 10 -14 -9 -23 15 -24 66 -2 65 -18 -72 -27 -228 l-8 -130 -12 60 c-18
83 -22 92 -30 78 -9 -14 -26 -5 -35 17 -4 12 -6 11 -6 -2 -1 -10 -4 -18 -7
-18 -4 0 -13 8 -21 18 -14 16 -14 16 -9 -1 3 -10 6 -25 6 -33 0 -9 5 -12 12
-8 6 4 8 3 5 -3 -4 -6 11 -53 33 -106 51 -125 69 -159 80 -152 6 4 10 -2 10
-11 0 -16 2 -15 23 3 12 11 33 24 47 28 48 13 212 109 236 138 17 20 24 24 24
12 0 -13 9 -10 44 15 52 38 64 81 40 139 -8 20 -14 54 -13 76 1 22 1 56 0 75
-2 46 -16 22 -25 -43 -12 -82 -23 -43 -29 104 -3 81 -10 146 -16 152 -8 8 -11
8 -11 -1 0 -7 -9 -21 -20 -32 -11 -11 -20 -17 -20 -13 0 4 -4 3 -10 -3 -7 -7
-2 -48 14 -124 27 -129 50 -290 42 -297 -6 -7 -12 20 -26 117 -12 83 -41 190
-72 262 -19 44 -34 55 -50 34 -3 -5 -13 13 -21 40 l-15 49 -1 -84z"/>
<path d="M2368 4082 c-10 -2 -18 -8 -18 -13 0 -5 -7 -9 -15 -9 -11 0 -14 -7
-11 -25 3 -16 1 -23 -5 -19 -7 4 -9 -20 -8 -69 l3 -75 29 14 c50 27 78 56 71
77 -4 11 -2 17 3 14 6 -4 11 19 12 55 2 57 0 60 -16 47 -9 -8 -14 -9 -10 -3 6
11 -4 13 -35 6z"/>
<path d="M1100 4032 c0 -3 8 -15 18 -26 10 -12 49 -70 86 -131 38 -60 85 -130
105 -155 19 -25 28 -39 19 -32 -10 8 -19 9 -22 3 -4 -5 3 -13 15 -16 20 -7 76
-41 143 -88 28 -19 28 -11 1 23 -6 8 -20 38 -29 65 -47 130 -67 164 -115 192
-25 15 -51 26 -56 25 -6 -1 -45 31 -88 72 -42 40 -77 71 -77 68z"/>
<path d="M1041 3957 c-1 -11 -7 -17 -17 -15 -10 2 -19 -3 -21 -9 -3 -7 2 -13
9 -13 9 0 14 -14 15 -40 1 -22 -3 -40 -8 -40 -6 0 -7 5 -4 10 6 9 -17 40 -29
40 -10 0 -7 -89 3 -108 5 -9 28 -55 51 -102 81 -164 222 -381 256 -394 9 -4
17 -5 18 -4 1 2 7 13 14 25 14 27 16 45 2 23 -8 -12 -10 -11 -10 8 0 13 -6 22
-16 22 -16 0 -56 43 -54 56 1 4 -5 11 -14 16 -9 5 -16 16 -16 23 0 8 -4 15 -9
15 -9 0 -50 64 -80 123 -7 15 -17 27 -21 27 -4 0 -15 18 -24 40 -8 22 -31 61
-49 87 -33 46 -63 119 -34 83 16 -22 73 -44 88 -34 8 5 9 3 4 -6 -6 -10 -4
-12 8 -7 9 3 16 2 14 -4 -2 -12 162 -81 178 -75 5 2 2 5 -7 5 -10 1 -24 14
-33 30 -8 16 -18 31 -23 33 -4 1 -20 24 -35 50 -15 26 -33 53 -40 60 -6 7 -18
26 -26 41 -10 18 -20 26 -30 22 -8 -3 -18 0 -23 7 -6 10 -10 10 -17 -1 -7 -11
-10 -10 -14 5 -4 17 -5 17 -6 1z"/>
<path d="M8327 3715 c-8 -136 -27 -243 -51 -277 -13 -18 -15 -18 -24 -2 -7 13
-15 -6 -32 -82 -13 -55 -27 -106 -32 -114 -7 -11 -8 -8 -4 10 29 127 49 270
37 268 -20 -2 -30 4 -26 15 7 17 -10 72 -22 70 -5 -1 -10 16 -11 38 -2 21 2
39 7 39 6 0 8 7 5 15 -4 8 -10 12 -15 9 -5 -3 -9 6 -9 20 0 48 -18 35 -51 -39
-18 -40 -35 -72 -37 -71 -2 2 13 45 33 96 20 50 34 94 31 97 -3 4 -6 1 -6 -6
0 -16 -62 -121 -71 -121 -4 0 -5 9 -2 20 3 11 0 20 -6 20 -11 0 -15 -19 -12
-50 2 -12 0 -12 -7 -1 -14 19 -25 -3 -16 -32 6 -19 5 -20 -9 -9 -9 7 -19 27
-22 43 -8 36 -24 37 -59 3 -26 -27 -26 -28 -26 -179 0 -83 -3 -260 -7 -392
l-6 -241 24 -7 c13 -4 39 -9 59 -11 50 -4 115 -28 113 -42 -2 -6 7 -16 18 -23
17 -9 24 -8 38 6 15 17 15 17 -1 12 -10 -3 -20 -2 -23 3 -4 6 0 10 7 10 10 0
9 3 -2 11 -12 9 -12 10 3 5 10 -3 28 -6 38 -6 11 0 17 -4 14 -10 -7 -11 52
-12 100 -1 25 6 20 8 -30 12 -58 5 -155 37 -155 51 0 4 17 19 37 33 49 33 108
33 238 0 55 -14 143 -30 195 -35 152 -16 183 -21 225 -42 53 -27 73 -46 96
-90 11 -21 26 -38 34 -38 18 0 20 -16 3 -23 -7 -3 1 -5 17 -6 17 0 39 5 50 10
l20 9 -20 -1 c-36 -2 -46 1 -40 11 3 6 16 11 28 11 17 1 18 2 5 6 -10 2 -18
13 -18 24 0 10 -7 19 -15 19 -8 0 -15 5 -15 10 0 6 4 10 8 10 4 0 9 13 10 30
2 23 -1 28 -13 24 -11 -5 -15 1 -15 20 0 18 6 26 18 27 10 0 12 3 5 6 -7 2
-13 11 -13 18 0 14 -27 20 -140 30 -98 9 -233 34 -279 50 -23 8 -49 11 -58 8
-9 -4 -21 1 -28 10 -6 9 -52 28 -101 42 -153 44 -194 65 -173 92 15 18 202 17
424 -2 94 -8 174 -15 178 -15 5 0 7 -10 5 -22 -2 -13 -9 -22 -16 -20 -6 1 -12
-2 -12 -7 0 -10 117 -14 132 -5 6 4 54 7 109 8 58 0 103 6 109 12 9 9 -25 14
-135 19 -144 7 -146 8 -118 25 31 19 60 50 47 50 -5 0 -2 5 6 10 9 6 10 10 3
10 -7 0 -17 9 -22 19 -16 30 -24 143 -13 183 9 31 8 38 -6 41 -12 3 -9 5 6 6
16 1 22 6 20 19 -2 11 3 17 15 16 24 -2 22 1 -18 26 -33 20 -48 50 -25 50 6 0
10 5 10 11 0 6 13 41 29 77 33 76 47 142 31 142 -5 0 -10 -7 -10 -15 0 -19
-24 -19 -54 0 -20 14 -29 13 -89 -8 -62 -22 -121 -62 -113 -76 2 -3 -7 -7 -21
-7 -15 -1 -44 -22 -75 -53 -28 -28 -52 -51 -54 -51 -2 0 -17 -13 -32 -28 -15
-15 -24 -23 -19 -18 4 6 7 14 7 20 0 5 -19 -17 -42 -50 -23 -32 -43 -61 -45
-63 -2 -2 -6 -2 -9 2 -10 10 175 259 226 304 14 12 20 23 14 23 -7 0 -15 -7
-18 -15 -4 -12 -10 -13 -25 -5 -18 9 -51 5 -51 -7 0 -3 8 -12 18 -20 15 -13
15 -13 -6 -3 -12 6 -22 16 -21 23 3 27 -2 36 -16 31 -8 -4 -15 -1 -15 5 0 27
-29 7 -39 -26 l-11 -38 5 45 c2 25 7 55 11 65 4 13 -1 10 -13 -8 -11 -15 -22
-25 -25 -22 -3 3 -8 -9 -12 -26 -8 -42 -19 -30 -26 29 -4 35 -7 14 -13 -83z"/>
<path d="M1090 3739 c14 -11 33 -26 42 -34 9 -7 27 -19 40 -26 31 -16 186
-133 231 -174 49 -45 141 -86 121 -53 -4 7 -3 8 5 4 8 -5 9 -12 2 -20 -7 -8
-3 -11 17 -10 14 0 28 6 29 11 6 17 -104 126 -118 117 -7 -4 -10 -3 -6 3 5 8
-214 123 -234 123 -3 0 -39 18 -80 40 -41 22 -63 31 -49 19z"/>
<path d="M8210 2593 c0 -33 -4 -53 -12 -53 -6 0 -3 -9 7 -20 11 -12 13 -20 6
-20 -7 0 -9 -4 -6 -10 3 -5 1 -10 -6 -10 -8 0 -10 -20 -7 -70 3 -39 8 -73 12
-77 10 -11 300 -16 382 -7 l79 9 -69 5 c-59 4 -70 8 -73 25 -6 34 -8 179 -3
194 4 11 -9 17 -50 23 -128 18 -246 42 -252 52 -4 6 -8 -13 -8 -41z"/>
<path d="M289 1861 c11 -7 6 -12 -20 -19 -24 -7 -28 -10 -12 -11 25 -1 43 -21
19 -21 -9 0 -25 9 -36 20 -25 25 -30 25 -146 -2 -91 -21 -94 -22 -94 -49 0
-18 7 -32 20 -39 11 -6 20 -7 20 -3 0 4 4 3 8 -3 14 -23 185 -96 231 -99 43
-3 100 7 146 25 11 5 38 11 60 15 22 3 69 12 105 20 36 8 97 22 135 31 39 8
90 19 115 23 25 4 55 13 68 20 13 7 29 10 36 8 7 -3 19 -1 27 4 11 7 8 9 -9 9
-13 0 -20 4 -17 10 4 7 13 6 27 -1 19 -10 81 -5 103 9 5 4 17 7 25 7 37 1 100
18 95 25 -3 4 5 6 17 3 18 -4 20 -3 12 7 -20 21 -184 11 -184 -11 0 -5 5 -9
12 -9 6 0 9 -3 5 -6 -3 -3 -15 -3 -28 1 -17 6 -19 9 -8 16 23 15 -29 10 -111
-10 -92 -22 -196 -71 -178 -83 8 -5 1 -6 -16 -2 -19 4 -27 3 -23 -3 10 -16
-111 -39 -126 -24 -6 6 -26 11 -44 11 -18 0 -33 5 -33 12 0 6 -3 8 -6 5 -4 -3
-16 0 -27 8 -14 10 -26 11 -37 5 -24 -13 -35 26 -12 40 16 9 16 9 0 10 -10 0
-18 -5 -18 -11 0 -7 -9 -9 -21 -6 -11 3 -39 -1 -61 -9 -47 -16 -88 -18 -88 -4
0 5 12 12 28 16 60 13 64 15 52 29 -8 9 -6 14 6 19 10 4 21 1 25 -6 6 -9 11
-9 23 1 18 15 11 37 -7 23 -7 -5 -21 -6 -32 -1 -27 11 -43 11 -26 0z"/>
<path d="M1220 1819 c-247 -57 -316 -73 -380 -88 -41 -11 -109 -26 -150 -34
-217 -45 -370 -81 -370 -87 0 -8 187 -78 330 -125 47 -16 94 -32 105 -36 11
-5 43 -15 70 -23 156 -46 197 -60 187 -64 -25 -8 -594 176 -717 233 -16 7 -32
12 -36 9 -19 -11 -190 -51 -194 -44 -2 4 32 15 75 26 74 17 78 20 57 32 -22
13 -22 13 3 7 l25 -5 -25 11 c-14 6 -60 29 -102 50 -42 22 -82 39 -87 39 -8 0
-11 -266 -11 -860 l0 -860 5120 0 5120 0 0 655 0 655 -79 0 c-44 0 -81 4 -83
9 -1 5 -38 12 -80 16 l-78 7 0 -31 c0 -30 -2 -31 -40 -31 -29 0 -40 -4 -40
-15 0 -11 -11 -15 -40 -15 -22 0 -40 -4 -40 -10 0 -6 -33 -10 -80 -10 -67 0
-80 -3 -80 -16 0 -14 -9 -16 -57 -12 -32 3 -50 3 -40 1 9 -3 17 -11 17 -19 0
-11 -15 -14 -62 -13 -44 1 -56 3 -38 8 16 5 -6 8 -57 8 -46 0 -80 -4 -77 -8 3
-5 -15 -9 -40 -9 -25 0 -46 5 -46 10 0 6 -18 10 -40 10 -33 0 -40 -3 -40 -20
0 -18 -7 -20 -80 -20 -64 0 -80 -3 -80 -15 0 -11 12 -15 43 -17 l42 -1 -40 -4
c-22 -3 -43 -9 -46 -15 -8 -12 -159 0 -159 13 0 5 -4 9 -10 9 -5 0 -10 -17
-10 -37 0 -22 -10 -54 -23 -77 -30 -49 -101 -76 -199 -76 -72 0 -85 8 -79 49
3 24 2 24 -60 18 -34 -4 -70 -7 -80 -7 -11 0 -19 -7 -19 -15 0 -12 -16 -15
-80 -15 -47 0 -80 -4 -80 -10 0 -5 -18 -10 -40 -10 -30 0 -40 -4 -40 -16 0
-14 -10 -15 -79 -9 -72 6 -81 5 -100 -14 -17 -17 -32 -21 -76 -19 -30 1 -49 6
-42 10 18 11 0 10 -23 -2 -11 -6 -28 -14 -39 -19 -10 -6 -29 -8 -42 -5 -13 2
-18 2 -11 -2 19 -9 14 -24 -9 -24 -11 0 -17 5 -14 10 4 6 -5 10 -21 10 -32 0
-31 -1 21 -29 22 -11 34 -21 26 -21 -8 0 -3 -8 10 -19 13 -11 20 -23 16 -27
-4 -5 -11 -4 -15 2 -4 6 -16 14 -26 17 -10 4 -16 10 -13 14 4 3 -5 12 -20 20
-29 15 -83 9 -95 -11 -5 -6 -8 -2 -8 12 0 19 5 22 37 22 49 0 39 6 -22 13 -34
4 -44 3 -30 -3 13 -6 0 -8 -40 -4 -128 12 -260 21 -264 17 -2 -1 10 -6 28 -9
44 -9 47 -21 6 -28 -19 -4 -35 -11 -35 -16 0 -6 -18 -10 -40 -10 -29 0 -40 4
-40 15 0 11 -11 15 -42 14 -24 -1 -33 -4 -20 -6 12 -2 22 -9 22 -14 0 -13
-487 -12 -495 1 -3 5 -11 10 -16 10 -6 0 -7 -5 -4 -10 4 -6 -25 -10 -79 -10
-51 0 -86 4 -86 10 0 6 -18 10 -40 10 -35 0 -40 -3 -40 -22 0 -19 -4 -17 -22
15 -12 20 -26 37 -30 37 -10 0 -11 -14 -1 -24 9 -8 33 -77 33 -93 0 -7 -4 -13
-10 -13 -5 0 -10 9 -10 20 0 11 -4 20 -9 20 -5 0 -18 17 -28 37 -21 42 -43 55
-43 24 0 -27 -17 -27 -25 0 -5 16 -9 18 -15 9 -6 -10 -15 -9 -38 6 -27 17 -42
18 -129 13 -54 -4 -105 -10 -114 -13 -10 -4 -23 0 -33 9 -14 14 -16 14 -16 2
0 -9 -3 -24 -6 -34 -4 -12 -3 -14 3 -6 6 9 9 -5 9 -38 0 -29 5 -54 13 -58 9
-6 9 -10 -2 -20 -16 -13 -27 3 -27 40 0 13 -4 18 -12 13 -6 -4 -8 -3 -4 4 3 6
-1 41 -10 78 l-17 66 -36 -6 c-20 -3 -69 -6 -108 -6 l-73 0 0 -42 -1 -43 -21
43 c-24 49 -35 53 -41 15 l-4 -28 -2 28 c0 15 -4 27 -9 27 -12 0 8 -254 21
-262 7 -4 104 -8 216 -8 112 0 202 -2 200 -4 -3 -3 -103 -6 -224 -7 l-220 -1
-12 93 c-6 52 -12 104 -12 117 -1 16 -7 22 -23 22 -21 1 -22 2 -5 14 9 7 17
15 17 17 0 2 -22 4 -50 4 -45 0 -50 -2 -50 -22 0 -13 5 -23 11 -23 5 0 7 -4 4
-10 -10 -17 -25 -11 -25 10 0 11 -6 20 -12 20 -10 0 -10 2 0 9 10 6 10 11 -3
21 -15 13 -16 6 -14 -85 2 -66 0 -100 -8 -102 -7 -3 -13 37 -18 124 -7 130
-13 178 -14 111 l-1 -38 -154 0 -153 0 -7 -61 c-3 -34 -6 -79 -6 -99 0 -26 -5
-40 -16 -44 -14 -5 -15 2 -9 63 5 47 3 82 -6 108 -7 21 -14 32 -16 26 -6 -17
-93 -18 -93 -1 0 6 -2 9 -5 7 -4 -5 -14 -61 -34 -201 l-7 -48 50 -1 c28 -1
101 -5 161 -9 86 -6 70 -7 -75 -4 -199 5 -506 22 -530 30 -9 3 -11 7 -4 12 17
11 47 110 39 130 -3 9 -3 13 1 9 5 -4 14 12 21 35 15 51 16 69 3 48 -6 -9 -10
-10 -10 -3 0 6 -12 13 -27 15 -35 4 -43 28 -9 28 16 0 26 6 26 14 0 15 -35 11
-57 -6 -7 -5 -17 -7 -22 -3 -6 3 -13 -7 -17 -22 -3 -15 -16 -55 -29 -88 -12
-33 -25 -68 -28 -77 -6 -18 -27 -25 -27 -10 0 5 13 44 28 88 27 75 35 156 16
173 -4 3 -4 -4 -1 -16 3 -13 1 -26 -4 -29 -5 -3 -7 -17 -4 -32 5 -27 5 -27 -5
-3 -6 14 -8 31 -6 38 4 8 -3 13 -19 13 -13 0 -28 7 -33 16 -6 11 -30 16 -99
18 -50 2 -96 6 -102 10 -7 5 -8 1 -4 -10 4 -12 3 -15 -5 -10 -8 5 -10 1 -5
-10 5 -12 3 -15 -6 -9 -10 5 -12 2 -7 -11 3 -11 1 -26 -5 -34 -8 -12 -9 -9 -4
10 6 24 6 24 -10 5 -8 -11 -13 -25 -10 -33 2 -7 0 -10 -5 -7 -9 5 -12 -1 -9
-21 0 -4 -3 -10 -8 -13 -5 -3 -20 -28 -33 -56 -13 -27 -30 -58 -38 -67 -21
-25 -6 -38 46 -39 57 -1 247 -26 212 -28 -25 -1 -68 3 -385 40 -245 28 -376
47 -340 48 17 0 98 -8 180 -18 83 -11 172 -21 200 -22 45 -3 50 -1 56 21 4 14
8 21 8 15 1 -5 6 -2 12 8 5 9 7 22 3 29 -5 7 -3 8 6 3 10 -6 12 -4 7 9 -4 10
-3 15 3 11 10 -6 11 -5 15 30 1 11 5 30 9 42 4 12 2 24 -4 28 -6 4 2 19 20 38
l30 32 -27 7 c-14 4 -30 12 -34 19 -9 15 -128 16 -156 0 -12 -6 -29 -11 -38
-11 -12 0 -14 4 -5 19 15 29 13 32 -14 19 -20 -8 -28 -7 -41 6 -21 20 -26 20
-18 -1 5 -12 3 -14 -8 -8 -8 4 -11 4 -6 0 9 -10 -21 -45 -39 -45 -7 0 -16 -4
-19 -10 -4 -6 1 -7 12 -4 15 5 15 4 3 -4 -8 -6 -17 -9 -21 -6 -4 2 -10 -5 -14
-16 -3 -11 -11 -20 -17 -20 -6 0 -8 -3 -5 -7 4 -3 -3 -11 -16 -18 -12 -6 -21
-17 -19 -24 1 -7 -2 -10 -8 -6 -5 3 -10 0 -10 -7 0 -7 -18 -28 -40 -47 -22
-19 -37 -38 -34 -43 3 -5 -3 -12 -15 -15 -12 -3 -18 -10 -14 -17 3 -6 3 -8 -1
-5 -4 4 -31 -19 -61 -50 -68 -70 -72 -55 -5 18 28 29 50 54 50 55 0 1 -12 3
-27 4 -56 4 -366 54 -387 61 -41 16 -85 7 -119 -24 -63 -58 -77 -68 -77 -56 0
6 11 21 25 33 13 11 22 26 18 31 -3 6 -1 7 4 4 6 -4 16 0 23 8 10 12 8 15 -12
19 -12 2 -66 13 -118 25 -235 51 -291 54 -465 24 -77 -14 -153 -26 -168 -29
-15 -2 -35 -8 -45 -13 -36 -19 -108 -23 -145 -7 -43 17 -45 28 -16 57 17 17
19 23 8 31 -10 6 -6 7 11 3 18 -5 22 -4 14 4 -6 7 -8 33 -4 67 3 30 3 57 -2
60 -4 3 -8 -1 -8 -8 0 -9 -3 -9 -10 2 -6 10 -4 22 5 37 20 30 20 30 -27 41
-24 6 -78 21 -120 34 -68 21 -74 24 -55 34 12 7 47 24 77 39 53 27 54 28 30
38 -14 5 -41 9 -61 8 -21 -1 -40 3 -44 9 -5 9 -1 10 16 6 19 -6 21 -5 8 3 -29
18 -197 -48 -182 -72 5 -9 4 -9 -8 0 -12 9 -29 7 -84 -13 -96 -35 -109 -38
-103 -28 4 5 36 20 72 34 36 13 61 27 56 30 -5 3 5 6 23 6 41 1 113 36 109 54
-2 10 0 11 11 2 20 -17 163 39 159 62 -2 9 2 16 8 16 5 0 10 -5 10 -11 0 -5 5
-7 11 -3 20 12 -12 23 -49 17 -25 -5 -33 -3 -28 5 4 7 14 12 23 12 8 0 26 9
40 20 17 13 35 18 56 15 29 -4 29 -4 7 4 -14 5 -19 9 -12 10 6 1 12 5 12 10 0
5 -22 0 -49 -12 -28 -11 -47 -25 -44 -30 3 -6 2 -7 -4 -4 -11 7 -96 -21 -129
-42 -17 -11 -17 -12 -1 -7 46 15 67 17 67 9 0 -5 -8 -10 -17 -10 -10 -1 -34
-4 -53 -6 -19 -2 -43 -7 -52 -11 -9 -4 -27 -6 -40 -4 -19 4 -15 8 27 27 94 42
92 41 60 34 -16 -3 -27 -2 -23 2 6 6 41 12 86 14 7 1 10 6 7 11 -3 6 0 10 8
10 23 0 70 27 59 34 -6 3 -18 3 -29 -1 -16 -6 -16 -5 -4 10 9 11 10 17 2 17
-6 0 -11 -5 -11 -11 0 -6 -7 -9 -15 -6 -8 4 -17 2 -20 -3 -3 -5 0 -10 7 -13 7
-2 4 -3 -7 -1 -11 2 -37 -2 -59 -8 -31 -10 -35 -13 -20 -19 12 -4 4 -6 -21 -6
-22 0 -58 -8 -80 -18 -22 -10 -46 -19 -52 -21 -28 -6 -160 -58 -190 -75 -30
-17 -36 -17 -84 -3 -63 19 -59 29 5 13 32 -8 50 -8 59 -1 6 6 35 19 62 30 28
11 73 30 100 43 28 12 58 21 69 20 12 -2 16 1 11 9 -5 8 -3 11 6 8 18 -6 64
10 162 56 43 20 82 36 87 36 12 0 120 58 140 75 8 7 29 20 45 29 17 10 22 15
13 12 -11 -3 -17 0 -15 7 1 6 -9 13 -23 14 -23 2 -23 2 -5 -7 14 -7 -4 -8 -60
-5 -46 3 -72 2 -61 -3 17 -7 14 -11 -23 -29 -44 -22 -86 -20 -77 3 7 18 -28
18 -46 0 -8 -7 -25 -17 -38 -20 -19 -6 -16 -2 10 14 43 27 45 29 38 35 -3 3
-30 -5 -59 -18 -30 -13 -72 -31 -94 -39 -22 -9 -63 -25 -92 -37 -88 -36 -105
-23 -19 14 44 19 85 35 93 35 7 0 13 4 13 8 0 5 18 14 40 21 21 6 42 17 46 23
5 8 2 9 -12 3 -10 -4 -36 -10 -56 -13 -21 -2 -35 -8 -32 -13 8 -14 -20 -11
-34 3 -10 10 -17 10 -33 -1 -18 -10 -20 -10 -17 1 3 7 13 15 24 16 33 7 37 20
5 17 -17 -1 -34 -5 -38 -9 -3 -3 -18 -6 -32 -6 -24 1 -25 1 -6 12 19 11 19 11
0 19 -18 7 -17 8 5 9 23 2 23 3 -5 9 -16 4 -32 4 -35 0 -3 -3 -23 -1 -45 5
l-40 12 47 13 c26 7 45 18 42 22 -3 5 -10 7 -15 4 -5 -4 -17 -1 -26 4 -15 8
-10 11 22 11 22 0 51 7 65 15 27 16 22 16 -30 4z"/>
<path d="M3170 1461 c0 -6 -10 -13 -23 -16 -13 -4 -24 -12 -24 -19 0 -10 8
-10 38 2 33 13 52 12 185 -6 93 -12 153 -16 161 -10 7 6 13 4 15 -4 4 -10 32
-13 109 -12 75 0 90 -1 54 -6 -38 -5 -22 -7 65 -8 l115 -2 -38 -31 c-20 -17
-34 -35 -31 -41 3 -5 13 0 21 11 8 12 19 19 24 16 5 -4 9 0 9 8 0 7 11 19 25
25 14 6 25 17 25 24 0 9 -3 9 -12 0 -17 -17 -31 -15 -24 3 3 8 2 14 -2 13 -4
-1 -23 2 -42 5 -54 10 -250 14 -250 5 0 -5 12 -9 28 -9 25 -2 25 -2 3 -6 -13
-3 -28 0 -34 6 -6 6 -19 11 -30 11 -10 0 -16 4 -13 8 2 4 -3 8 -12 8 -9 1 -51
4 -92 8 -41 4 -110 9 -153 11 -42 2 -82 7 -87 10 -6 3 -10 2 -10 -4z"/>
<path d="M3480 1357 l-25 -32 30 19 c30 19 30 19 15 0 -8 -10 -19 -23 -25 -27
-6 -5 -1 -6 10 -1 33 12 109 13 156 0 54 -14 71 -24 63 -38 -4 -7 -2 -8 4 -4
7 4 12 13 12 21 0 8 5 17 12 21 8 5 9 0 5 -15 -5 -22 -5 -22 13 -6 11 10 17
22 14 27 -3 4 -2 7 3 6 10 -3 53 24 53 34 0 4 -24 7 -54 7 -55 -1 -220 10
-246 16 -8 2 -26 -11 -40 -28z"/>
<path d="M1725 1234 c-16 -9 -45 -21 -63 -28 -33 -12 -33 -12 55 -34 94 -24
133 -28 133 -13 0 5 -8 8 -17 6 -10 -1 -12 0 -5 2 6 3 12 9 12 16 0 18 29 -27
30 -45 0 -22 9 -22 61 -2 28 12 37 19 28 25 -20 12 -4 21 42 25 22 1 44 5 47
8 3 3 -21 4 -54 1 -40 -3 -54 -2 -44 5 13 8 12 10 -3 10 -10 0 -15 5 -12 10 3
6 2 10 -3 10 -5 0 -12 -9 -15 -20 -3 -11 -1 -20 5 -20 5 0 7 -4 3 -10 -3 -5
-12 -7 -20 -3 -8 3 -15 0 -15 -6 0 -6 12 -11 28 -12 27 0 27 0 4 -10 -34 -13
-43 -3 -38 40 2 24 0 38 -8 39 -6 0 -21 4 -33 7 -13 4 -23 3 -23 -2 0 -5 -16
-7 -35 -5 -19 2 -32 8 -29 13 7 12 4 11 -31 -7z"/>
<path d="M2106 1192 c-3 -5 -23 -14 -45 -22 -42 -14 -51 -24 -28 -34 6 -3 3
-4 -9 -1 -11 3 -36 -2 -54 -12 -33 -16 -33 -16 -10 -25 13 -5 30 -6 37 -3 9 3
11 0 7 -6 -4 -8 4 -9 27 -5 22 4 27 3 15 -2 -19 -8 -18 -9 5 -15 13 -4 40 -7
59 -6 31 0 32 1 13 9 -33 13 -28 23 7 15 19 -4 30 -3 30 4 0 6 -6 11 -12 11
-9 0 -8 4 2 10 13 9 13 11 0 21 -11 8 -12 12 -2 16 20 8 14 23 -9 23 -15 0
-19 5 -15 15 6 16 -9 21 -18 7z"/>
<path d="M1886 1092 c-3 -3 -6 -38 -6 -79 0 -58 3 -73 15 -73 8 0 15 5 15 11
0 5 -4 7 -10 4 -6 -4 -7 1 -3 11 5 14 8 13 19 -7 7 -13 13 -18 14 -11 0 7 5
10 10 7 6 -3 11 2 12 12 2 32 4 38 13 54 6 9 21 19 35 23 14 3 19 3 13 0 -7
-3 -13 -14 -13 -25 0 -15 7 -18 33 -17 19 1 39 -2 44 -5 6 -4 13 4 15 18 4 21
1 26 -21 31 -24 6 -90 25 -153 44 -14 4 -29 6 -32 2z"/>
<path d="M3163 1060 c-31 -29 -60 -31 -90 -7 -9 6 -13 6 -13 -1 0 -5 -11 -13
-25 -16 -14 -4 -25 -11 -25 -17 0 -7 6 -6 18 2 15 13 16 12 3 -3 -7 -10 -17
-16 -21 -13 -5 3 -12 0 -15 -5 -4 -6 -18 -15 -32 -21 -13 -5 -22 -13 -19 -18
3 -5 -2 -15 -12 -22 -16 -13 -16 -12 -3 6 14 19 14 19 -5 2 -16 -15 -17 -19
-4 -27 8 -5 18 -6 22 -4 4 3 8 1 8 -4 0 -19 -44 -28 -46 -9 0 6 -2 15 -2 19
-2 8 -72 -53 -72 -63 0 -6 92 -28 148 -35 13 -1 65 -10 115 -18 166 -28 195
-30 214 -15 11 9 14 10 9 2 -5 -9 -2 -11 8 -7 9 3 16 10 16 15 0 4 9 17 21 28
12 11 19 23 16 28 -3 5 6 22 19 39 l26 29 -23 -34 c-28 -42 -9 -33 23 11 12
17 17 28 10 24 -16 -10 -15 2 2 19 7 8 17 11 21 7 5 -4 4 0 0 8 -5 8 -10 26
-11 40 -1 14 0 19 3 12 4 -10 9 -8 19 5 7 10 14 21 14 24 0 12 -29 18 -35 8
-4 -5 -3 -8 2 -7 4 2 8 -1 8 -7 0 -5 -3 -9 -7 -8 -13 5 -49 -37 -43 -48 4 -5
11 -7 16 -4 18 12 8 -16 -15 -41 -20 -22 -24 -23 -29 -9 -5 10 -3 14 4 9 6 -4
15 0 20 7 12 20 11 26 -7 33 -11 4 -15 2 -11 -8 4 -10 1 -13 -9 -9 -13 5 -19
-8 -15 -30 1 -5 -3 -6 -8 -3 -5 4 -22 -12 -38 -34 -26 -37 -51 -56 -60 -46 -2
2 3 11 12 19 8 9 15 20 15 26 0 5 8 16 18 23 20 14 52 58 52 70 0 5 -7 8 -16
8 -8 0 -12 5 -9 11 5 6 -10 10 -42 9 -44 -2 -140 17 -102 19 20 1 32 27 21 47
-6 10 -14 7 -39 -16z"/>
<path d="M2616 1063 c2 -3 -2 -11 -9 -18 -7 -7 -29 -34 -50 -59 -32 -38 -45
-46 -75 -47 -21 -1 -50 -4 -67 -8 -29 -7 8 -14 139 -26 41 -4 148 57 130 74
-3 3 -9 -1 -14 -9 -8 -13 -10 -13 -10 1 0 19 17 35 43 40 26 5 21 23 -8 31
-13 3 -24 3 -23 0 1 -4 -14 -24 -34 -45 -24 -26 -38 -34 -41 -25 -4 10 -8 10
-16 -2 -6 -8 -11 -10 -11 -5 0 6 11 22 23 37 18 21 26 25 36 15 9 -9 11 -7 8
11 -2 12 -8 26 -14 31 -5 5 -9 6 -7 4z"/>
<path d="M2882 1049 c-74 -26 -179 -95 -113 -74 11 3 22 2 24 -3 3 -4 -7 -8
-23 -8 -28 1 -150 -61 -150 -75 0 -5 15 -11 33 -14 17 -3 55 -10 82 -14 44 -9
53 -7 74 12 61 54 96 90 96 97 0 5 3 12 8 16 4 4 7 2 7 -5 0 -21 55 42 55 64
1 27 -23 28 -93 4z"/>
<path d="M4457 884 c-20 -66 -45 -164 -42 -164 2 0 -2 -12 -10 -27 -8 -15 -12
-30 -9 -34 2 -4 52 -10 111 -13 60 -3 131 -8 160 -10 l51 -4 17 72 c15 68 15
77 -1 122 -20 59 -27 64 -84 63 -25 -1 -77 2 -116 6 -65 7 -72 6 -77 -11z"/>
</g>
</svg>
