<?xml version="1.0" standalone="no"?>
<!DOCTYPE svg PUBLIC "-//W3C//DTD SVG 20010904//EN"
 "http://www.w3.org/TR/2001/REC-SVG-20010904/DTD/svg10.dtd">
<svg version="1.0" xmlns="http://www.w3.org/2000/svg"
 width="1024.000000pt" height="1024.000000pt" viewBox="0 0 1024.000000 1024.000000"
 preserveAspectRatio="xMidYMid meet">
<metadata>
Created by potrace 1.16, written by Peter Selinger 2001-2019
</metadata>
<g transform="translate(0.000000,1024.000000) scale(0.100000,-0.100000)"
fill="#000000" stroke="none">
<path d="M0 7530 c0 -1855 3 -2710 10 -2710 18 0 549 120 712 161 87 21 161
39 164 39 3 0 2 5 -1 10 -3 6 -2 10 3 10 6 0 13 11 16 25 4 14 10 23 15 20 5
-2 12 3 16 12 3 10 2 19 -3 21 -5 1 -5 22 0 50 19 101 20 112 9 112 -14 0 -15
156 -1 165 5 3 7 12 4 19 -3 8 -1 17 5 21 6 3 11 13 11 21 0 24 33 52 65 54
36 3 93 -9 101 -21 3 -5 16 -9 30 -9 13 0 24 -5 24 -11 0 -6 9 -8 21 -4 14 5
28 0 42 -13 31 -28 62 -42 91 -42 22 0 26 4 26 30 0 17 5 30 11 30 6 0 8 -9 4
-22 -5 -16 7 -9 39 27 25 27 46 59 46 71 0 11 14 40 30 62 23 32 37 42 58 42
16 0 32 -3 35 -7 4 -3 18 -8 32 -9 26 -3 32 10 15 36 -5 9 -5 19 2 27 12 15
31 7 21 -10 -4 -7 0 -6 10 2 9 7 14 17 11 22 -3 5 2 6 10 3 9 -3 16 -2 16 4 0
5 13 24 30 42 16 18 30 38 30 46 0 8 5 14 10 14 7 0 7 6 0 20 -9 16 -8 20 5
20 8 0 15 6 15 14 0 7 7 19 15 26 8 7 15 21 15 31 0 11 5 19 10 19 6 0 10 18
10 40 0 22 4 40 9 40 6 0 20 18 33 41 21 37 25 40 55 36 29 -5 32 -4 24 12
-12 22 -2 39 24 39 41 -1 47 2 41 19 -4 10 -4 14 -1 11 4 -4 20 9 37 27 16 19
39 37 51 41 12 3 39 24 60 45 30 31 43 38 62 33 19 -5 25 -2 25 10 0 11 9 16
29 16 16 0 32 6 34 13 4 10 6 10 6 0 1 -7 11 -13 22 -13 25 0 660 -319 672
-338 5 -7 12 -10 18 -7 5 4 9 2 9 -4 0 -5 -28 -28 -62 -50 -35 -23 -79 -52
-98 -65 -58 -39 -165 -137 -222 -202 -101 -115 -108 -124 -104 -124 3 0 -5
-11 -17 -24 -13 -13 -29 -37 -37 -53 -8 -15 -23 -37 -32 -47 -17 -18 -18 -18
-24 -1 -4 10 -2 26 4 36 17 27 15 32 -10 26 -14 -4 -33 3 -57 22 -20 15 -65
41 -101 56 -36 16 -72 34 -80 41 -9 7 -66 38 -129 69 -62 30 -137 71 -167 90
-30 19 -58 35 -63 35 -12 0 -80 -83 -113 -135 -73 -118 -135 -337 -145 -508
-5 -88 -9 -110 -23 -117 -17 -9 -373 -90 -640 -146 -63 -13 -176 -37 -250 -53
-120 -27 -365 -80 -595 -129 l-80 -18 -3 -153 c-2 -121 0 -152 10 -149 7 3
152 38 323 77 426 100 408 94 422 131 8 22 20 32 42 36 17 4 28 10 25 15 -2 5
3 23 13 41 9 18 17 37 18 43 0 5 14 12 31 15 50 11 175 73 162 82 -14 8 -16 7
37 35 22 11 76 28 120 37 86 18 107 23 230 58 44 13 94 23 110 23 l30 0 8 -85
c5 -47 9 -112 10 -144 l2 -59 -50 -13 c-46 -13 -207 -48 -705 -155 -102 -21
-288 -62 -415 -90 -370 -81 -408 -89 -417 -89 -4 0 -8 -13 -8 -30 0 -29 2 -30
44 -30 25 0 57 -5 73 -11 15 -6 55 -11 88 -10 48 1 73 -5 125 -29 36 -17 75
-41 87 -52 43 -40 24 -122 -38 -171 -27 -21 -29 -27 -19 -43 7 -11 37 -36 68
-57 30 -20 51 -37 46 -37 -5 0 4 -7 20 -15 39 -21 56 -18 28 4 -27 24 -28 34
-2 26 14 -5 20 -2 20 9 0 9 5 16 10 16 6 0 10 -4 10 -10 0 -5 7 -7 15 -4 10 4
12 11 6 22 -9 16 0 45 39 125 10 20 14 37 9 37 -18 0 -8 22 12 27 28 8 79 118
79 173 0 34 3 40 21 40 24 0 58 37 59 63 0 10 8 17 18 17 10 0 22 4 28 9 13
13 165 65 266 93 82 22 88 25 85 48 -2 20 3 25 23 27 l25 2 -25 -8 c-17 -6
-20 -9 -7 -10 9 -1 25 3 35 9 39 22 345 102 353 92 4 -4 17 -38 29 -77 35
-110 113 -264 177 -350 105 -142 287 -293 518 -431 55 -33 108 -63 117 -67 21
-8 50 1 43 13 -3 5 36 -33 87 -84 104 -103 222 -185 346 -241 45 -21 81 -39
79 -41 -1 -1 -14 -5 -27 -8 -23 -4 -164 -64 -202 -86 -10 -6 -24 -10 -32 -10
-8 0 -16 -4 -18 -8 -1 -4 -30 -23 -63 -41 -49 -28 -155 -101 -175 -121 -3 -3
-25 -21 -50 -41 -25 -21 -75 -67 -113 -103 -37 -36 -71 -66 -76 -66 -5 0 -7
-8 -4 -18 6 -26 98 -89 215 -150 57 -29 95 -50 85 -47 -96 28 -84 13 38 -50
63 -33 80 -44 55 -40 -39 8 -274 101 -341 136 -51 26 -169 105 -218 146 -49
41 -118 134 -149 200 -24 51 -27 70 -27 158 0 73 5 112 18 143 9 24 13 41 8
38 -15 -10 -49 -109 -56 -163 -4 -26 1 -104 9 -173 9 -68 16 -163 16 -210 0
-47 5 -102 11 -123 8 -29 7 -42 -2 -53 -31 -38 43 -369 121 -539 20 -44 45
-102 56 -128 17 -44 25 -52 89 -84 182 -92 244 -176 206 -276 -25 -65 -139
-131 -326 -191 -183 -58 -315 -69 -495 -41 -193 29 -290 66 -370 141 -33 31
-53 60 -60 86 -6 21 -15 36 -20 33 -17 -10 -20 -62 -12 -220 10 -183 20 -212
97 -287 112 -109 327 -168 609 -168 133 0 205 -13 230 -42 16 -20 17 -34 12
-98 -14 -160 -14 -484 -1 -555 7 -38 14 -89 14 -112 1 -24 8 -60 16 -80 8 -21
21 -65 29 -98 9 -33 21 -72 28 -87 l13 -28 2793 0 2792 0 0 40 c0 33 3 40 20
40 17 0 20 7 20 40 0 29 -4 40 -15 40 -11 0 -15 11 -15 40 0 29 4 40 15 40 11
0 15 11 15 40 0 22 -4 40 -10 40 -13 0 -13 29 1 70 11 29 15 32 45 27 18 -3
39 -10 46 -16 7 -6 45 -32 83 -58 105 -70 366 -285 400 -330 8 -10 34 -13 100
-11 l90 3 -35 22 c-19 13 -57 40 -85 60 -154 115 -529 397 -651 490 -77 60
-187 144 -245 187 -149 114 -309 247 -309 258 0 6 -10 18 -22 29 -18 14 -20
18 -7 19 9 0 22 -7 29 -15 7 -8 17 -15 23 -15 17 0 153 -87 272 -175 115 -84
265 -178 272 -171 2 2 -1 13 -8 24 -11 17 -10 24 2 39 27 31 34 47 17 41 -11
-5 -8 13 14 75 16 45 33 86 37 90 13 13 133 -57 271 -156 69 -49 127 -93 130
-96 3 -4 25 -22 50 -41 50 -39 54 -42 165 -136 44 -37 96 -83 116 -103 38 -38
85 -111 71 -111 -5 0 -16 -22 -25 -48 -18 -48 -67 -112 -86 -112 -25 0 -7 -31
54 -94 l66 -66 804 0 805 0 0 488 0 488 -77 52 c-43 28 -112 75 -153 103 -41
29 -147 101 -235 160 -174 118 -350 240 -488 337 -48 34 -91 62 -95 62 -5 0
-17 8 -28 18 -27 25 -152 112 -161 112 -11 0 -87 52 -122 83 -17 15 -35 27
-40 27 -5 0 -23 13 -40 29 -16 15 -32 26 -35 24 -7 -8 -56 29 -51 37 3 5 0 12
-6 16 -8 4 -9 3 -5 -4 4 -7 2 -12 -4 -12 -6 0 -13 7 -16 15 -4 8 -10 15 -14
15 -8 0 -27 15 -100 78 -44 38 -90 44 -90 11 0 -18 -3 -17 -26 10 -14 17 -30
31 -35 31 -13 0 -11 -44 2 -57 8 -8 8 -17 0 -31 -17 -32 3 -70 46 -88 35 -15
101 -15 133 0 26 11 466 -295 548 -382 l34 -35 -20 -26 c-10 -14 -22 -47 -26
-74 -4 -26 -11 -47 -17 -47 -5 0 -9 -7 -9 -15 0 -26 -59 -187 -73 -199 -8 -6
-20 -38 -26 -71 -7 -33 -18 -71 -23 -85 -6 -14 -12 -37 -14 -52 -4 -29 -14
-19 249 -241 58 -48 29 -44 -59 10 -137 82 -758 508 -969 663 -49 37 -191 140
-315 230 -468 339 -485 351 -710 520 -91 68 -189 143 -218 167 -54 43 -56 58
-4 26 40 -24 329 -219 388 -261 295 -212 404 -285 412 -277 3 3 -3 12 -14 20
-10 8 -14 15 -8 15 5 0 15 -5 20 -10 6 -6 17 -8 26 -5 11 4 15 23 16 68 1 34
3 78 4 97 1 19 0 80 -1 135 -3 100 17 216 39 223 6 2 10 8 10 14 0 6 14 27 31
47 35 40 108 72 149 64 57 -10 91 7 165 81 40 40 89 101 110 137 68 117 50
118 248 -15 434 -290 649 -436 676 -458 36 -27 59 -84 42 -101 -6 -6 -11 -21
-11 -33 0 -43 -69 -289 -83 -298 -13 -9 -13 -12 5 -28 12 -10 16 -18 8 -18
-10 0 -10 -3 1 -16 16 -20 -41 13 -141 81 -81 56 -111 74 -95 58 18 -17 115
-84 525 -359 223 -149 484 -326 580 -392 96 -67 178 -121 183 -122 4 0 7 139
7 309 l0 308 -52 35 c-170 112 -855 571 -865 578 -6 5 -28 19 -48 30 -20 11
-48 29 -63 39 -15 10 -54 36 -87 56 -33 21 -76 48 -95 60 -19 12 -52 32 -73
43 -20 12 -43 26 -50 32 -42 35 -132 100 -138 100 -5 0 -54 35 -111 78 -57 42
-146 104 -198 137 -256 162 -479 315 -480 328 0 5 17 -1 38 -14 20 -12 78 -45
127 -72 50 -28 122 -71 160 -97 107 -72 254 -163 221 -138 -78 61 -73 49 -38
104 17 27 48 83 69 124 20 41 37 76 39 78 1 2 31 -15 67 -37 l65 -41 -9 -38
c-16 -70 9 -152 68 -223 l28 -34 -33 24 c-19 13 -38 34 -44 47 -18 39 -28 28
-22 -24 10 -91 24 -120 78 -161 73 -55 1439 -962 1443 -958 2 2 2 308 1 679
l-3 676 -144 -49 c-80 -27 -146 -47 -148 -45 -5 5 126 55 225 87 l72 23 0 143
c0 79 -2 143 -5 143 -2 0 -24 -6 -47 -14 -24 -8 -128 -41 -233 -75 -104 -33
-212 -69 -238 -79 l-48 -19 63 -31 c136 -67 156 -195 41 -259 -82 -46 -228
-71 -483 -82 -141 -7 -195 -6 -225 4 -22 7 -62 18 -90 24 -62 15 -174 80 -210
123 -23 27 -26 39 -23 88 2 34 -2 63 -9 71 -7 8 -107 77 -222 154 -203 134
-263 183 -186 151 46 -20 163 -88 255 -149 41 -28 69 -43 62 -34 -10 11 -12
32 -7 69 3 29 10 197 16 373 10 337 8 370 -34 465 -21 49 -97 154 -105 145 -3
-3 2 -13 11 -23 65 -71 97 -247 62 -340 -30 -80 -104 -183 -186 -263 -72 -69
-79 -79 -79 -115 0 -21 -5 -46 -10 -54 -7 -11 -10 -5 -10 23 0 20 -4 37 -10
37 -5 0 -10 -5 -10 -10 0 -16 -80 -88 -121 -110 -45 -24 -209 -65 -312 -79
-173 -24 -554 -1 -663 40 -30 12 -58 18 -61 15 -8 -7 -12 -4 67 -56 81 -53
130 -99 129 -119 0 -11 -2 -12 -6 -3 -10 24 -22 11 -17 -18 9 -44 -2 -75 -44
-116 -80 -79 -248 -134 -470 -153 -169 -14 -332 4 -536 60 -38 10 -71 17 -74
15 -2 -2 4 -18 13 -35 l16 -31 -30 0 c-55 0 -114 93 -116 185 -2 69 -4 71
-190 197 -362 245 -753 530 -754 551 -1 4 6 7 14 7 9 0 12 6 9 18 -5 15 -4 15
5 1 9 -14 99 -80 215 -159 12 -8 45 -32 74 -53 29 -22 57 -35 63 -31 7 4 9 3
6 -3 -8 -12 16 -35 31 -31 6 2 19 -3 29 -9 88 -60 273 -182 297 -197 17 -10
60 -39 95 -65 34 -25 83 -58 107 -73 l43 -27 23 24 c13 13 23 30 23 37 0 7 9
13 20 13 11 0 19 6 17 13 -1 6 7 12 17 12 24 0 36 16 19 23 -7 3 -3 6 9 6 12
1 29 4 39 8 10 4 15 2 11 -3 -4 -7 6 -9 25 -6 l31 5 -24 18 c-13 10 -64 47
-114 82 -209 147 -458 327 -583 421 -84 63 -91 71 -72 78 18 7 41 -5 119 -57
149 -101 155 -104 310 -207 131 -88 234 -161 283 -203 10 -8 39 -26 65 -40 27
-14 60 -35 75 -47 37 -29 118 -28 150 1 12 12 27 21 34 21 7 0 19 6 27 14 9 9
55 19 118 26 56 6 119 19 138 28 20 10 47 17 60 17 21 0 26 -7 38 -55 9 -34
23 -64 40 -78 35 -31 41 -20 10 18 -27 32 -47 87 -47 130 0 34 52 121 92 155
68 57 208 108 416 150 94 19 217 19 312 0 266 -53 309 -64 367 -94 63 -31 114
-75 143 -120 l16 -23 90 95 c75 78 93 103 103 143 7 27 17 61 23 76 11 31 2
115 -18 163 -11 28 -20 34 -59 39 -25 4 -45 11 -45 17 0 5 -6 9 -12 9 -7 0
-40 14 -73 30 -33 16 -67 30 -76 30 -9 0 -19 3 -22 6 -7 8 -71 31 -192 70 -44
14 -111 37 -149 50 -37 13 -85 29 -105 34 -20 5 -54 14 -76 19 -160 42 -310
62 -470 62 l-130 -1 160 54 c180 61 320 119 350 146 11 10 56 42 100 71 44 28
97 68 117 88 21 20 91 86 156 146 74 68 121 120 125 136 3 15 28 55 55 90 26
35 69 96 94 136 26 39 55 74 65 77 10 3 50 10 88 15 39 5 124 19 190 31 170
31 260 29 324 -6 28 -15 49 -30 46 -34 -2 -3 9 -14 25 -23 23 -14 37 -16 72
-7 24 5 60 10 80 10 20 0 43 6 50 13 7 6 29 13 48 15 35 2 35 2 10 -12 -14 -7
-42 -16 -63 -20 -21 -4 -46 -15 -55 -24 -10 -9 -40 -25 -67 -36 -53 -20 -370
-120 -495 -156 -154 -45 -176 -52 -219 -67 -41 -15 -43 -17 -26 -29 24 -18 83
-17 170 1 365 79 545 104 545 75 0 -5 10 -10 22 -10 12 0 41 -20 68 -47 40
-40 60 -51 148 -79 115 -37 241 -95 264 -121 9 -10 19 -32 23 -50 5 -28 2 -36
-32 -70 -61 -61 -219 -101 -433 -109 -136 -5 -151 -4 -233 20 -48 14 -89 26
-92 26 -11 0 -3 -27 15 -50 26 -33 25 -48 -5 -72 -14 -11 -23 -24 -19 -29 10
-16 65 -41 138 -60 110 -30 125 -38 134 -71 5 -20 20 -37 42 -49 69 -37 142
-69 156 -69 20 0 44 -64 44 -117 0 -29 5 -45 15 -49 8 -4 13 -10 10 -14 -3 -4
2 -11 11 -14 8 -3 13 -10 9 -15 -3 -5 -1 -12 5 -16 19 -12 11 -64 -15 -90 -27
-26 -31 -28 -80 -29 -27 -1 -30 -4 -30 -36 0 -37 0 -36 96 -80 25 -11 27 -17
37 -128 6 -65 14 -175 18 -247 4 -71 9 -134 13 -140 7 -12 8 -18 10 -48 1 -26
4 -27 161 -81 l94 -33 141 48 c77 26 208 68 290 94 83 26 156 48 163 50 9 3
12 80 12 340 0 312 -1 335 -17 335 -23 1 -53 23 -53 39 0 12 14 10 58 -6 9 -4
12 614 12 3071 l0 3076 -5120 0 -5120 0 0 -2710z m1411 2316 c67 -29 119 -134
105 -212 -8 -42 -55 -90 -99 -100 -51 -11 -114 14 -156 62 -63 72 -63 160 1
221 47 44 92 53 149 29z m3528 -645 c21 -11 103 -42 182 -69 79 -28 162 -58
184 -67 36 -16 54 -16 181 -6 323 25 517 6 712 -71 78 -31 56 -33 -39 -4 -230
69 -474 72 -722 10 -112 -27 -204 -65 -327 -131 -321 -173 -593 -421 -792
-722 -39 -58 -73 -108 -77 -111 -4 -3 -13 -20 -20 -38 -8 -18 -19 -36 -25 -40
-6 -4 -27 -41 -46 -82 -19 -41 -38 -79 -43 -85 -13 -14 2 99 19 148 16 44 12
61 -6 28 -6 -12 -15 -19 -21 -16 -5 4 -6 12 -3 18 4 7 4 9 0 5 -5 -4 -31 6
-60 21 -28 15 -85 38 -126 50 -41 12 -82 27 -90 32 -25 15 -50 25 -150 57 -52
17 -114 38 -138 47 -31 11 -48 12 -62 5 -23 -12 -110 -117 -110 -133 0 -5 -2
-8 -5 -5 -8 8 59 159 106 241 142 244 271 391 505 576 110 87 142 110 254 176
100 59 276 123 427 154 180 37 237 40 292 12z m965 -487 c9 -3 16 -12 16 -19
0 -7 19 -16 45 -19 180 -27 439 -176 603 -345 104 -109 166 -197 241 -347 91
-184 129 -317 166 -579 9 -66 22 -126 28 -133 12 -15 83 -10 182 14 183 43
354 55 465 34 29 -5 94 -30 145 -54 192 -91 348 -288 418 -526 60 -206 75
-374 53 -570 -3 -25 -8 -72 -12 -105 -3 -33 -10 -67 -15 -76 -4 -9 -13 -64
-18 -122 -12 -127 -33 -191 -118 -367 -68 -141 -119 -221 -211 -330 -169 -201
-325 -302 -599 -385 -49 -14 -115 -35 -148 -45 -33 -10 -121 -35 -195 -55 -74
-20 -214 -60 -310 -87 -179 -51 -276 -78 -600 -168 -102 -28 -228 -64 -280
-79 -52 -16 -147 -43 -210 -61 -63 -17 -158 -45 -210 -62 -52 -16 -144 -43
-205 -58 -60 -16 -168 -45 -240 -65 -71 -20 -193 -53 -270 -75 -77 -21 -203
-56 -280 -78 -696 -201 -788 -224 -909 -224 -156 1 -302 40 -430 116 -79 47
-213 184 -264 269 -138 229 -192 533 -144 812 51 298 156 501 356 692 91 86
112 101 233 160 73 36 140 74 148 86 9 12 15 43 15 73 0 69 34 263 60 344 28
87 110 252 162 327 142 202 343 353 564 424 88 28 121 45 133 68 6 10 15 72
21 137 27 288 113 536 268 774 192 296 473 527 771 634 74 27 215 61 281 69
58 7 277 7 294 1z m-4270 -248 c60 -18 115 -60 131 -100 8 -22 10 -55 4 -111
-5 -63 -4 -82 7 -91 8 -6 14 -15 14 -19 0 -5 6 -16 14 -24 8 -9 21 -29 30 -45
13 -25 13 -34 1 -62 -14 -35 -7 -44 36 -44 26 0 41 -41 28 -78 -7 -21 -28 -39
-71 -63 -34 -19 -82 -53 -108 -76 -59 -54 -97 -57 -141 -14 -16 17 -57 39 -93
51 -70 23 -130 65 -159 110 -16 26 -16 29 -2 44 9 9 27 16 41 16 l24 0 -26 50
-26 49 20 28 c11 15 23 43 27 61 5 22 12 32 26 32 24 0 24 4 -3 40 -20 28 -21
31 -5 82 9 29 19 65 23 80 8 34 42 66 91 83 49 18 60 18 117 1z m6254 -607
c13 -10 31 -32 40 -50 16 -32 24 -36 117 -60 114 -30 157 -48 152 -63 -7 -27
-186 -98 -250 -100 l-37 -1 22 -17 c13 -10 27 -18 32 -18 5 0 7 -2 4 -5 -3 -3
-39 8 -80 25 -42 16 -107 37 -144 46 -89 21 -269 21 -396 0 -121 -20 -118 -20
-118 2 0 15 14 20 83 30 46 7 125 12 175 12 l93 0 -6 38 c-4 20 -8 44 -10 52
-2 8 1 24 8 36 18 31 83 85 111 92 43 12 179 -1 204 -19z m1273 -130 c60 -13
88 -38 96 -84 5 -28 0 -39 -29 -69 -19 -20 -40 -36 -47 -36 -20 0 -155 73
-179 97 l-23 23 30 30 c16 17 34 30 40 30 6 0 11 5 11 10 0 13 37 13 101 -1z
m-5854 -143 c44 -19 106 -46 137 -60 31 -14 58 -26 60 -26 2 0 51 -22 107 -49
158 -75 270 -121 294 -121 23 0 75 -21 75 -31 0 -3 -28 -19 -62 -35 -76 -35
-229 -137 -306 -201 -106 -89 -124 -108 -197 -199 -41 -50 -90 -107 -109 -128
-20 -20 -36 -40 -36 -45 0 -4 -10 -21 -22 -36 -20 -26 -22 -26 -29 -9 -4 11 1
34 12 56 24 47 24 46 -11 42 -17 -2 -33 2 -37 10 -9 16 -57 40 -95 50 -15 3
-33 12 -40 19 -17 16 -118 57 -142 57 -10 0 -24 6 -30 13 -6 8 -42 26 -81 42
-38 16 -72 31 -75 34 -6 7 -68 37 -92 44 -17 6 -57 -32 -105 -98 -28 -39 -36
-30 -14 15 84 168 136 246 243 365 69 77 228 215 247 215 5 0 14 7 22 16 22
26 154 91 189 93 9 1 52 -14 97 -33z m-1595 -45 c14 -14 15 -21 4 -53 -18 -49
-41 -71 -79 -72 -18 -1 -35 -5 -39 -10 -9 -14 -48 55 -48 86 0 26 31 57 70 70
24 9 73 -3 92 -21z m8077 -627 c38 -84 -25 -164 -130 -164 -51 0 -79 22 -79
62 0 109 168 191 209 102z m-771 -97 c30 -23 33 -47 17 -110 -9 -34 -22 -68
-30 -76 -9 -10 -41 -16 -89 -17 -62 -3 -79 0 -100 17 -31 24 -33 56 -7 107 25
49 51 71 103 87 44 13 83 11 106 -8z m-7153 -18 c22 -6 66 -31 98 -55 31 -24
64 -44 72 -44 9 0 12 -6 9 -15 -4 -8 -9 -13 -13 -11 -10 7 -24 -5 -44 -36 -11
-17 -33 -32 -59 -39 -24 -7 -52 -18 -62 -25 -16 -11 -26 -9 -65 12 -25 13 -62
24 -82 24 -41 0 -54 11 -62 56 -5 27 0 37 46 81 69 67 86 73 162 52z m-580
-248 c19 -2 -20 -21 -45 -21 -14 0 -34 -7 -44 -15 -18 -14 -18 -16 -3 -52 28
-65 38 -121 31 -171 l-6 -49 88 -21 c151 -35 257 -96 270 -156 4 -17 6 -66 5
-109 -1 -62 -5 -85 -22 -108 -38 -54 -107 -29 -95 35 l6 33 -107 -28 c-262
-67 -478 -62 -742 17 -103 31 -151 71 -151 127 0 45 35 88 92 111 24 10 63 27
88 37 25 10 67 24 93 30 54 13 66 29 47 65 -10 18 -11 30 -2 49 7 14 12 44 12
67 0 31 9 52 36 89 56 76 63 78 264 74 96 -2 180 -4 185 -4z m619 -106 c15
-11 18 -23 13 -55 -12 -92 -62 -115 -123 -58 -39 37 -41 67 -7 104 26 28 86
32 117 9z m6703 -151 c32 -15 179 -85 328 -156 170 -82 277 -128 290 -125 11
3 45 13 75 22 100 29 265 18 367 -26 60 -26 65 -45 21 -83 -25 -22 -73 -43
-162 -71 l-125 -40 60 -17 c96 -27 114 -54 57 -84 -32 -16 -121 -16 -270 2
-36 5 -48 3 -49 -7 -1 -8 -2 -22 -3 -33 0 -10 -8 -23 -17 -29 -27 -17 -85 34
-90 78 0 6 -5 16 -11 23 -6 6 -8 12 -5 12 4 0 -1 19 -9 42 -16 46 -11 90 12
109 8 6 14 17 14 23 0 7 -124 71 -276 142 -152 71 -280 136 -284 145 -10 18
-1 99 11 99 5 0 34 -12 66 -26z m-31 -422 c16 -15 35 -36 42 -47 9 -15 14 -16
18 -7 4 9 19 2 49 -23 24 -19 49 -35 57 -35 10 0 9 -3 -2 -10 -12 -7 -11 -10
5 -15 11 -4 28 -10 39 -14 10 -4 57 -1 105 5 47 7 99 13 115 13 l28 1 -23 -25
c-39 -42 -88 -62 -292 -121 -105 -31 -231 -67 -280 -81 -48 -14 -90 -23 -94
-19 -8 7 5 46 47 146 26 61 68 170 95 248 8 22 61 13 91 -16z m947 -1428 c95
-48 183 -94 197 -104 14 -10 57 -33 95 -53 64 -32 72 -33 92 -20 26 17 113 19
143 3 50 -27 -7 -118 -89 -140 -21 -5 -44 -17 -51 -25 -16 -20 -39 -19 -62 2
-19 17 -24 58 -8 68 28 17 -3 38 -283 186 -170 90 -247 139 -247 160 0 22 52
3 213 -77z m-2603 -124 c0 -38 -25 -55 -121 -81 -53 -14 -80 -27 -96 -47 -21
-25 -27 -27 -94 -24 -59 2 -102 -6 -243 -43 -175 -47 -388 -108 -531 -151 -44
-14 -88 -27 -99 -30 -11 -4 -16 -2 -12 4 8 13 143 57 376 122 366 103 395 111
427 131 22 14 33 28 33 45 0 16 9 28 30 39 41 21 64 19 99 -11 32 -27 47 -27
154 3 25 7 57 43 57 65 0 11 5 16 10 13 6 -3 10 -19 10 -35z m-2230 -614 c-68
-21 -162 -49 -469 -137 -57 -17 -127 -41 -155 -54 -28 -12 -60 -25 -71 -29
-11 -3 2 -4 29 -2 30 3 44 1 35 -5 -56 -35 -151 35 -107 79 7 7 21 12 32 12
16 0 17 -3 8 -12 -7 -7 -12 -20 -12 -30 0 -27 36 -23 127 17 45 19 132 48 195
65 62 16 181 49 263 74 83 24 161 45 175 45 14 0 -9 -10 -50 -23z m1113 -367
c23 -17 41 -35 39 -41 -1 -5 2 -7 8 -3 13 8 162 -94 154 -106 -3 -5 -2 -9 3
-8 25 4 33 -4 33 -36 0 -34 -12 -46 -25 -25 -4 6 -11 8 -16 5 -5 -4 -9 -2 -9
3 0 13 -70 92 -82 92 -17 0 -98 41 -98 49 0 5 6 12 13 15 6 3 1 3 -13 0 -14
-4 -22 -3 -18 1 4 5 0 14 -10 21 -16 12 -16 13 3 14 18 0 17 3 -9 25 -41 35
-24 31 27 -6z m-524 -160 c19 -17 45 -35 59 -40 34 -13 123 -1 169 22 46 23
98 24 138 3 17 -9 53 -28 80 -41 47 -24 82 -46 194 -119 24 -16 51 -33 60 -39
8 -5 22 -18 31 -27 14 -16 21 -16 95 -3 96 17 115 18 115 5 0 -13 -28 -24
-150 -60 -52 -15 -122 -39 -155 -53 -60 -25 -151 -48 -110 -27 47 24 -83 -6
-310 -70 -427 -121 -745 -191 -797 -175 -13 4 -20 4 -16 0 13 -14 -12 -44 -51
-65 l-39 -19 -28 26 c-26 24 -32 25 -93 19 -36 -3 -169 -8 -296 -12 -126 -3
-237 -8 -245 -11 -8 -4 -19 -7 -23 -7 -9 -1 -27 -27 -27 -39 0 -5 5 -5 10 -2
19 12 10 -13 -15 -43 -74 -88 -190 -53 -226 68 -9 28 -17 39 -26 36 -8 -3 -24
0 -36 8 -12 8 -58 17 -102 20 -138 12 -557 81 -585 97 -17 10 45 4 170 -17
131 -21 429 -54 492 -54 50 0 57 3 63 23 29 95 185 138 299 83 36 -18 62 -24
100 -21 28 1 34 0 14 -2 -34 -4 -38 -7 -38 -33 0 -16 -5 -32 -10 -35 -6 -4 -8
-11 -5 -16 4 -5 -2 -10 -12 -10 -10 -1 5 -5 32 -10 47 -9 181 -6 407 7 72 5
94 9 86 18 -6 6 -25 12 -43 13 -17 1 -49 9 -71 19 -21 9 -48 19 -59 21 -10 2
-22 8 -25 13 -3 6 -49 11 -101 12 -52 1 -84 3 -71 6 26 4 29 17 6 26 -18 7
-10 26 12 26 8 0 14 -8 14 -17 1 -16 2 -16 15 2 28 40 49 55 77 55 15 0 28 4
28 9 0 5 26 17 57 26 43 13 53 19 42 27 -11 7 -9 9 8 5 12 -3 46 8 80 25 32
16 74 31 93 34 19 2 37 8 40 13 3 5 19 12 35 16 47 11 172 53 197 66 13 7 32
14 43 15 76 11 149 45 171 81 34 53 95 122 114 128 10 3 28 8 41 10 12 2 24 7
27 10 10 9 17 5 51 -26z m-2654 -861 c105 -30 125 -43 117 -72 -7 -25 -47 -62
-72 -67 -24 -4 -73 11 -95 29 -37 31 -75 89 -75 114 0 29 10 29 125 -4z m2968
-90 c136 -88 179 -118 325 -222 62 -45 148 -106 191 -136 70 -49 262 -191 301
-223 8 -7 47 -34 85 -62 39 -27 117 -85 175 -130 107 -82 177 -132 208 -150 9
-6 24 -14 32 -20 8 -5 20 -10 25 -10 41 -3 134 -19 155 -27 27 -10 70 -47 70
-59 0 -4 -9 -10 -19 -14 -10 -3 -22 -17 -25 -30 -3 -13 -16 -27 -29 -30 -12
-4 -48 -19 -80 -33 -51 -22 -64 -24 -98 -15 -34 9 -39 8 -39 -7 0 -10 -6 -22
-12 -27 -25 -20 -185 -53 -253 -53 -54 0 -66 -3 -57 -12 14 -14 16 -48 3 -48
-4 0 -23 5 -41 12 -31 10 -35 9 -59 -19 -19 -22 -53 -39 -121 -63 -52 -18
-100 -35 -106 -37 -6 -2 -26 8 -44 23 -28 24 -35 26 -52 15 -37 -23 -36 -3 7
100 7 18 -126 135 -305 269 -200 151 -949 751 -985 790 l-30 33 65 -41 c119
-75 495 -349 701 -512 32 -25 121 -94 199 -155 78 -60 173 -135 210 -166 37
-31 97 -77 132 -103 l66 -46 42 15 c57 20 110 19 170 -4 27 -11 50 -15 50 -11
0 5 -30 30 -67 56 -38 26 -90 66 -118 89 -27 23 -113 89 -190 148 -77 58 -162
123 -190 144 -27 21 -117 91 -200 154 -370 283 -425 327 -502 393 -45 39 -81
72 -79 74 6 5 76 -31 76 -40 0 -4 5 -8 10 -8 14 0 359 -245 515 -366 176 -135
528 -402 735 -556 99 -73 123 -82 215 -82 44 0 96 6 117 13 45 15 90 55 82 74
-3 8 4 34 16 57 18 35 19 45 8 55 -48 45 -398 308 -1023 770 -288 213 -402
304 -382 305 5 0 59 -32 120 -72z m-2131 -74 c45 -7 54 -17 32 -38 -22 -22 -3
-21 81 5 37 11 69 18 71 16 5 -4 -152 -60 -286 -102 -41 -13 -147 -47 -236
-74 -88 -28 -164 -51 -170 -50 -5 0 74 29 176 63 102 35 198 68 213 75 l28 11
-20 27 c-11 16 -23 41 -27 57 l-7 28 54 -6 c30 -4 71 -9 91 -12z m406 -68 c4
-32 -17 -69 -53 -92 -23 -15 -27 -15 -50 0 -37 24 -52 61 -34 82 47 57 131 64
137 10z m796 -528 c19 -18 37 -47 41 -64 5 -26 0 -36 -35 -72 -47 -47 -68 -52
-90 -19 -42 63 -41 118 2 164 29 31 42 29 82 -9z m3455 -126 c339 -225 845
-622 792 -622 -6 0 -10 -3 -9 -7 4 -15 -26 -133 -34 -133 -4 0 -8 -6 -8 -14 0
-8 -3 -16 -7 -18 -5 -2 -16 -20 -26 -41 -9 -21 -21 -36 -25 -33 -4 2 -7 -21
-7 -52 1 -61 20 -112 42 -112 7 0 13 -4 13 -10 0 -5 -2 -10 -5 -10 -14 0 -107
60 -260 170 -38 27 -103 73 -144 101 -40 28 -146 105 -234 172 -88 67 -197
149 -241 182 -45 33 -129 97 -187 142 -145 113 -172 126 -235 113 -27 -5 -105
-30 -174 -55 -167 -62 -160 -60 -160 -42 0 17 3 18 120 59 215 73 250 82 303
69 28 -6 75 -28 106 -49 77 -53 85 -57 77 -44 -4 6 -1 22 6 34 13 25 26 102
34 218 3 41 10 87 17 101 10 25 11 25 41 11 17 -9 109 -67 205 -130z"/>
<path d="M5932 8641 c-10 -6 -4 -14 22 -29 31 -18 41 -36 38 -63 -1 -4 9 -5
21 -2 16 3 18 2 8 -5 -11 -8 -10 -11 4 -19 9 -5 16 -14 15 -19 -1 -5 22 -17
52 -27 204 -68 329 -128 374 -179 11 -12 -7 -3 -43 19 -78 50 -170 85 -214 81
l-34 -3 70 -65 c170 -158 223 -218 322 -365 57 -86 70 -113 125 -264 59 -164
73 -217 104 -396 13 -77 27 -152 30 -166 4 -20 -2 -35 -26 -63 -18 -20 -40
-36 -50 -36 -10 0 -20 -6 -23 -12 -123 -302 -267 -664 -272 -687 -10 -44 9
-40 85 19 36 27 122 93 193 147 121 92 128 100 148 154 17 46 27 59 47 64 15
4 30 12 34 18 5 9 16 7 41 -6 l34 -19 112 90 c105 85 163 142 144 142 -4 0 -2
4 6 9 10 7 -7 15 -60 31 -130 38 -384 122 -393 131 -17 16 6 10 149 -36 134
-43 199 -58 125 -30 -36 14 -29 18 25 16 17 -1 74 10 128 24 114 29 135 31
118 11 -10 -12 -2 -12 51 0 35 7 76 18 92 24 47 17 40 5 -16 -30 -34 -21 -48
-34 -38 -37 45 -13 45 -14 20 -34 l-25 -20 40 6 c34 5 37 4 20 -6 -27 -17 -36
-31 -29 -50 5 -17 -21 -33 -37 -23 -5 3 -9 -5 -9 -17 0 -17 -4 -20 -21 -16
-15 4 -23 -1 -30 -21 -14 -34 -5 -98 15 -121 20 -22 21 -37 1 -21 -9 7 -18 10
-22 6 -6 -6 11 -53 108 -291 52 -130 97 -245 164 -425 80 -213 71 -199 113
-193 20 2 51 5 67 5 36 2 74 47 130 157 79 159 126 311 107 348 -13 24 4 73
26 73 33 0 -2 170 -69 330 -75 179 -166 291 -304 373 -176 105 -326 118 -720
62 -39 -6 -40 -6 -17 11 29 22 28 31 -7 39 -37 8 -38 11 -51 142 -11 112 -13
118 -55 295 -79 337 -239 596 -474 773 -177 134 -429 235 -489 196z"/>
<path d="M5872 8430 c-12 -5 -26 -20 -31 -32 -11 -29 11 -48 134 -119 96 -55
274 -165 340 -210 22 -15 64 -41 93 -58 l52 -30 -25 37 c-14 20 -34 55 -45 77
-11 22 -31 53 -44 69 -14 17 -23 33 -21 37 8 12 -138 142 -199 178 -89 53
-195 74 -254 51z"/>
<path d="M5830 8325 c7 -8 10 -15 6 -15 -7 0 12 -23 69 -82 80 -84 426 -362
512 -412 15 -9 76 51 67 66 -4 6 -3 8 4 5 5 -4 18 -4 27 -1 14 6 14 8 -2 27
-35 40 -398 268 -590 372 -40 22 -73 43 -73 47 0 4 -7 8 -16 8 -14 0 -14 -3
-4 -15z"/>
<path d="M5415 8302 c-154 -83 -221 -140 -338 -284 -70 -87 -177 -258 -177
-283 0 -3 9 -5 19 -5 12 0 37 22 63 56 41 54 56 73 138 175 19 24 96 106 171
182 75 75 134 137 130 137 -3 0 9 9 27 20 31 19 40 30 25 30 -5 -1 -30 -13
-58 -28z"/>
<path d="M5570 8271 c0 -5 -8 -7 -18 -4 -29 7 -171 -105 -312 -246 -133 -133
-146 -148 -225 -251 -46 -59 -50 -70 -56 -134 -4 -39 -11 -72 -17 -74 -7 -2
-5 -23 6 -60 8 -31 16 -58 18 -60 8 -12 90 -9 110 4 12 9 29 17 36 18 27 5
248 117 248 126 0 6 9 10 21 10 14 0 19 5 16 14 -11 27 63 144 82 131 6 -3 20
3 32 14 20 19 46 20 34 1 -2 -4 10 -7 27 -6 26 1 33 7 40 31 15 50 88 384 88
400 0 11 -12 15 -42 15 -37 0 -45 4 -61 31 -9 17 -15 35 -11 40 3 5 0 9 -5 9
-6 0 -11 -4 -11 -9z"/>
<path d="M5767 8257 c-15 -12 -27 -29 -27 -38 0 -8 -4 -19 -8 -24 -5 -6 -13
-32 -20 -60 -24 -110 -42 -185 -68 -291 -24 -100 -25 -115 -13 -143 8 -17 17
-31 21 -31 5 0 7 -5 6 -11 -5 -18 30 -19 137 -3 55 8 172 26 260 39 88 13 194
29 235 35 41 6 85 13 97 15 37 8 23 44 -35 89 -146 112 -167 129 -402 325 -80
67 -148 121 -151 121 -3 0 -18 -10 -32 -23z"/>
<path d="M6339 7716 c-2 -2 -85 -16 -184 -30 -355 -51 -498 -75 -505 -83 -5
-4 -17 -24 -28 -45 -20 -34 -20 -40 -6 -100 8 -34 28 -106 44 -158 16 -52 43
-151 61 -220 18 -69 33 -126 34 -127 0 -1 11 0 23 4 12 3 19 9 16 14 -3 5 -1
8 4 7 5 -2 55 51 112 117 111 128 252 291 388 445 103 118 102 117 95 124 -4
3 1 6 9 6 10 0 15 7 13 18 -2 9 -4 20 -4 25 -1 7 -64 10 -72 3z"/>
<path d="M6386 7602 c-27 -31 -85 -97 -131 -147 -206 -226 -448 -515 -470
-561 -8 -18 -24 -36 -36 -39 -11 -4 -29 -16 -40 -28 -30 -32 -65 -82 -51 -73
9 5 11 -5 7 -39 -5 -52 -11 -65 -28 -65 -7 0 -13 -12 -13 -26 -1 -14 0 -23 3
-20 7 7 33 -20 33 -33 0 -20 40 -11 113 25 82 41 118 70 111 89 -4 9 13 17 58
27 60 13 65 16 99 68 55 84 304 560 404 773 35 75 36 79 18 92 -10 8 -20 14
-23 14 -3 0 -27 -25 -54 -57z"/>
<path d="M6591 7641 c-12 -8 -4 -42 51 -203 56 -164 68 -193 87 -196 12 -2 21
2 21 10 0 10 3 9 10 -2 26 -39 -36 220 -67 283 -25 50 -38 61 -29 25 5 -20 5
-20 -6 2 -7 14 -19 31 -28 38 -8 8 -9 11 -3 7 8 -4 11 -1 7 9 -3 8 -12 12 -20
9 -10 -4 -12 0 -8 11 7 18 5 19 -15 7z"/>
<path d="M6502 7617 c-11 -12 -29 -40 -38 -62 -41 -99 -181 -371 -320 -625
-35 -63 -70 -132 -79 -153 l-16 -38 23 12 c13 7 70 44 128 84 58 39 156 102
218 140 63 39 132 81 154 95 47 29 53 38 68 99 8 29 18 45 31 48 10 3 19 10
19 17 0 15 -117 361 -130 386 -14 26 -32 25 -58 -3z"/>
<path d="M5295 7525 c-60 -30 -144 -70 -186 -90 -72 -34 -76 -37 -77 -70 -1
-38 -17 -74 -38 -90 -11 -8 -10 -29 5 -115 27 -148 33 -170 40 -170 10 0 116
80 114 86 -6 9 -3 27 3 21 4 -3 25 22 47 56 22 34 61 91 88 127 26 36 49 70
49 75 1 6 10 19 20 30 48 52 86 183 55 191 -6 1 -59 -22 -120 -51z"/>
<path d="M4773 7525 c-56 -86 -54 -84 -48 -35 4 31 -8 6 -39 -85 -42 -124 -45
-139 -51 -275 -9 -219 -3 -202 -88 -230 -180 -59 -282 -100 -302 -123 -5 -7
-32 -24 -60 -38 -28 -14 -49 -32 -47 -39 2 -7 -2 -16 -9 -20 -12 -8 55 -21
222 -44 162 -23 273 -30 266 -19 -4 6 16 22 44 37 60 31 59 30 59 11 0 -9 11
-20 24 -25 13 -5 26 -14 28 -20 5 -15 161 4 167 21 2 6 12 20 21 29 10 10 20
26 22 37 2 11 11 17 23 16 19 -1 19 -1 1 12 -10 8 -15 19 -11 26 5 7 3 10 -6
7 -18 -6 -69 90 -65 125 3 27 -18 53 -83 97 l-33 23 -21 -25 -20 -25 -34 35
c-25 25 -33 41 -29 56 3 12 6 30 6 41 0 17 7 20 49 21 l50 2 6 -40 c14 -81
136 -148 180 -98 11 13 10 34 -6 140 -24 156 -23 154 -57 166 -22 8 -30 6 -43
-10 -16 -19 -16 -16 -17 55 -1 41 3 81 8 89 9 13 10 13 10 0 1 -8 7 -1 15 15
7 17 14 23 14 15 1 -12 4 -12 12 2 7 12 6 30 -1 55 -16 61 -24 68 -43 39 -10
-14 -17 -32 -17 -40 0 -8 -4 -18 -10 -21 -5 -3 -10 -13 -10 -21 0 -9 -7 -22
-15 -31 -14 -14 -15 -13 -10 13 4 16 11 42 16 58 14 44 11 53 -16 58 -21 4
-30 -2 -52 -37z"/>
<path d="M5565 7507 c-4 -10 -5 -73 -1 -140 4 -67 11 -210 16 -317 6 -107 15
-210 21 -227 12 -37 34 -39 68 -9 16 14 18 23 10 37 -5 11 -6 19 -2 19 4 0 2
4 -6 9 -19 12 -6 57 20 72 16 8 23 8 29 -1 23 -36 12 25 -31 185 -72 264 -115
394 -124 372z"/>
<path d="M5489 7508 c0 -2 -2 -13 -3 -25 -2 -13 -6 -26 -11 -30 -4 -5 -5 0 -2
10 11 29 -11 10 -29 -26 -9 -18 -58 -95 -109 -172 -100 -154 -165 -259 -165
-269 0 -4 -9 -19 -21 -35 -20 -27 -20 -29 -3 -92 16 -60 19 -64 47 -66 32 -3
67 -28 67 -48 0 -20 25 -25 123 -25 65 1 98 5 111 15 11 8 16 15 11 15 -4 0 2
9 15 20 13 11 32 20 42 20 16 0 19 5 14 28 -3 15 -10 140 -17 277 -14 300 -26
398 -52 403 -9 2 -17 2 -18 0z"/>
<path d="M7400 7300 c-11 -7 -4 -10 27 -10 65 0 131 -24 302 -108 114 -56 250
-177 324 -287 41 -61 47 -66 47 -42 0 30 -46 128 -90 192 -78 114 -221 215
-355 251 -57 16 -233 18 -255 4z"/>
<path d="M6453 6976 c-233 -147 -362 -233 -394 -263 -24 -22 -26 -30 -24 -94
4 -83 -3 -73 160 -218 76 -67 127 -106 142 -106 13 -1 23 2 23 6 0 4 13 10 28
14 35 7 41 18 101 167 27 68 77 193 111 278 34 85 73 183 86 217 l23 63 -33
25 c-18 14 -35 25 -38 25 -2 0 -86 -51 -185 -114z"/>
<path d="M7268 6858 c-37 -29 -93 -71 -124 -93 -103 -73 -125 -105 -102 -149
14 -27 139 -196 145 -196 2 0 13 21 25 48 11 26 28 65 38 87 10 22 30 69 45
104 l26 63 -21 17 c-62 47 -80 64 -74 72 3 6 14 7 24 4 13 -4 26 2 41 19 13
15 31 26 41 26 10 0 18 7 18 16 0 9 5 12 13 8 8 -5 8 -2 -2 9 -7 9 -16 17 -20
17 -4 0 -37 -24 -73 -52z"/>
<path d="M7315 6658 c-41 -90 -118 -277 -191 -463 -30 -77 -68 -173 -84 -212
-59 -148 -85 -281 -45 -226 15 20 19 15 30 -47 13 -74 18 -90 29 -90 6 0 4 -5
-4 -10 -11 -7 -6 -10 20 -11 33 -1 33 -2 10 -10 -60 -21 96 5 250 42 266 64
265 63 268 99 1 16 11 46 22 65 24 43 20 54 -64 163 -31 40 -52 72 -48 72 4 0
21 -19 37 -41 50 -68 136 -144 145 -129 6 10 9 8 13 -6 3 -13 5 -14 6 -3 2 25
-85 262 -243 662 -66 168 -90 217 -108 217 -5 0 -24 -33 -43 -72z"/>
<path d="M5246 6705 c-6 -18 -72 -21 -78 -4 -6 19 -62 -36 -88 -85 -22 -44
-25 -46 -65 -46 -35 0 -44 4 -48 21 -6 20 -10 22 -68 15 -34 -3 -75 -6 -90 -6
-17 0 -42 -12 -62 -30 -22 -19 -45 -30 -63 -30 -31 1 -64 20 -64 39 0 6 -8 11
-17 11 -26 0 -273 27 -371 41 -88 12 -132 7 -132 -15 0 -7 26 -35 57 -62 88
-75 113 -97 142 -124 26 -25 87 -58 77 -42 -3 5 1 9 9 9 8 0 12 -4 10 -8 -3
-4 11 -10 31 -14 20 -3 48 -18 61 -31 14 -14 33 -26 42 -26 26 0 216 31 346
57 219 44 550 113 565 118 8 3 28 8 44 12 23 5 27 8 15 16 -11 7 -11 9 4 9 10
0 15 5 12 10 -3 6 0 10 8 10 7 0 24 11 36 24 20 21 21 27 9 45 -7 12 -19 21
-26 21 -7 0 -17 11 -21 23 -20 52 -34 57 -156 57 -91 0 -114 -3 -119 -15z"/>
<path d="M5796 6583 c-38 -19 -74 -40 -80 -47 -16 -16 -23 -127 -9 -148 8 -13
9 -18 11 -51 3 -27 16 -15 103 96 71 90 79 104 73 131 -11 56 -22 58 -98 19z"/>
<path d="M6819 6547 c-89 -64 -359 -277 -359 -283 0 -2 6 -1 14 2 12 5 14 -5
12 -47 l-2 -53 79 -91 c126 -143 188 -206 198 -200 5 4 6 0 4 -7 -3 -8 7 -25
21 -38 15 -14 24 -19 19 -12 -6 11 -3 12 14 3 12 -7 27 -9 33 -5 7 5 9 2 5 -8
-6 -17 8 -19 31 -5 6 5 12 5 12 0 1 -4 7 3 16 17 l15 25 -6 -25 c-5 -23 -5
-23 8 -8 8 10 16 16 19 13 2 -2 33 68 67 158 35 89 85 218 112 286 l49 123
-32 42 c-18 22 -35 43 -38 46 -3 3 -23 28 -44 55 -22 28 -43 54 -47 58 -4 5
-17 4 -28 -3 -17 -9 -28 -8 -53 4 -17 9 -32 16 -32 15 -1 0 -40 -28 -87 -62z"/>
<path d="M3899 6515 c-21 -16 -38 -34 -38 -38 -1 -5 -7 -14 -13 -22 -7 -7 -26
-36 -43 -64 -16 -28 -34 -51 -38 -51 -11 0 -47 -87 -47 -113 1 -19 2 -20 13
-6 14 18 62 11 100 -14 18 -11 34 -13 77 -6 30 5 71 11 90 14 19 3 51 8 70 11
83 13 179 38 174 46 -3 4 0 8 6 8 16 0 42 28 30 32 -5 2 -6 9 -1 17 8 12 12
12 26 -2 29 -30 30 -18 0 13 -16 17 -35 30 -42 30 -8 0 -16 7 -19 15 -4 8 -13
15 -21 15 -8 0 -11 5 -8 10 3 6 1 10 -5 10 -6 0 -31 20 -55 45 -69 69 -91 80
-159 80 -51 0 -65 -4 -97 -30z"/>
<path d="M5968 6524 c-3 -3 -17 -6 -31 -8 -17 -2 -42 -23 -78 -67 -29 -35 -69
-83 -90 -106 l-38 -41 30 -79 c111 -288 111 -287 125 -268 8 10 14 15 14 11 0
-5 6 -4 13 2 15 12 108 12 100 0 -2 -5 0 -8 6 -8 5 0 13 5 16 10 4 6 10 8 15
5 9 -6 111 74 196 155 70 66 86 105 59 146 -9 13 -20 22 -26 19 -5 -4 -8 -2
-7 3 2 5 -24 33 -57 62 -33 30 -88 81 -122 114 -60 58 -64 60 -93 49 -17 -6
-28 -7 -24 -2 6 10 1 12 -8 3z"/>
<path d="M5325 6449 c-77 -17 -290 -61 -473 -98 -315 -63 -331 -68 -296 -79
28 -8 40 -8 45 0 4 6 12 7 19 3 9 -6 9 -9 -1 -16 -10 -6 -7 -8 8 -6 12 0 19 5
17 9 -3 4 1 8 9 8 8 0 27 6 42 14 23 12 24 15 8 19 -10 3 1 5 25 6 29 1 44 -4
48 -14 4 -8 12 -15 19 -15 17 0 36 -24 38 -49 1 -12 5 -21 10 -21 4 0 6 -4 3
-9 -3 -5 9 -14 27 -21 17 -6 64 -25 102 -42 133 -58 116 -57 182 -8 152 114
429 347 374 315 -10 -6 -12 -2 -6 14 6 19 3 21 -27 20 -18 0 -96 -14 -173 -30z"/>
<path d="M5343 6251 l-212 -168 97 -46 c53 -25 116 -53 140 -62 l42 -17 22 27
c11 15 31 37 43 48 19 19 89 99 203 231 17 21 32 43 31 49 -1 18 -47 114 -48
100 -1 -7 -8 -10 -16 -7 -10 4 -15 0 -15 -11 0 -16 -2 -17 -17 -3 -43 38 -49
34 -270 -141z"/>
<path d="M5658 6213 c-30 -38 -94 -110 -142 -161 -47 -52 -86 -95 -86 -97 0
-9 51 -31 167 -71 74 -26 120 -37 117 -29 -3 7 5 15 18 19 13 3 39 21 59 40
29 27 39 32 49 23 16 -15 19 -26 -56 180 -32 90 -61 163 -65 163 -3 0 -30 -30
-61 -67z"/>
<path d="M4503 6246 c4 -9 -2 -21 -15 -30 -12 -9 -17 -19 -13 -27 5 -8 4 -10
-3 -5 -12 7 -17 -6 -6 -17 3 -3 34 -75 68 -159 39 -95 68 -153 76 -153 17 0
45 71 67 172 16 71 16 76 -2 106 -10 18 -23 35 -29 40 -7 5 -5 12 8 22 21 16
27 12 -64 45 -14 5 -40 12 -59 15 -28 6 -33 5 -28 -9z"/>
<path d="M4125 6214 c-217 -42 -296 -64 -338 -95 -32 -23 -42 -26 -51 -16 -15
17 -64 38 -69 29 -2 -4 -14 -41 -27 -82 -18 -59 -24 -71 -31 -55 -4 11 -8 -54
-8 -151 l-1 -171 -77 -22 c-125 -36 -267 -110 -333 -172 -13 -13 -27 -23 -30
-21 -3 1 -23 -15 -45 -37 -103 -101 -145 -150 -174 -201 -20 -36 -31 -48 -31
-35 -1 11 -10 -2 -20 -29 -11 -27 -23 -52 -28 -55 -16 -11 -62 -105 -62 -128
0 -12 -6 -23 -12 -25 -18 -6 -16 -157 3 -168 16 -11 39 6 40 29 0 9 7 1 15
-16 8 -18 20 -33 28 -33 7 0 76 66 153 148 244 258 240 253 240 291 0 47 38
80 88 76 34 -3 42 3 160 121 86 87 125 134 129 154 3 17 9 43 12 60 3 17 18
39 35 51 16 11 29 18 29 16 0 -3 15 -1 34 3 18 4 40 4 47 0 17 -10 54 15 44
30 -3 6 -2 9 4 8 5 -2 53 42 106 97 52 55 146 151 208 214 62 62 105 110 97
105 -13 -7 -13 -5 -1 9 7 9 17 14 22 11 5 -3 14 6 20 20 7 14 16 23 22 19 6
-3 7 -1 3 6 -4 6 -2 18 4 26 18 22 -59 18 -205 -11z"/>
<path d="M4385 6179 c-4 -6 -14 -8 -23 -4 -11 4 -87 -66 -259 -238 -134 -135
-243 -249 -243 -255 0 -6 -6 -15 -14 -19 -11 -6 -13 -17 -7 -43 7 -35 8 -35
59 -34 29 1 91 11 139 22 49 12 165 38 258 58 166 36 222 53 198 61 -7 3 -9
12 -7 21 18 56 51 105 65 97 23 -15 15 26 -25 127 -64 164 -84 205 -102 212
-22 9 -32 7 -39 -5z"/>
<path d="M4836 6155 c9 -14 21 -22 28 -18 6 3 8 3 4 -2 -11 -12 72 -107 88
-101 8 3 11 0 7 -10 -4 -10 0 -12 13 -7 13 5 15 3 9 -7 -4 -7 13 2 38 21 25
19 45 39 43 44 -2 9 -216 102 -239 104 -4 1 0 -10 9 -24z"/>
<path d="M6195 6053 c-71 -63 -129 -120 -127 -125 1 -5 -2 -7 -7 -4 -5 4 -12
2 -16 -4 -3 -5 -1 -10 6 -10 10 0 10 -3 1 -12 -16 -16 -15 -29 2 -22 7 3 16
-2 20 -11 3 -9 2 -13 -4 -10 -6 3 -10 1 -10 -4 0 -6 5 -11 11 -11 5 0 7 -4 4
-10 -4 -6 1 -7 11 -3 11 4 15 2 11 -4 -4 -6 17 -15 56 -23 34 -6 127 -28 207
-47 80 -20 154 -37 165 -38 11 -1 31 -6 45 -12 43 -18 79 -25 43 -8 -18 8 -33
16 -33 18 0 1 26 4 57 5 58 3 105 23 100 43 -1 7 5 14 13 16 13 4 13 3 1 -5
-11 -8 -8 -10 12 -9 23 2 24 4 11 18 -8 9 -11 18 -8 22 7 7 -76 105 -214 255
-68 73 -98 99 -104 90 -6 -10 -8 -10 -8 2 0 9 -3 11 -8 5 -11 -17 -59 -16 -72
0 -7 8 -18 15 -24 15 -6 -1 -69 -53 -141 -117z"/>
<path d="M4820 6118 c0 -6 -3 -8 -7 -5 -3 4 -13 1 -22 -7 -19 -16 -71 -27 -71
-15 0 5 -4 9 -9 9 -4 0 -15 -35 -24 -77 -33 -164 -33 -177 10 -188 17 -4 32 0
46 12 20 17 20 17 14 0 -5 -13 -3 -16 5 -11 30 19 46 38 41 48 -3 6 -3 8 2 4
4 -4 14 -3 22 3 7 6 13 8 13 5 0 -4 7 0 16 8 8 9 35 30 60 47 24 16 44 34 44
38 0 12 -120 141 -131 141 -5 0 -9 -5 -9 -12z"/>
<path d="M5051 6023 l-52 -48 86 -84 86 -83 20 23 c15 18 32 24 72 25 46 3 55
7 90 44 22 22 37 44 34 47 -7 7 -234 108 -263 117 -16 5 -33 -5 -73 -41z"/>
<path d="M4923 5927 c-23 -17 -63 -48 -89 -67 -26 -19 -63 -49 -83 -67 -32
-28 -34 -32 -17 -39 39 -15 394 10 413 29 14 15 -136 177 -164 177 -10 0 -37
-15 -60 -33z"/>
<path d="M5379 5893 c-69 -75 -72 -79 -55 -95 9 -10 30 -14 63 -12 26 2 92 6
145 10 54 3 100 9 103 13 2 4 26 6 52 5 36 -2 42 -1 23 5 -14 5 -82 32 -153
60 -70 28 -131 51 -135 51 -4 0 -24 -17 -43 -37z"/>
<path d="M5525 5778 c-216 -17 -235 -27 -173 -91 41 -43 153 -129 193 -150 49
-25 119 -12 159 29 18 19 38 34 43 34 6 0 13 18 15 40 2 22 0 40 -4 40 -4 0
-10 11 -14 25 -3 13 -12 29 -20 36 -8 6 -14 20 -14 30 0 22 -5 22 -185 7z"/>
<path d="M6052 5784 c7 -7 75 -25 100 -27 15 -1 15 -3 -3 -20 -10 -10 -24 -15
-29 -12 -6 3 -10 4 -10 1 0 -3 33 -22 73 -42 73 -38 123 -52 110 -31 -4 7 0 8
11 4 10 -4 15 -3 11 3 -3 6 -1 10 4 10 6 0 11 4 11 8 0 4 -29 7 -65 6 -36 -1
-65 2 -65 7 0 8 -40 24 -53 21 -5 -1 -6 2 -3 7 7 10 43 3 52 -10 3 -5 12 -9
21 -9 13 0 13 2 2 17 -13 15 -12 15 17 0 21 -11 49 -15 85 -13 30 2 46 1 36
-3 -10 -4 18 -7 63 -7 l80 0 -42 13 c-43 13 -103 28 -233 56 -80 18 -181 30
-173 21z"/>
<path d="M5117 5754 c-1 -1 -76 -7 -167 -13 -233 -16 -226 -14 -251 -63 l-21
-42 22 -103 c22 -100 24 -103 48 -98 106 19 130 27 141 48 11 22 11 22 7 -3
-5 -25 -5 -25 12 -4 9 11 33 31 52 44 55 37 116 96 112 108 -2 6 7 16 19 22
17 10 20 9 14 -1 -5 -8 -4 -10 3 -5 7 4 12 14 12 22 0 8 5 12 10 9 6 -3 10 -1
10 4 0 22 2 26 15 41 16 18 7 37 -17 37 -10 0 -19 -1 -21 -3z"/>
<path d="M6043 5703 c-27 -5 -83 -58 -83 -79 0 -8 -7 -29 -16 -46 -9 -17 -18
-42 -20 -57 -3 -14 -7 -35 -10 -46 -4 -15 -3 -16 4 -6 8 11 14 9 31 -8 16 -16
33 -21 76 -21 30 0 55 -4 55 -8 0 -13 83 -30 123 -25 23 3 37 11 37 19 0 8 5
14 11 14 6 0 22 14 36 31 20 23 28 27 34 17 7 -11 9 -11 9 0 0 8 -10 28 -22
45 -13 18 -23 40 -23 50 0 11 -23 30 -63 53 -35 19 -60 29 -56 23 8 -13 1 -10
-55 28 -19 13 -37 22 -40 22 -3 -1 -16 -4 -28 -6z"/>
<path d="M4460 5683 c-30 -7 -129 -29 -220 -48 -91 -20 -204 -44 -251 -55 -48
-11 -98 -20 -112 -20 -52 0 -35 -19 41 -43 150 -49 488 -156 561 -177 40 -12
81 -24 90 -28 14 -5 14 -3 3 10 -11 14 -10 16 8 11 15 -4 19 -2 15 9 -7 18 63
81 81 74 24 -9 25 29 2 121 -21 90 -23 93 -50 93 -34 0 -82 23 -100 48 -12 16
-18 17 -68 5z"/>
<path d="M5162 5667 c-18 -18 -29 -37 -25 -42 5 -4 3 -5 -3 -2 -7 4 -52 -32
-103 -81 -50 -48 -91 -85 -91 -83 0 2 -7 -2 -15 -9 -18 -15 -20 -34 -2 -24 8
5 8 3 -2 -9 -7 -9 -18 -14 -25 -10 -6 4 -5 -1 3 -10 9 -11 10 -17 2 -17 -6 0
-11 -4 -11 -10 0 -5 7 -7 15 -4 10 4 15 0 15 -13 0 -22 35 -63 53 -63 23 1
532 68 523 69 -5 1 -2 8 5 17 12 15 14 14 19 -2 5 -13 11 -5 22 29 10 30 11
47 5 47 -7 0 -7 4 1 12 7 7 12 15 12 20 0 4 -36 35 -80 68 -44 33 -80 66 -80
72 0 5 -7 8 -15 4 -8 -3 -14 -1 -12 3 3 15 -65 71 -77 64 -20 -13 -99 -15 -91
-4 14 23 -13 9 -43 -22z"/>
<path d="M7354 5605 c-128 -29 -259 -61 -291 -70 -58 -16 -60 -18 -59 -48 1
-18 9 -49 19 -71 9 -21 17 -46 17 -56 0 -20 48 -31 101 -25 38 5 48 13 30 24
-9 6 -7 10 8 14 12 3 21 0 21 -5 0 -7 7 -5 18 3 29 24 79 49 97 49 9 0 14 4
11 9 -3 5 10 18 29 30 19 11 35 25 35 31 0 5 4 10 10 10 10 0 20 8 84 61 17
14 53 42 79 62 27 21 43 37 35 36 -7 0 -117 -25 -244 -54z"/>
<path d="M7625 5617 c-340 -288 -504 -439 -485 -445 9 -3 5 -11 -10 -22 l-24
-18 27 5 c15 3 30 9 33 14 9 15 26 10 20 -6 -3 -8 -1 -15 3 -15 5 0 11 4 13 9
2 5 32 11 68 15 l64 5 -34 -20 c-18 -12 -45 -25 -59 -31 -15 -6 -21 -12 -13
-15 6 -3 10 -9 6 -14 -7 -11 1 -11 24 0 9 5 31 15 47 22 102 45 222 158 311
295 84 128 144 269 102 237 -12 -8 -21 -9 -45 -4 -5 1 1 8 11 16 14 11 16 15
5 15 -8 0 -36 -19 -64 -43z"/>
<path d="M3824 5506 c-3 -8 -18 -18 -34 -21 -16 -3 -31 -14 -35 -23 -6 -16
-37 -184 -55 -302 -5 -30 -14 -82 -20 -115 -8 -51 -39 -260 -54 -372 -4 -31
14 -59 22 -35 2 7 8 9 13 6 6 -3 27 5 47 19 20 14 55 33 77 42 89 39 301 147
313 160 4 5 1 5 -7 0 -9 -5 -12 -4 -7 3 4 7 13 12 19 12 7 0 35 18 63 39 29
21 61 42 71 45 11 4 28 15 38 26 19 21 45 27 45 11 0 -5 -9 -13 -20 -16 -11
-3 -20 -10 -20 -15 0 -5 13 -2 29 8 25 14 28 19 19 37 -10 17 -9 18 4 7 17
-14 52 -6 42 10 -8 12 25 48 43 48 8 0 11 5 7 12 -4 7 -3 8 4 4 6 -4 20 2 31
13 11 11 22 16 26 13 3 -4 3 2 -1 12 -6 15 -4 17 6 11 9 -6 12 -4 8 7 -6 15
26 43 40 34 4 -2 7 9 8 26 1 16 7 35 13 41 9 9 11 8 6 -8 -5 -15 -4 -16 3 -6
16 22 2 49 -32 61 -122 43 -683 220 -698 220 -5 0 -11 -6 -14 -14z"/>
<path d="M3652 5491 c-7 -4 -69 -63 -138 -130 -90 -90 -124 -129 -124 -147 0
-35 -36 -67 -68 -61 -24 5 -41 -9 -150 -121 -208 -215 -285 -303 -274 -314 14
-14 472 -129 501 -125 13 1 36 14 51 29 26 26 84 48 127 48 17 0 23 7 28 33
24 137 125 754 125 763 0 6 -11 16 -25 22 -31 14 -36 14 -53 3z"/>
<path d="M5200 5296 c-135 -18 -263 -36 -285 -41 l-40 -8 30 -7 c21 -5 24 -8
10 -10 l-20 -1 20 -9 c17 -7 17 -9 3 -9 -29 -1 -24 -73 7 -107 14 -15 25 -33
25 -40 0 -8 5 -14 11 -14 5 0 8 -4 5 -9 -3 -5 8 -14 25 -20 17 -6 28 -14 25
-19 -3 -5 11 -22 30 -37 32 -26 42 -28 119 -28 77 0 88 3 127 29 24 16 61 48
84 72 23 23 47 42 53 42 6 0 11 6 11 13 0 6 14 28 30 47 16 19 30 45 30 57 0
12 9 27 21 34 16 8 20 18 17 40 -3 17 -1 32 4 35 4 3 8 9 8 15 0 15 -92 9
-350 -25z"/>
<path d="M5606 5173 c-28 -38 -50 -77 -50 -88 -1 -26 -15 -47 -26 -40 -9 6
-70 -76 -70 -94 0 -6 -4 -11 -9 -11 -5 0 -19 -17 -30 -37 l-22 -38 36 40 c20
22 40 50 45 63 6 13 14 21 19 18 5 -4 11 0 14 6 2 7 4 1 3 -15 -1 -24 -2 -25
-13 -10 -11 14 -13 15 -13 1 0 -20 20 -36 43 -33 9 2 15 -1 12 -5 -3 -5 -1
-11 5 -15 5 -3 10 -17 10 -31 0 -25 31 -47 37 -27 2 6 12 9 22 6 10 -3 22 0
25 6 10 16 36 13 36 -3 0 -27 70 -6 107 31 22 24 38 33 51 29 12 -4 26 1 37
14 10 11 23 20 29 20 6 0 17 9 23 19 7 11 27 27 46 36 30 14 33 19 29 50 -4
31 -2 35 19 35 25 1 59 21 59 36 0 5 -9 15 -20 22 -11 7 -20 19 -20 27 0 12
-16 15 -82 16 -268 3 -277 3 -290 22 -12 16 -18 11 -62 -50z"/>
<path d="M4359 4972 c-130 -97 -273 -204 -317 -237 -45 -33 -81 -64 -81 -69
-1 -5 7 -2 16 5 15 12 16 12 11 -2 -5 -13 -2 -16 13 -12 11 3 19 0 19 -7 0
-10 3 -10 15 0 11 9 15 9 15 1 0 -7 5 -9 10 -6 6 4 17 2 25 -5 9 -8 76 -9 232
-5 243 6 247 7 286 23 16 7 36 12 45 12 9 0 26 7 36 15 11 8 28 13 38 9 23 -7
59 13 52 30 -3 7 2 16 10 19 9 4 16 18 16 32 0 20 5 25 27 25 14 0 23 3 20 7
-4 3 -2 12 4 20 26 31 -14 175 -43 157 -5 -3 -6 7 -3 23 3 15 3 23 -1 16 -3
-8 -21 5 -48 33 -23 24 -47 44 -53 44 -6 0 -16 6 -22 14 -9 11 -9 15 1 19 7 2
0 4 -17 3 -16 0 -39 3 -50 6 -15 5 -73 -33 -256 -170z"/>
<path d="M2856 4670 c-10 -11 -23 -17 -27 -14 -5 3 -10 -14 -10 -38 -2 -42 -2
-42 -8 -9 -6 37 -27 52 -37 28 -3 -9 -1 -62 5 -119 10 -96 39 -205 78 -288 19
-41 91 -150 99 -150 3 0 -4 15 -16 33 -22 33 -70 132 -70 145 0 4 22 -27 48
-68 47 -73 93 -125 80 -90 -4 12 3 16 31 17 60 2 111 10 119 18 4 5 1 5 -7 0
-10 -5 -12 -4 -7 4 4 6 12 9 17 5 18 -10 77 36 156 123 43 47 77 93 76 100 0
9 5 12 14 9 11 -4 13 -2 10 9 -4 8 -2 17 2 20 5 2 14 26 20 51 19 76 5 97 -82
123 -134 39 -427 111 -450 110 -12 0 -31 -9 -41 -19z"/>
<path d="M3973 4564 c-6 -3 -17 -24 -24 -48 -9 -31 -26 -54 -60 -82 -27 -21
-48 -47 -49 -57 0 -27 40 -56 76 -57 48 0 301 50 332 66 15 7 41 14 59 14 17
0 33 4 35 10 2 5 17 10 35 12 17 1 30 5 27 9 -5 9 32 19 71 19 l30 1 -25 14
c-24 14 -24 14 14 8 28 -4 37 -3 32 5 -4 8 0 12 11 13 16 0 16 1 -2 9 -18 8
-18 9 5 10 23 1 23 2 5 10 -16 7 -14 9 14 9 47 1 30 14 -22 17 -384 22 -541
27 -564 18z"/>
<path d="M3394 4322 c-164 -172 -225 -247 -218 -266 3 -9 11 -13 17 -9 6 4 8
0 5 -8 -5 -12 4 -14 56 -8 71 8 83 12 207 74 101 50 219 124 219 138 0 4 4 6
9 2 16 -9 34 35 33 83 -2 57 -11 85 -27 79 -7 -3 -17 -1 -22 4 -12 12 -121 18
-150 8 -17 -6 -21 -5 -16 6 3 8 4 15 2 14 -2 0 -54 -53 -115 -117z"/>
<path d="M4485 4392 c-44 -9 -82 -19 -83 -24 -2 -4 -8 -5 -13 -2 -14 8 -149
-16 -149 -27 0 -6 -4 -7 -10 -4 -17 10 -310 -57 -332 -77 -12 -10 -16 -18 -9
-18 8 0 6 -12 -8 -34 -12 -18 -21 -37 -21 -41 0 -12 86 2 185 29 50 13 115 31
145 39 30 9 78 26 105 38 28 13 58 24 69 25 10 1 22 7 26 14 4 7 26 13 49 13
22 0 38 4 35 8 -3 5 0 9 6 9 6 0 9 4 6 9 -3 4 6 6 19 3 25 -4 57 19 61 44 1 8
2 14 1 13 -1 -1 -38 -8 -82 -17z"/>
<path d="M3585 4145 c-144 -82 -300 -145 -359 -145 -14 0 -28 -4 -31 -10 -4
-6 6 -10 22 -10 21 0 24 -3 13 -10 -26 -16 0 -25 74 -24 78 1 202 37 267 77
102 63 202 174 176 196 -10 8 -51 -11 -162 -74z"/>
<path d="M640 6041 c0 -64 111 -101 297 -101 181 1 320 30 385 83 l23 18 -24
-11 c-12 -7 -66 -20 -118 -31 -83 -17 -110 -18 -216 -9 -151 13 -199 22 -272
55 -72 31 -75 31 -75 -4z"/>
<path d="M0 3665 c0 -311 3 -565 6 -565 3 0 72 18 153 39 274 74 430 111 468
111 59 -1 24 -15 -144 -59 -81 -21 -223 -58 -315 -82 l-168 -44 0 -478 c0
-443 1 -479 17 -473 9 4 71 23 137 42 67 19 131 40 144 45 13 5 32 9 42 9 11
0 28 10 40 22 14 16 20 18 21 7 0 -8 5 -3 10 11 7 17 7 26 -1 28 -7 3 -4 9 7
17 16 12 18 25 12 161 -4 103 -2 172 7 224 7 41 13 92 14 112 0 42 8 68 21 68
5 0 9 -10 10 -22 1 -26 3 -20 19 40 13 50 16 50 132 21 46 -12 121 -25 168
-30 175 -18 446 11 553 60 26 12 59 26 73 31 72 28 195 139 196 177 0 4 4 14
10 21 6 6 7 12 4 12 -4 0 0 10 8 22 28 39 17 43 -21 8 -34 -31 -33 -30 5 10
40 43 58 81 30 63 -39 -23 -43 -11 -21 61 6 20 -2 16 -95 -42 -12 -8 -25 -13
-27 -10 -3 3 17 19 44 37 37 24 51 40 56 64 4 17 16 47 26 65 30 53 23 56 -28
13 -90 -75 -288 -134 -498 -146 -190 -12 -421 25 -529 83 -48 26 -106 86 -106
109 0 7 -4 13 -10 13 -5 0 -10 -24 -10 -52 0 -56 -15 -124 -29 -132 -15 -9
-48 28 -55 61 -5 23 -1 43 15 75 12 24 25 45 29 48 15 11 30 50 30 82 0 18 7
42 15 52 8 11 15 33 15 49 0 25 3 27 23 21 12 -3 27 -11 34 -16 7 -5 17 -7 22
-4 5 4 12 2 16 -4 9 -15 41 -12 55 5 8 9 8 15 2 15 -6 0 -13 8 -17 18 -3 9
-27 33 -53 52 -67 49 -314 265 -397 345 -38 38 -73 68 -78 67 -4 -1 -24 5 -43
13 -20 8 -38 15 -40 15 -2 0 -4 -254 -4 -565z"/>
<path d="M8020 3752 c0 -7 -5 -10 -11 -6 -7 4 -7 -1 1 -15 16 -32 21 -61 8
-61 -6 0 -8 -9 -5 -20 20 -76 -354 -139 -556 -94 -82 18 -184 64 -211 93 -16
17 -20 18 -32 6 -42 -41 4 -108 109 -160 207 -101 549 -95 719 12 39 24 68 68
68 103 0 37 -89 178 -90 142z"/>
<path d="M685 3601 c-22 -43 -15 -104 16 -137 64 -68 335 -105 509 -70 102 21
222 76 249 115 25 34 27 93 6 111 -12 10 -15 10 -15 -3 0 -65 -274 -148 -438
-132 -37 3 -100 14 -141 23 -76 17 -115 43 -152 102 l-16 25 -18 -34z"/>
<path d="M1852 3589 c-62 -16 -127 -36 -145 -44 l-32 -15 35 5 35 6 -32 -15
c-23 -10 -33 -22 -33 -37 0 -17 3 -19 14 -10 11 10 158 48 244 65 14 2 32 24
32 38 0 4 -15 5 -32 3 l-33 -5 29 10 c16 5 33 7 37 5 3 -3 12 2 19 10 18 22
-4 19 -138 -16z"/>
<path d="M7019 3354 c17 -14 31 -36 31 -48 0 -26 -38 -62 -62 -58 -9 2 -30 -3
-45 -11 -15 -8 -95 -29 -178 -47 -82 -19 -151 -37 -153 -42 -7 -15 -81 -8
-139 13 -60 23 -153 78 -153 91 0 15 -28 8 -34 -8 -33 -87 44 -161 212 -205
143 -38 378 -26 497 24 113 47 151 103 125 182 -12 36 -100 135 -120 135 -6 0
2 -12 19 -26z"/>
<path d="M9646 3095 c-4 -19 -10 -35 -14 -35 -4 0 -20 -12 -35 -26 -33 -30
-60 -39 -184 -59 -117 -19 -183 -19 -273 0 -71 15 -171 57 -191 81 -16 20 -39
5 -39 -26 0 -15 10 -40 22 -55 31 -39 154 -93 251 -111 90 -15 322 -19 313 -5
-3 5 9 9 28 9 52 0 154 50 172 83 21 41 17 87 -11 136 -14 23 -27 43 -29 43
-2 0 -7 -16 -10 -35z"/>
<path d="M1639 2575 c-1 -5 -1 -13 0 -17 3 -18 -82 -44 -724 -220 -237 -65
-732 -205 -827 -235 l-88 -27 0 -128 c0 -96 3 -128 12 -128 7 0 47 11 88 24
41 13 137 43 213 67 97 30 133 45 120 50 -17 7 -17 8 2 8 11 1 27 6 35 12 12
8 8 9 -15 6 -16 -2 -25 -2 -18 0 10 4 28 71 23 89 -1 4 6 11 15 16 10 6 14 17
10 28 -5 15 4 22 47 38 113 42 513 159 1015 297 l63 18 40 -37 c44 -40 66 -44
111 -20 31 15 31 16 24 77 -4 34 -9 63 -10 65 -2 2 -13 -1 -24 -8 -22 -11 -28
-30 -11 -30 6 0 10 -4 10 -10 0 -19 -28 -10 -44 15 -9 14 -21 25 -28 25 -6 0
-17 8 -24 18 -7 9 -14 13 -15 7z"/>
<path d="M990 2099 c0 -30 24 -22 -609 -202 -24 -6 -119 -35 -210 -62 l-166
-50 -3 -893 -2 -892 665 0 c366 0 665 3 665 7 0 22 -26 73 -37 73 -7 0 -13 8
-13 18 0 19 -39 62 -56 62 -17 0 -64 55 -69 79 -5 27 -24 53 -35 46 -9 -6 -46
37 -55 64 -3 12 -11 21 -16 21 -5 0 -9 10 -9 23 0 12 -14 35 -31 51 -20 20
-27 31 -19 36 9 6 9 13 1 29 -13 24 -27 27 -34 9 -6 -20 -37 10 -37 37 0 12
-9 34 -20 48 -24 30 -25 37 -5 37 8 0 15 4 15 9 0 5 -7 14 -15 21 -8 7 -15 21
-15 31 0 13 -7 19 -22 19 -21 0 -58 45 -58 70 0 5 -11 26 -25 46 -14 20 -22
40 -20 45 3 4 -1 23 -8 41 -8 18 -12 38 -10 45 2 6 -1 14 -6 18 -6 3 -11 17
-11 31 0 17 -6 24 -19 24 -14 0 -23 12 -34 43 -9 27 -19 41 -29 39 -24 -4 -40
46 -52 161 -4 30 -12 42 -29 42 -18 0 -55 198 -61 323 -3 60 -16 101 -16 51
-1 -21 -2 -22 -11 -6 -5 9 -8 40 -6 68 4 48 7 53 43 70 47 23 386 135 451 149
44 10 47 9 97 -28 67 -51 91 -63 110 -56 27 10 18 35 -39 101 -30 36 -55 68
-55 73 0 4 -18 17 -40 28 -38 19 -40 19 -40 1z"/>
<path d="M2157 1853 c-20 -46 -104 -105 -181 -128 -90 -27 -232 -38 -336 -27
-167 18 -257 67 -277 149 l-9 38 -22 -35 c-49 -78 -18 -162 77 -211 79 -40
166 -54 331 -53 162 0 233 14 337 64 86 42 123 87 123 148 -1 26 -6 57 -13 70
-13 22 -13 22 -30 -15z"/>
</g>
</svg>
